<?xml version="1.0" encoding="UTF-8" standalone="no"?>
<!DOCTYPE svg PUBLIC "-//W3C//DTD SVG 1.1//EN"
 "http://www.w3.org/Graphics/SVG/1.1/DTD/svg11.dtd">
<!-- Generated by graphviz version 2.38.0 (20140413.2041)
 -->
<!-- Title: Graphical Class Hierarchy Pages: 1 -->
<svg width="522pt" height="970pt"
 viewBox="0.00 0.00 522.00 970.00" xmlns="http://www.w3.org/2000/svg" xmlns:xlink="http://www.w3.org/1999/xlink">
<g id="graph0" class="graph" transform="scale(1 1) rotate(0) translate(4 966)">
<title>Graphical Class Hierarchy</title>
<polygon fill="white" stroke="none" points="-4,4 -4,-966 518,-966 518,4 -4,4"/>
<!-- Node164 -->
<g id="node1" class="node"><title>Node164</title>
<polygon fill="white" stroke="#bfbfbf" points="0,-465.5 0,-495.5 239,-495.5 239,-465.5 0,-465.5"/>
<text text-anchor="start" x="8" y="-483.5" font-family="Helvetica,sans-Serif" font-size="10.00">pymoduleconnector.moduleconnectorwrapper.</text>
<text text-anchor="middle" x="119.5" y="-472.5" font-family="Helvetica,sans-Serif" font-size="10.00">_object</text>
</g>
<!-- Node0 -->
<g id="node2" class="node"><title>Node0</title>
<g id="a_node2"><a xlink:href="classpymoduleconnector_1_1moduleconnectorwrapper_1_1_baseband_ap_data.xhtml" target="_top" xlink:title="Represents amplitude phase baseband data coming from the module. ">
<polygon fill="white" stroke="black" points="275,-931.5 275,-961.5 514,-961.5 514,-931.5 275,-931.5"/>
<text text-anchor="start" x="283" y="-949.5" font-family="Helvetica,sans-Serif" font-size="10.00">pymoduleconnector.moduleconnectorwrapper.</text>
<text text-anchor="middle" x="394.5" y="-938.5" font-family="Helvetica,sans-Serif" font-size="10.00">BasebandApData</text>
</a>
</g>
</g>
<!-- Node164&#45;&gt;Node0 -->
<g id="edge1" class="edge"><title>Node164&#45;&gt;Node0</title>
<path fill="none" stroke="midnightblue" d="M121.132,-505.579C124.479,-581.321 145.368,-809.45 275,-922.5 278.876,-925.88 283.095,-928.833 287.557,-931.41"/>
<polygon fill="midnightblue" stroke="midnightblue" points="124.628,-505.403 120.755,-495.542 117.633,-505.666 124.628,-505.403"/>
</g>
<!-- Node166 -->
<g id="node3" class="node"><title>Node166</title>
<g id="a_node3"><a xlink:href="classpymoduleconnector_1_1moduleconnectorwrapper_1_1_baseband_iq_data.xhtml" target="_top" xlink:title="Represents I/Q baseband data coming from the module. ">
<polygon fill="white" stroke="black" points="275,-882.5 275,-912.5 514,-912.5 514,-882.5 275,-882.5"/>
<text text-anchor="start" x="283" y="-900.5" font-family="Helvetica,sans-Serif" font-size="10.00">pymoduleconnector.moduleconnectorwrapper.</text>
<text text-anchor="middle" x="394.5" y="-889.5" font-family="Helvetica,sans-Serif" font-size="10.00">BasebandIqData</text>
</a>
</g>
</g>
<!-- Node164&#45;&gt;Node166 -->
<g id="edge2" class="edge"><title>Node164&#45;&gt;Node166</title>
<path fill="none" stroke="midnightblue" d="M122.403,-506.071C129.099,-576.632 157.978,-775.327 275,-873.5 279.02,-876.873 283.385,-879.816 287.99,-882.38"/>
<polygon fill="midnightblue" stroke="midnightblue" points="125.869,-505.537 121.508,-495.882 118.896,-506.15 125.869,-505.537"/>
</g>
<!-- Node167 -->
<g id="node4" class="node"><title>Node167</title>
<g id="a_node4"><a xlink:href="classpymoduleconnector_1_1moduleconnectorwrapper_1_1_data_record.xhtml" target="_top" xlink:title="Encapsulates data and information about one data record on disk. ">
<polygon fill="white" stroke="black" points="275,-833.5 275,-863.5 514,-863.5 514,-833.5 275,-833.5"/>
<text text-anchor="start" x="283" y="-851.5" font-family="Helvetica,sans-Serif" font-size="10.00">pymoduleconnector.moduleconnectorwrapper.</text>
<text text-anchor="middle" x="394.5" y="-840.5" font-family="Helvetica,sans-Serif" font-size="10.00">DataRecord</text>
</a>
</g>
</g>
<!-- Node164&#45;&gt;Node167 -->
<g id="edge3" class="edge"><title>Node164&#45;&gt;Node167</title>
<path fill="none" stroke="midnightblue" d="M123.949,-505.917C134.107,-570.304 170.089,-740.656 275,-824.5 279.263,-827.907 283.883,-830.87 288.743,-833.443"/>
<polygon fill="midnightblue" stroke="midnightblue" points="127.383,-505.213 122.438,-495.843 120.461,-506.252 127.383,-505.213"/>
</g>
<!-- Node168 -->
<g id="node5" class="node"><title>Node168</title>
<g id="a_node5"><a xlink:href="classpymoduleconnector_1_1moduleconnectorwrapper_1_1_data_type.xhtml" target="_top" xlink:title="Proxy of C++ XeThru::DataType class. ">
<polygon fill="white" stroke="black" points="275,-784.5 275,-814.5 514,-814.5 514,-784.5 275,-784.5"/>
<text text-anchor="start" x="283" y="-802.5" font-family="Helvetica,sans-Serif" font-size="10.00">pymoduleconnector.moduleconnectorwrapper.</text>
<text text-anchor="middle" x="394.5" y="-791.5" font-family="Helvetica,sans-Serif" font-size="10.00">DataType</text>
</a>
</g>
</g>
<!-- Node164&#45;&gt;Node168 -->
<g id="edge4" class="edge"><title>Node164&#45;&gt;Node168</title>
<path fill="none" stroke="midnightblue" d="M125.953,-505.799C139.809,-563.598 182.056,-705.707 275,-775.5 279.532,-778.903 284.426,-781.855 289.556,-784.414"/>
<polygon fill="midnightblue" stroke="midnightblue" points="129.285,-504.671 123.622,-495.717 122.465,-506.248 129.285,-504.671"/>
</g>
<!-- Node169 -->
<g id="node6" class="node"><title>Node169</title>
<g id="a_node6"><a xlink:href="classpymoduleconnector_1_1moduleconnectorwrapper_1_1_detection_zone.xhtml" target="_top" xlink:title="Representation of the detection zone. ">
<polygon fill="white" stroke="black" points="275,-735.5 275,-765.5 514,-765.5 514,-735.5 275,-735.5"/>
<text text-anchor="start" x="283" y="-753.5" font-family="Helvetica,sans-Serif" font-size="10.00">pymoduleconnector.moduleconnectorwrapper.</text>
<text text-anchor="middle" x="394.5" y="-742.5" font-family="Helvetica,sans-Serif" font-size="10.00">DetectionZone</text>
</a>
</g>
</g>
<!-- Node164&#45;&gt;Node169 -->
<g id="edge5" class="edge"><title>Node164&#45;&gt;Node169</title>
<path fill="none" stroke="midnightblue" d="M128.569,-505.399C146.296,-555.885 193.67,-670.27 275,-726.5 279.921,-729.902 285.215,-732.844 290.737,-735.386"/>
<polygon fill="midnightblue" stroke="midnightblue" points="131.779,-503.971 125.234,-495.64 125.155,-506.234 131.779,-503.971"/>
</g>
<!-- Node170 -->
<g id="node7" class="node"><title>Node170</title>
<g id="a_node7"><a xlink:href="classpymoduleconnector_1_1moduleconnectorwrapper_1_1_detection_zone_limits.xhtml" target="_top" xlink:title="Is an aggrgation of parameters used to represent the detection zone limits. ">
<polygon fill="white" stroke="black" points="275,-686.5 275,-716.5 514,-716.5 514,-686.5 275,-686.5"/>
<text text-anchor="start" x="283" y="-704.5" font-family="Helvetica,sans-Serif" font-size="10.00">pymoduleconnector.moduleconnectorwrapper.</text>
<text text-anchor="middle" x="394.5" y="-693.5" font-family="Helvetica,sans-Serif" font-size="10.00">DetectionZoneLimits</text>
</a>
</g>
</g>
<!-- Node164&#45;&gt;Node170 -->
<g id="edge6" class="edge"><title>Node164&#45;&gt;Node170</title>
<path fill="none" stroke="midnightblue" d="M132.093,-504.57C153.804,-546.883 204.819,-634.203 275,-677.5 280.538,-680.917 286.472,-683.858 292.626,-686.388"/>
<polygon fill="midnightblue" stroke="midnightblue" points="135.175,-502.908 127.558,-495.544 128.92,-506.051 135.175,-502.908"/>
</g>
<!-- Node171 -->
<g id="node8" class="node"><title>Node171</title>
<g id="a_node8"><a xlink:href="classpymoduleconnector_1_1moduleconnectorwrapper_1_1_files.xhtml" target="_top" xlink:title="pymoduleconnector.moduleconnectorwrapper.\lFiles">
<polygon fill="white" stroke="black" points="275,-637.5 275,-667.5 514,-667.5 514,-637.5 275,-637.5"/>
<text text-anchor="start" x="283" y="-655.5" font-family="Helvetica,sans-Serif" font-size="10.00">pymoduleconnector.moduleconnectorwrapper.</text>
<text text-anchor="middle" x="394.5" y="-644.5" font-family="Helvetica,sans-Serif" font-size="10.00">Files</text>
</a>
</g>
</g>
<!-- Node164&#45;&gt;Node171 -->
<g id="edge7" class="edge"><title>Node164&#45;&gt;Node171</title>
<path fill="none" stroke="midnightblue" d="M137.634,-503.738C163.486,-536.986 215.78,-597.528 275,-628.5 281.603,-631.953 288.654,-634.911 295.901,-637.443"/>
<polygon fill="midnightblue" stroke="midnightblue" points="140.205,-501.338 131.351,-495.519 134.644,-505.589 140.205,-501.338"/>
</g>
<!-- Node172 -->
<g id="node9" class="node"><title>Node172</title>
<g id="a_node9"><a xlink:href="classpymoduleconnector_1_1moduleconnectorwrapper_1_1_frame_area.xhtml" target="_top" xlink:title="pymoduleconnector.moduleconnectorwrapper.\lFrameArea">
<polygon fill="white" stroke="black" points="275,-588.5 275,-618.5 514,-618.5 514,-588.5 275,-588.5"/>
<text text-anchor="start" x="283" y="-606.5" font-family="Helvetica,sans-Serif" font-size="10.00">pymoduleconnector.moduleconnectorwrapper.</text>
<text text-anchor="middle" x="394.5" y="-595.5" font-family="Helvetica,sans-Serif" font-size="10.00">FrameArea</text>
</a>
</g>
</g>
<!-- Node164&#45;&gt;Node172 -->
<g id="edge8" class="edge"><title>Node164&#45;&gt;Node172</title>
<path fill="none" stroke="midnightblue" d="M147.35,-502.14C176.893,-524.846 226.626,-559.907 275,-579.5 283.463,-582.928 292.471,-585.884 301.596,-588.429"/>
<polygon fill="midnightblue" stroke="midnightblue" points="149.253,-499.186 139.213,-495.803 144.953,-504.709 149.253,-499.186"/>
</g>
<!-- Node173 -->
<g id="node10" class="node"><title>Node173</title>
<g id="a_node10"><a xlink:href="classpymoduleconnector_1_1moduleconnectorwrapper_1_1_preferred_split_size.xhtml" target="_top" xlink:title="The PreferredSplitSize class allows specifying a split size. ">
<polygon fill="white" stroke="black" points="275,-539.5 275,-569.5 514,-569.5 514,-539.5 275,-539.5"/>
<text text-anchor="start" x="283" y="-557.5" font-family="Helvetica,sans-Serif" font-size="10.00">pymoduleconnector.moduleconnectorwrapper.</text>
<text text-anchor="middle" x="394.5" y="-546.5" font-family="Helvetica,sans-Serif" font-size="10.00">PreferredSplitSize</text>
</a>
</g>
</g>
<!-- Node164&#45;&gt;Node173 -->
<g id="edge9" class="edge"><title>Node164&#45;&gt;Node173</title>
<path fill="none" stroke="midnightblue" d="M172.498,-498.953C202.265,-509.106 240.453,-521.443 275,-530.5 287.183,-533.694 300.164,-536.709 312.901,-539.454"/>
<polygon fill="midnightblue" stroke="midnightblue" points="173.338,-495.541 162.743,-495.601 171.063,-502.161 173.338,-495.541"/>
</g>
<!-- Node174 -->
<g id="node11" class="node"><title>Node174</title>
<g id="a_node11"><a xlink:href="classpymoduleconnector_1_1moduleconnectorwrapper_1_1_py_data_player.xhtml" target="_top" xlink:title="pymoduleconnector.moduleconnectorwrapper.\lPyDataPlayer">
<polygon fill="white" stroke="black" points="275,-490.5 275,-520.5 514,-520.5 514,-490.5 275,-490.5"/>
<text text-anchor="start" x="283" y="-508.5" font-family="Helvetica,sans-Serif" font-size="10.00">pymoduleconnector.moduleconnectorwrapper.</text>
<text text-anchor="middle" x="394.5" y="-497.5" font-family="Helvetica,sans-Serif" font-size="10.00">PyDataPlayer</text>
</a>
</g>
</g>
<!-- Node164&#45;&gt;Node174 -->
<g id="edge10" class="edge"><title>Node164&#45;&gt;Node174</title>
<path fill="none" stroke="midnightblue" d="M249.042,-492.271C257.576,-493.053 266.151,-493.838 274.635,-494.615"/>
<polygon fill="midnightblue" stroke="midnightblue" points="249.328,-488.783 239.051,-491.356 248.69,-495.754 249.328,-488.783"/>
</g>
<!-- Node175 -->
<g id="node12" class="node"><title>Node175</title>
<g id="a_node12"><a xlink:href="classpymoduleconnector_1_1moduleconnectorwrapper_1_1_py_data_reader.xhtml" target="_top" xlink:title="The PyDataReader class allows reading of xethru data records from a recording. ">
<polygon fill="white" stroke="black" points="275,-441.5 275,-471.5 514,-471.5 514,-441.5 275,-441.5"/>
<text text-anchor="start" x="283" y="-459.5" font-family="Helvetica,sans-Serif" font-size="10.00">pymoduleconnector.moduleconnectorwrapper.</text>
<text text-anchor="middle" x="394.5" y="-448.5" font-family="Helvetica,sans-Serif" font-size="10.00">PyDataReader</text>
</a>
</g>
</g>
<!-- Node164&#45;&gt;Node175 -->
<g id="edge11" class="edge"><title>Node164&#45;&gt;Node175</title>
<path fill="none" stroke="midnightblue" d="M249.042,-469.2C257.576,-468.449 266.151,-467.695 274.635,-466.95"/>
<polygon fill="midnightblue" stroke="midnightblue" points="248.706,-465.716 239.051,-470.078 249.319,-472.689 248.706,-465.716"/>
</g>
<!-- Node176 -->
<g id="node13" class="node"><title>Node176</title>
<g id="a_node13"><a xlink:href="classpymoduleconnector_1_1moduleconnectorwrapper_1_1_py_data_recorder.xhtml" target="_top" xlink:title="The DataRecorder class allows recording of xethru data types. ">
<polygon fill="white" stroke="black" points="275,-392.5 275,-422.5 514,-422.5 514,-392.5 275,-392.5"/>
<text text-anchor="start" x="283" y="-410.5" font-family="Helvetica,sans-Serif" font-size="10.00">pymoduleconnector.moduleconnectorwrapper.</text>
<text text-anchor="middle" x="394.5" y="-399.5" font-family="Helvetica,sans-Serif" font-size="10.00">PyDataRecorder</text>
</a>
</g>
</g>
<!-- Node164&#45;&gt;Node176 -->
<g id="edge12" class="edge"><title>Node164&#45;&gt;Node176</title>
<path fill="none" stroke="midnightblue" d="M174.818,-462.264C204.272,-452.72 241.42,-441.238 275,-432.5 288.532,-428.979 303.029,-425.6 317.078,-422.527"/>
<polygon fill="midnightblue" stroke="midnightblue" points="173.563,-458.991 165.14,-465.419 175.733,-465.646 173.563,-458.991"/>
</g>
<!-- Node177 -->
<g id="node14" class="node"><title>Node177</title>
<g id="a_node14"><a xlink:href="classpymoduleconnector_1_1moduleconnectorwrapper_1_1_python_module_connector.xhtml" target="_top" xlink:title="C++ includes: PythonModuleConnector.hpp. ">
<polygon fill="white" stroke="black" points="275,-343.5 275,-373.5 514,-373.5 514,-343.5 275,-343.5"/>
<text text-anchor="start" x="283" y="-361.5" font-family="Helvetica,sans-Serif" font-size="10.00">pymoduleconnector.moduleconnectorwrapper.</text>
<text text-anchor="middle" x="394.5" y="-350.5" font-family="Helvetica,sans-Serif" font-size="10.00">PythonModuleConnector</text>
</a>
</g>
</g>
<!-- Node164&#45;&gt;Node177 -->
<g id="edge13" class="edge"><title>Node164&#45;&gt;Node177</title>
<path fill="none" stroke="midnightblue" d="M147.952,-459.026C177.641,-436.852 227.165,-402.844 275,-383.5 284.551,-379.638 294.788,-376.338 305.097,-373.527"/>
<polygon fill="midnightblue" stroke="midnightblue" points="145.625,-456.397 139.76,-465.221 149.847,-461.98 145.625,-456.397"/>
</g>
<!-- Node178 -->
<g id="node15" class="node"><title>Node178</title>
<g id="a_node15"><a xlink:href="classpymoduleconnector_1_1moduleconnectorwrapper_1_1_py_x2_m200.xhtml" target="_top" xlink:title="Interface to the Xethru X2M200 Application module. ">
<polygon fill="white" stroke="black" points="275,-294.5 275,-324.5 514,-324.5 514,-294.5 275,-294.5"/>
<text text-anchor="start" x="283" y="-312.5" font-family="Helvetica,sans-Serif" font-size="10.00">pymoduleconnector.moduleconnectorwrapper.</text>
<text text-anchor="middle" x="394.5" y="-301.5" font-family="Helvetica,sans-Serif" font-size="10.00">PyX2M200</text>
</a>
</g>
</g>
<!-- Node164&#45;&gt;Node178 -->
<g id="edge14" class="edge"><title>Node164&#45;&gt;Node178</title>
<path fill="none" stroke="midnightblue" d="M138.14,-457.142C164.26,-424.322 216.482,-365.153 275,-334.5 282.45,-330.598 290.465,-327.304 298.687,-324.525"/>
<polygon fill="midnightblue" stroke="midnightblue" points="135.186,-455.238 131.778,-465.27 140.698,-459.553 135.186,-455.238"/>
</g>
<!-- Node179 -->
<g id="node16" class="node"><title>Node179</title>
<g id="a_node16"><a xlink:href="classpymoduleconnector_1_1moduleconnectorwrapper_1_1_py_x4_m200.xhtml" target="_top" xlink:title="C++ includes: PyX4M200.hpp. ">
<polygon fill="white" stroke="black" points="275,-245.5 275,-275.5 514,-275.5 514,-245.5 275,-245.5"/>
<text text-anchor="start" x="283" y="-263.5" font-family="Helvetica,sans-Serif" font-size="10.00">pymoduleconnector.moduleconnectorwrapper.</text>
<text text-anchor="middle" x="394.5" y="-252.5" font-family="Helvetica,sans-Serif" font-size="10.00">PyX4M200</text>
</a>
</g>
</g>
<!-- Node164&#45;&gt;Node179 -->
<g id="edge15" class="edge"><title>Node164&#45;&gt;Node179</title>
<path fill="none" stroke="midnightblue" d="M132.356,-456.422C154.318,-414.513 205.497,-328.529 275,-285.5 281.257,-281.626 288.018,-278.345 295.028,-275.565"/>
<polygon fill="midnightblue" stroke="midnightblue" points="129.215,-454.878 127.761,-465.373 135.442,-458.075 129.215,-454.878"/>
</g>
<!-- Node180 -->
<g id="node17" class="node"><title>Node180</title>
<g id="a_node17"><a xlink:href="classpymoduleconnector_1_1moduleconnectorwrapper_1_1_py_x4_m300.xhtml" target="_top" xlink:title="C++ includes: PyX4M300.hpp. ">
<polygon fill="white" stroke="black" points="275,-196.5 275,-226.5 514,-226.5 514,-196.5 275,-196.5"/>
<text text-anchor="start" x="283" y="-214.5" font-family="Helvetica,sans-Serif" font-size="10.00">pymoduleconnector.moduleconnectorwrapper.</text>
<text text-anchor="middle" x="394.5" y="-203.5" font-family="Helvetica,sans-Serif" font-size="10.00">PyX4M300</text>
</a>
</g>
</g>
<!-- Node164&#45;&gt;Node180 -->
<g id="edge16" class="edge"><title>Node164&#45;&gt;Node180</title>
<path fill="none" stroke="midnightblue" d="M128.795,-455.496C146.802,-405.333 194.459,-292.447 275,-236.5 280.526,-232.661 286.522,-229.392 292.784,-226.609"/>
<polygon fill="midnightblue" stroke="midnightblue" points="125.397,-454.61 125.402,-465.205 132.005,-456.92 125.397,-454.61"/>
</g>
<!-- Node181 -->
<g id="node18" class="node"><title>Node181</title>
<g id="a_node18"><a xlink:href="classpymoduleconnector_1_1moduleconnectorwrapper_1_1_py_x_e_p.xhtml" target="_top" xlink:title="C++ includes: PyXEP.hpp. ">
<polygon fill="white" stroke="black" points="275,-147.5 275,-177.5 514,-177.5 514,-147.5 275,-147.5"/>
<text text-anchor="start" x="283" y="-165.5" font-family="Helvetica,sans-Serif" font-size="10.00">pymoduleconnector.moduleconnectorwrapper.</text>
<text text-anchor="middle" x="394.5" y="-154.5" font-family="Helvetica,sans-Serif" font-size="10.00">PyXEP</text>
</a>
</g>
</g>
<!-- Node164&#45;&gt;Node181 -->
<g id="edge17" class="edge"><title>Node164&#45;&gt;Node181</title>
<path fill="none" stroke="midnightblue" d="M126.047,-455.42C140.1,-398.115 182.734,-257.167 275,-187.5 280.118,-183.636 285.698,-180.337 291.558,-177.525"/>
<polygon fill="midnightblue" stroke="midnightblue" points="122.579,-454.879 123.681,-465.416 129.39,-456.492 122.579,-454.879"/>
</g>
<!-- Node182 -->
<g id="node19" class="node"><title>Node182</title>
<g id="a_node19"><a xlink:href="classpymoduleconnector_1_1moduleconnectorwrapper_1_1_recording_options.xhtml" target="_top" xlink:title="The RecordingOptions class allows specifying options for recording. ">
<polygon fill="white" stroke="black" points="275,-98.5 275,-128.5 514,-128.5 514,-98.5 275,-98.5"/>
<text text-anchor="start" x="283" y="-116.5" font-family="Helvetica,sans-Serif" font-size="10.00">pymoduleconnector.moduleconnectorwrapper.</text>
<text text-anchor="middle" x="394.5" y="-105.5" font-family="Helvetica,sans-Serif" font-size="10.00">RecordingOptions</text>
</a>
</g>
</g>
<!-- Node164&#45;&gt;Node182 -->
<g id="edge18" class="edge"><title>Node164&#45;&gt;Node182</title>
<path fill="none" stroke="midnightblue" d="M124.039,-455.277C134.406,-391.373 170.843,-222.247 275,-138.5 279.752,-134.679 284.948,-131.403 290.426,-128.598"/>
<polygon fill="midnightblue" stroke="midnightblue" points="120.562,-454.857 122.493,-465.275 127.48,-455.927 120.562,-454.857"/>
</g>
<!-- Node183 -->
<g id="node20" class="node"><title>Node183</title>
<g id="a_node20"><a xlink:href="classpymoduleconnector_1_1moduleconnectorwrapper_1_1_respiration_data.xhtml" target="_top" xlink:title="Represents the respiration status data coming from the module. ">
<polygon fill="white" stroke="black" points="275,-49.5 275,-79.5 514,-79.5 514,-49.5 275,-49.5"/>
<text text-anchor="start" x="283" y="-67.5" font-family="Helvetica,sans-Serif" font-size="10.00">pymoduleconnector.moduleconnectorwrapper.</text>
<text text-anchor="middle" x="394.5" y="-56.5" font-family="Helvetica,sans-Serif" font-size="10.00">RespirationData</text>
</a>
</g>
</g>
<!-- Node164&#45;&gt;Node183 -->
<g id="edge19" class="edge"><title>Node164&#45;&gt;Node183</title>
<path fill="none" stroke="midnightblue" d="M122.488,-455.104C129.406,-385.019 158.804,-187.61 275,-89.5 279.498,-85.7019 284.43,-82.4356 289.647,-79.6302"/>
<polygon fill="midnightblue" stroke="midnightblue" points="118.988,-454.947 121.561,-465.225 125.959,-455.586 118.988,-454.947"/>
</g>
<!-- Node184 -->
<g id="node21" class="node"><title>Node184</title>
<g id="a_node21"><a xlink:href="classpymoduleconnector_1_1moduleconnectorwrapper_1_1_sleep_data.xhtml" target="_top" xlink:title="Represents the sleep status data coming from the module. ">
<polygon fill="white" stroke="black" points="275,-0.5 275,-30.5 514,-30.5 514,-0.5 275,-0.5"/>
<text text-anchor="start" x="283" y="-18.5" font-family="Helvetica,sans-Serif" font-size="10.00">pymoduleconnector.moduleconnectorwrapper.</text>
<text text-anchor="middle" x="394.5" y="-7.5" font-family="Helvetica,sans-Serif" font-size="10.00">SleepData</text>
</a>
</g>
</g>
<!-- Node164&#45;&gt;Node184 -->
<g id="edge20" class="edge"><title>Node164&#45;&gt;Node184</title>
<path fill="none" stroke="midnightblue" d="M121.238,-455.067C124.888,-379.283 146.557,-153.27 275,-40.5 279.345,-36.6851 284.124,-33.4014 289.194,-30.5787"/>
<polygon fill="midnightblue" stroke="midnightblue" points="117.738,-454.99 120.819,-465.127 124.732,-455.281 117.738,-454.99"/>
</g>
</g>
</svg>
