<?xml version="1.0" encoding="UTF-8" standalone="no"?>
<!DOCTYPE svg PUBLIC "-//W3C//DTD SVG 1.1//EN"
 "http://www.w3.org/Graphics/SVG/1.1/DTD/svg11.dtd">
<!-- Generated by graphviz version 2.38.0 (20140413.2041)
 -->
<!-- Title: Graphical Class Hierarchy Pages: 1 -->
<svg width="474pt" height="921pt"
 viewBox="0.00 0.00 474.00 921.00" xmlns="http://www.w3.org/2000/svg" xmlns:xlink="http://www.w3.org/1999/xlink">
<g id="graph0" class="graph" transform="scale(1 1) rotate(0) translate(4 917)">
<title>Graphical Class Hierarchy</title>
<polygon fill="white" stroke="none" points="-4,4 -4,-917 470,-917 470,4 -4,4"/>
<!-- Node164 -->
<g id="node1" class="node"><title>Node164</title>
<polygon fill="white" stroke="#bfbfbf" points="0,-441.5 0,-471.5 215,-471.5 215,-441.5 0,-441.5"/>
<text text-anchor="start" x="8" y="-459.5" font-family="Helvetica,sans-Serif" font-size="10.00">pymoduleconnector.moduleconnectorwrapper.</text>
<text text-anchor="middle" x="107.5" y="-448.5" font-family="Helvetica,sans-Serif" font-size="10.00">_object</text>
</g>
<!-- Node0 -->
<g id="node2" class="node"><title>Node0</title>
<g id="a_node2"><a xlink:href="classpymoduleconnector_1_1moduleconnectorwrapper_1_1_baseband_ap_data.xhtml" target="_top" xlink:title="Represents amplitude phase baseband data coming from the module. ">
<polygon fill="white" stroke="black" points="251,-882.5 251,-912.5 466,-912.5 466,-882.5 251,-882.5"/>
<text text-anchor="start" x="259" y="-900.5" font-family="Helvetica,sans-Serif" font-size="10.00">pymoduleconnector.moduleconnectorwrapper.</text>
<text text-anchor="middle" x="358.5" y="-889.5" font-family="Helvetica,sans-Serif" font-size="10.00">BasebandApData</text>
</a>
</g>
</g>
<!-- Node164&#45;&gt;Node0 -->
<g id="edge1" class="edge"><title>Node164&#45;&gt;Node0</title>
<path fill="none" stroke="midnightblue" d="M109.081,-481.934C112.195,-554.861 131.599,-766.306 251,-873.5 254.808,-876.919 258.997,-879.883 263.445,-882.451"/>
<polygon fill="midnightblue" stroke="midnightblue" points="112.575,-481.699 108.719,-471.831 105.579,-481.95 112.575,-481.699"/>
</g>
<!-- Node166 -->
<g id="node3" class="node"><title>Node166</title>
<g id="a_node3"><a xlink:href="classpymoduleconnector_1_1moduleconnectorwrapper_1_1_baseband_iq_data.xhtml" target="_top" xlink:title="Represents I/Q baseband data coming from the module. ">
<polygon fill="white" stroke="black" points="251,-833.5 251,-863.5 466,-863.5 466,-833.5 251,-833.5"/>
<text text-anchor="start" x="259" y="-851.5" font-family="Helvetica,sans-Serif" font-size="10.00">pymoduleconnector.moduleconnectorwrapper.</text>
<text text-anchor="middle" x="358.5" y="-840.5" font-family="Helvetica,sans-Serif" font-size="10.00">BasebandIqData</text>
</a>
</g>
</g>
<!-- Node164&#45;&gt;Node166 -->
<g id="edge2" class="edge"><title>Node164&#45;&gt;Node166</title>
<path fill="none" stroke="midnightblue" d="M110.36,-481.629C116.718,-548.483 143.6,-731.907 251,-824.5 254.876,-827.841 259.119,-830.745 263.608,-833.266"/>
<polygon fill="midnightblue" stroke="midnightblue" points="113.839,-481.239 109.479,-471.584 106.866,-481.851 113.839,-481.239"/>
</g>
<!-- Node167 -->
<g id="node4" class="node"><title>Node167</title>
<g id="a_node4"><a xlink:href="classpymoduleconnector_1_1moduleconnectorwrapper_1_1_data_record.xhtml" target="_top" xlink:title="Encapsulates data and information about one data record on disk. ">
<polygon fill="white" stroke="black" points="251,-784.5 251,-814.5 466,-814.5 466,-784.5 251,-784.5"/>
<text text-anchor="start" x="259" y="-802.5" font-family="Helvetica,sans-Serif" font-size="10.00">pymoduleconnector.moduleconnectorwrapper.</text>
<text text-anchor="middle" x="358.5" y="-791.5" font-family="Helvetica,sans-Serif" font-size="10.00">DataRecord</text>
</a>
</g>
</g>
<!-- Node164&#45;&gt;Node167 -->
<g id="edge3" class="edge"><title>Node164&#45;&gt;Node167</title>
<path fill="none" stroke="midnightblue" d="M112.063,-481.94C121.993,-542.804 155.794,-697.535 251,-775.5 255.179,-778.922 259.748,-781.88 264.567,-784.434"/>
<polygon fill="midnightblue" stroke="midnightblue" points="115.468,-481.054 110.478,-471.707 108.55,-482.126 115.468,-481.054"/>
</g>
<!-- Node168 -->
<g id="node5" class="node"><title>Node168</title>
<g id="a_node5"><a xlink:href="classpymoduleconnector_1_1moduleconnectorwrapper_1_1_data_type.xhtml" target="_top" xlink:title="Proxy of C++ XeThru::DataType class. ">
<polygon fill="white" stroke="black" points="251,-735.5 251,-765.5 466,-765.5 466,-735.5 251,-735.5"/>
<text text-anchor="start" x="259" y="-753.5" font-family="Helvetica,sans-Serif" font-size="10.00">pymoduleconnector.moduleconnectorwrapper.</text>
<text text-anchor="middle" x="358.5" y="-742.5" font-family="Helvetica,sans-Serif" font-size="10.00">DataType</text>
</a>
</g>
</g>
<!-- Node164&#45;&gt;Node168 -->
<g id="edge4" class="edge"><title>Node164&#45;&gt;Node168</title>
<path fill="none" stroke="midnightblue" d="M114.143,-481.362C127.698,-535.117 167.356,-662.462 251,-726.5 255.515,-729.956 260.434,-732.932 265.601,-735.493"/>
<polygon fill="midnightblue" stroke="midnightblue" points="117.541,-480.521 111.775,-471.633 110.739,-482.177 117.541,-480.521"/>
</g>
<!-- Node169 -->
<g id="node6" class="node"><title>Node169</title>
<g id="a_node6"><a xlink:href="classpymoduleconnector_1_1moduleconnectorwrapper_1_1_detection_zone.xhtml" target="_top" xlink:title="Representation of the detection zone. ">
<polygon fill="white" stroke="black" points="251,-686.5 251,-716.5 466,-716.5 466,-686.5 251,-686.5"/>
<text text-anchor="start" x="259" y="-704.5" font-family="Helvetica,sans-Serif" font-size="10.00">pymoduleconnector.moduleconnectorwrapper.</text>
<text text-anchor="middle" x="358.5" y="-693.5" font-family="Helvetica,sans-Serif" font-size="10.00">DetectionZone</text>
</a>
</g>
</g>
<!-- Node164&#45;&gt;Node169 -->
<g id="edge5" class="edge"><title>Node164&#45;&gt;Node169</title>
<path fill="none" stroke="midnightblue" d="M117.171,-481.296C134.713,-527.625 178.982,-627.18 251,-677.5 255.894,-680.92 261.196,-683.861 266.732,-686.39"/>
<polygon fill="midnightblue" stroke="midnightblue" points="120.392,-479.914 113.649,-471.741 113.824,-482.335 120.392,-479.914"/>
</g>
<!-- Node170 -->
<g id="node7" class="node"><title>Node170</title>
<g id="a_node7"><a xlink:href="classpymoduleconnector_1_1moduleconnectorwrapper_1_1_detection_zone_limits.xhtml" target="_top" xlink:title="Is an aggrgation of parameters used to represent the detection zone limits. ">
<polygon fill="white" stroke="black" points="251,-637.5 251,-667.5 466,-667.5 466,-637.5 251,-637.5"/>
<text text-anchor="start" x="259" y="-655.5" font-family="Helvetica,sans-Serif" font-size="10.00">pymoduleconnector.moduleconnectorwrapper.</text>
<text text-anchor="middle" x="358.5" y="-644.5" font-family="Helvetica,sans-Serif" font-size="10.00">DetectionZoneLimits</text>
</a>
</g>
</g>
<!-- Node164&#45;&gt;Node170 -->
<g id="edge6" class="edge"><title>Node164&#45;&gt;Node170</title>
<path fill="none" stroke="midnightblue" d="M121.411,-480.578C142.982,-518.361 190.058,-591.112 251,-628.5 256.654,-631.969 262.753,-634.938 269.07,-637.479"/>
<polygon fill="midnightblue" stroke="midnightblue" points="124.42,-478.787 116.483,-471.769 118.311,-482.205 124.42,-478.787"/>
</g>
<!-- Node171 -->
<g id="node8" class="node"><title>Node171</title>
<g id="a_node8"><a xlink:href="classpymoduleconnector_1_1moduleconnectorwrapper_1_1_files.xhtml" target="_top" xlink:title="pymoduleconnector.moduleconnectorwrapper.\lFiles">
<polygon fill="white" stroke="black" points="251,-588.5 251,-618.5 466,-618.5 466,-588.5 251,-588.5"/>
<text text-anchor="start" x="259" y="-606.5" font-family="Helvetica,sans-Serif" font-size="10.00">pymoduleconnector.moduleconnectorwrapper.</text>
<text text-anchor="middle" x="358.5" y="-595.5" font-family="Helvetica,sans-Serif" font-size="10.00">Files</text>
</a>
</g>
</g>
<!-- Node164&#45;&gt;Node171 -->
<g id="edge7" class="edge"><title>Node164&#45;&gt;Node171</title>
<path fill="none" stroke="midnightblue" d="M128.237,-479.357C153.722,-507.362 200.799,-554.197 251,-579.5 257.855,-582.955 265.206,-585.917 272.725,-588.457"/>
<polygon fill="midnightblue" stroke="midnightblue" points="130.617,-476.768 121.339,-471.652 125.402,-481.437 130.617,-476.768"/>
</g>
<!-- Node172 -->
<g id="node9" class="node"><title>Node172</title>
<g id="a_node9"><a xlink:href="classpymoduleconnector_1_1moduleconnectorwrapper_1_1_frame_area.xhtml" target="_top" xlink:title="pymoduleconnector.moduleconnectorwrapper.\lFrameArea">
<polygon fill="white" stroke="black" points="251,-539.5 251,-569.5 466,-569.5 466,-539.5 251,-539.5"/>
<text text-anchor="start" x="259" y="-557.5" font-family="Helvetica,sans-Serif" font-size="10.00">pymoduleconnector.moduleconnectorwrapper.</text>
<text text-anchor="middle" x="358.5" y="-546.5" font-family="Helvetica,sans-Serif" font-size="10.00">FrameArea</text>
</a>
</g>
</g>
<!-- Node164&#45;&gt;Node172 -->
<g id="edge8" class="edge"><title>Node164&#45;&gt;Node172</title>
<path fill="none" stroke="midnightblue" d="M141.48,-476.744C169.67,-493.275 211.78,-516.17 251,-530.5 260.168,-533.85 269.958,-536.823 279.747,-539.436"/>
<polygon fill="midnightblue" stroke="midnightblue" points="143.224,-473.709 132.837,-471.619 139.654,-479.73 143.224,-473.709"/>
</g>
<!-- Node173 -->
<g id="node10" class="node"><title>Node173</title>
<g id="a_node10"><a xlink:href="classpymoduleconnector_1_1moduleconnectorwrapper_1_1_preferred_split_size.xhtml" target="_top" xlink:title="The PreferredSplitSize class allows specifying a split size. ">
<polygon fill="white" stroke="black" points="251,-490.5 251,-520.5 466,-520.5 466,-490.5 251,-490.5"/>
<text text-anchor="start" x="259" y="-508.5" font-family="Helvetica,sans-Serif" font-size="10.00">pymoduleconnector.moduleconnectorwrapper.</text>
<text text-anchor="middle" x="358.5" y="-497.5" font-family="Helvetica,sans-Serif" font-size="10.00">PreferredSplitSize</text>
</a>
</g>
</g>
<!-- Node164&#45;&gt;Node173 -->
<g id="edge9" class="edge"><title>Node164&#45;&gt;Node173</title>
<path fill="none" stroke="midnightblue" d="M194.722,-473.467C222.861,-479.005 253.891,-485.111 281.244,-490.494"/>
<polygon fill="midnightblue" stroke="midnightblue" points="195.388,-470.031 184.9,-471.535 194.036,-476.9 195.388,-470.031"/>
</g>
<!-- Node174 -->
<g id="node11" class="node"><title>Node174</title>
<g id="a_node11"><a xlink:href="classpymoduleconnector_1_1moduleconnectorwrapper_1_1_py_data_player.xhtml" target="_top" xlink:title="pymoduleconnector.moduleconnectorwrapper.\lPyDataPlayer">
<polygon fill="white" stroke="black" points="251,-441.5 251,-471.5 466,-471.5 466,-441.5 251,-441.5"/>
<text text-anchor="start" x="259" y="-459.5" font-family="Helvetica,sans-Serif" font-size="10.00">pymoduleconnector.moduleconnectorwrapper.</text>
<text text-anchor="middle" x="358.5" y="-448.5" font-family="Helvetica,sans-Serif" font-size="10.00">PyDataPlayer</text>
</a>
</g>
</g>
<!-- Node164&#45;&gt;Node174 -->
<g id="edge10" class="edge"><title>Node164&#45;&gt;Node174</title>
<path fill="none" stroke="midnightblue" d="M225.413,-456.5C233.829,-456.5 242.29,-456.5 250.644,-456.5"/>
<polygon fill="midnightblue" stroke="midnightblue" points="225.182,-453 215.182,-456.5 225.182,-460 225.182,-453"/>
</g>
<!-- Node175 -->
<g id="node12" class="node"><title>Node175</title>
<g id="a_node12"><a xlink:href="classpymoduleconnector_1_1moduleconnectorwrapper_1_1_py_data_reader.xhtml" target="_top" xlink:title="The PyDataReader class allows reading of xethru data records from a recording. ">
<polygon fill="white" stroke="black" points="251,-392.5 251,-422.5 466,-422.5 466,-392.5 251,-392.5"/>
<text text-anchor="start" x="259" y="-410.5" font-family="Helvetica,sans-Serif" font-size="10.00">pymoduleconnector.moduleconnectorwrapper.</text>
<text text-anchor="middle" x="358.5" y="-399.5" font-family="Helvetica,sans-Serif" font-size="10.00">PyDataReader</text>
</a>
</g>
</g>
<!-- Node164&#45;&gt;Node175 -->
<g id="edge11" class="edge"><title>Node164&#45;&gt;Node175</title>
<path fill="none" stroke="midnightblue" d="M194.722,-439.533C222.861,-433.995 253.891,-427.889 281.244,-422.506"/>
<polygon fill="midnightblue" stroke="midnightblue" points="194.036,-436.1 184.9,-441.465 195.388,-442.969 194.036,-436.1"/>
</g>
<!-- Node176 -->
<g id="node13" class="node"><title>Node176</title>
<g id="a_node13"><a xlink:href="classpymoduleconnector_1_1moduleconnectorwrapper_1_1_py_data_recorder.xhtml" target="_top" xlink:title="The DataRecorder class allows recording of xethru data types. ">
<polygon fill="white" stroke="black" points="251,-343.5 251,-373.5 466,-373.5 466,-343.5 251,-343.5"/>
<text text-anchor="start" x="259" y="-361.5" font-family="Helvetica,sans-Serif" font-size="10.00">pymoduleconnector.moduleconnectorwrapper.</text>
<text text-anchor="middle" x="358.5" y="-350.5" font-family="Helvetica,sans-Serif" font-size="10.00">PyDataRecorder</text>
</a>
</g>
</g>
<!-- Node164&#45;&gt;Node176 -->
<g id="edge12" class="edge"><title>Node164&#45;&gt;Node176</title>
<path fill="none" stroke="midnightblue" d="M142.062,-436.349C170.291,-420.132 212.152,-397.769 251,-383.5 261.162,-379.768 272.078,-376.458 282.909,-373.568"/>
<polygon fill="midnightblue" stroke="midnightblue" points="140.287,-433.332 133.397,-441.38 143.802,-439.385 140.287,-433.332"/>
</g>
<!-- Node177 -->
<g id="node14" class="node"><title>Node177</title>
<g id="a_node14"><a xlink:href="classpymoduleconnector_1_1moduleconnectorwrapper_1_1_python_module_connector.xhtml" target="_top" xlink:title="C++ includes: PythonModuleConnector.hpp. ">
<polygon fill="white" stroke="black" points="251,-294.5 251,-324.5 466,-324.5 466,-294.5 251,-294.5"/>
<text text-anchor="start" x="259" y="-312.5" font-family="Helvetica,sans-Serif" font-size="10.00">pymoduleconnector.moduleconnectorwrapper.</text>
<text text-anchor="middle" x="358.5" y="-301.5" font-family="Helvetica,sans-Serif" font-size="10.00">PythonModuleConnector</text>
</a>
</g>
</g>
<!-- Node164&#45;&gt;Node177 -->
<g id="edge13" class="edge"><title>Node164&#45;&gt;Node177</title>
<path fill="none" stroke="midnightblue" d="M128.721,-433.465C154.375,-405.719 201.298,-359.703 251,-334.5 258.622,-330.635 266.856,-327.356 275.25,-324.577"/>
<polygon fill="midnightblue" stroke="midnightblue" points="125.905,-431.359 121.763,-441.111 131.082,-436.071 125.905,-431.359"/>
</g>
<!-- Node178 -->
<g id="node15" class="node"><title>Node178</title>
<g id="a_node15"><a xlink:href="classpymoduleconnector_1_1moduleconnectorwrapper_1_1_py_x2_m200.xhtml" target="_top" xlink:title="Interface to the Xethru X2M200 Application module. ">
<polygon fill="white" stroke="black" points="251,-245.5 251,-275.5 466,-275.5 466,-245.5 251,-245.5"/>
<text text-anchor="start" x="259" y="-263.5" font-family="Helvetica,sans-Serif" font-size="10.00">pymoduleconnector.moduleconnectorwrapper.</text>
<text text-anchor="middle" x="358.5" y="-252.5" font-family="Helvetica,sans-Serif" font-size="10.00">PyX2M200</text>
</a>
</g>
</g>
<!-- Node164&#45;&gt;Node178 -->
<g id="edge14" class="edge"><title>Node164&#45;&gt;Node178</title>
<path fill="none" stroke="midnightblue" d="M121.487,-432.626C143.163,-395.151 190.381,-322.943 251,-285.5 257.302,-281.608 264.155,-278.321 271.246,-275.546"/>
<polygon fill="midnightblue" stroke="midnightblue" points="118.421,-430.937 116.534,-441.363 124.51,-434.39 118.421,-430.937"/>
</g>
<!-- Node179 -->
<g id="node16" class="node"><title>Node179</title>
<g id="a_node16"><a xlink:href="classpymoduleconnector_1_1moduleconnectorwrapper_1_1_py_x4_m300.xhtml" target="_top" xlink:title="C++ includes: PyX4M300.hpp. ">
<polygon fill="white" stroke="black" points="251,-196.5 251,-226.5 466,-226.5 466,-196.5 251,-196.5"/>
<text text-anchor="start" x="259" y="-214.5" font-family="Helvetica,sans-Serif" font-size="10.00">pymoduleconnector.moduleconnectorwrapper.</text>
<text text-anchor="middle" x="358.5" y="-203.5" font-family="Helvetica,sans-Serif" font-size="10.00">PyX4M300</text>
</a>
</g>
</g>
<!-- Node164&#45;&gt;Node179 -->
<g id="edge15" class="edge"><title>Node164&#45;&gt;Node179</title>
<path fill="none" stroke="midnightblue" d="M117.246,-431.874C134.913,-385.852 179.384,-286.905 251,-236.5 256.513,-232.619 262.546,-229.334 268.847,-226.554"/>
<polygon fill="midnightblue" stroke="midnightblue" points="113.921,-430.772 113.697,-441.364 120.478,-433.224 113.921,-430.772"/>
</g>
<!-- Node180 -->
<g id="node17" class="node"><title>Node180</title>
<g id="a_node17"><a xlink:href="classpymoduleconnector_1_1moduleconnectorwrapper_1_1_py_x_e_p.xhtml" target="_top" xlink:title="C++ includes: PyXEP.hpp. ">
<polygon fill="white" stroke="black" points="251,-147.5 251,-177.5 466,-177.5 466,-147.5 251,-147.5"/>
<text text-anchor="start" x="259" y="-165.5" font-family="Helvetica,sans-Serif" font-size="10.00">pymoduleconnector.moduleconnectorwrapper.</text>
<text text-anchor="middle" x="358.5" y="-154.5" font-family="Helvetica,sans-Serif" font-size="10.00">PyXEP</text>
</a>
</g>
</g>
<!-- Node164&#45;&gt;Node180 -->
<g id="edge16" class="edge"><title>Node164&#45;&gt;Node180</title>
<path fill="none" stroke="midnightblue" d="M114.301,-431.449C128.078,-377.808 168.008,-251.527 251,-187.5 256.038,-183.614 261.58,-180.316 267.41,-177.521"/>
<polygon fill="midnightblue" stroke="midnightblue" points="110.829,-430.909 111.82,-441.457 117.623,-432.593 110.829,-430.909"/>
</g>
<!-- Node181 -->
<g id="node18" class="node"><title>Node181</title>
<g id="a_node18"><a xlink:href="classpymoduleconnector_1_1moduleconnectorwrapper_1_1_recording_options.xhtml" target="_top" xlink:title="The RecordingOptions class allows specifying options for recording. ">
<polygon fill="white" stroke="black" points="251,-98.5 251,-128.5 466,-128.5 466,-98.5 251,-98.5"/>
<text text-anchor="start" x="259" y="-116.5" font-family="Helvetica,sans-Serif" font-size="10.00">pymoduleconnector.moduleconnectorwrapper.</text>
<text text-anchor="middle" x="358.5" y="-105.5" font-family="Helvetica,sans-Serif" font-size="10.00">RecordingOptions</text>
</a>
</g>
</g>
<!-- Node164&#45;&gt;Node181 -->
<g id="edge17" class="edge"><title>Node164&#45;&gt;Node181</title>
<path fill="none" stroke="midnightblue" d="M112.134,-431.192C122.221,-370.636 156.345,-216.629 251,-138.5 255.687,-134.631 260.866,-131.339 266.342,-128.54"/>
<polygon fill="midnightblue" stroke="midnightblue" points="108.63,-430.948 110.522,-441.373 115.543,-432.044 108.63,-430.948"/>
</g>
<!-- Node182 -->
<g id="node19" class="node"><title>Node182</title>
<g id="a_node19"><a xlink:href="classpymoduleconnector_1_1moduleconnectorwrapper_1_1_respiration_data.xhtml" target="_top" xlink:title="Represents the respiration status data coming from the module. ">
<polygon fill="white" stroke="black" points="251,-49.5 251,-79.5 466,-79.5 466,-49.5 251,-49.5"/>
<text text-anchor="start" x="259" y="-67.5" font-family="Helvetica,sans-Serif" font-size="10.00">pymoduleconnector.moduleconnectorwrapper.</text>
<text text-anchor="middle" x="358.5" y="-56.5" font-family="Helvetica,sans-Serif" font-size="10.00">RespirationData</text>
</a>
</g>
</g>
<!-- Node164&#45;&gt;Node182 -->
<g id="edge18" class="edge"><title>Node164&#45;&gt;Node182</title>
<path fill="none" stroke="midnightblue" d="M110.429,-431.49C116.957,-364.944 144.224,-182.303 251,-89.5 255.444,-85.6378 260.373,-82.3444 265.605,-79.5386"/>
<polygon fill="midnightblue" stroke="midnightblue" points="106.94,-431.213 109.521,-441.489 113.911,-431.846 106.94,-431.213"/>
</g>
<!-- Node183 -->
<g id="node20" class="node"><title>Node183</title>
<g id="a_node20"><a xlink:href="classpymoduleconnector_1_1moduleconnectorwrapper_1_1_sleep_data.xhtml" target="_top" xlink:title="Represents the sleep status data coming from the module. ">
<polygon fill="white" stroke="black" points="251,-0.5 251,-30.5 466,-30.5 466,-0.5 251,-0.5"/>
<text text-anchor="start" x="259" y="-18.5" font-family="Helvetica,sans-Serif" font-size="10.00">pymoduleconnector.moduleconnectorwrapper.</text>
<text text-anchor="middle" x="358.5" y="-7.5" font-family="Helvetica,sans-Serif" font-size="10.00">SleepData</text>
</a>
</g>
</g>
<!-- Node164&#45;&gt;Node183 -->
<g id="edge19" class="edge"><title>Node164&#45;&gt;Node183</title>
<path fill="none" stroke="midnightblue" d="M109.149,-431.177C112.446,-358.56 132.294,-147.951 251,-40.5 255.224,-36.6764 259.921,-33.4056 264.921,-30.6106"/>
<polygon fill="midnightblue" stroke="midnightblue" points="105.649,-431.109 108.761,-441.237 112.644,-431.379 105.649,-431.109"/>
</g>
</g>
</svg>
