<?xml version="1.0" encoding="UTF-8" standalone="no"?>
<!DOCTYPE svg PUBLIC "-//W3C//DTD SVG 1.1//EN"
 "http://www.w3.org/Graphics/SVG/1.1/DTD/svg11.dtd">
<!-- Generated by graphviz version 2.38.0 (20140413.2041)
 -->
<!-- Title: Graphical Class Hierarchy Pages: 1 -->
<svg width="474pt" height="823pt"
 viewBox="0.00 0.00 474.00 823.00" xmlns="http://www.w3.org/2000/svg" xmlns:xlink="http://www.w3.org/1999/xlink">
<g id="graph0" class="graph" transform="scale(1 1) rotate(0) translate(4 819)">
<title>Graphical Class Hierarchy</title>
<polygon fill="white" stroke="none" points="-4,4 -4,-819 470,-819 470,4 -4,4"/>
<!-- Node6 -->
<g id="node1" class="node"><title>Node6</title>
<polygon fill="white" stroke="#bfbfbf" points="0,-392.5 0,-422.5 215,-422.5 215,-392.5 0,-392.5"/>
<text text-anchor="start" x="8" y="-410.5" font-family="Helvetica,sans-Serif" font-size="10.00">pymoduleconnector.moduleconnectorwrapper.</text>
<text text-anchor="middle" x="107.5" y="-399.5" font-family="Helvetica,sans-Serif" font-size="10.00">_object</text>
</g>
<!-- Node0 -->
<g id="node2" class="node"><title>Node0</title>
<g id="a_node2"><a xlink:href="classpymoduleconnector_1_1moduleconnectorwrapper_1_1_baseband_ap_data.xhtml" target="_top" xlink:title="Represents amplitude phase baseband data coming from the module. ">
<polygon fill="white" stroke="black" points="251,-784.5 251,-814.5 466,-814.5 466,-784.5 251,-784.5"/>
<text text-anchor="start" x="259" y="-802.5" font-family="Helvetica,sans-Serif" font-size="10.00">pymoduleconnector.moduleconnectorwrapper.</text>
<text text-anchor="middle" x="358.5" y="-791.5" font-family="Helvetica,sans-Serif" font-size="10.00">BasebandApData</text>
</a>
</g>
</g>
<!-- Node6&#45;&gt;Node0 -->
<g id="edge1" class="edge"><title>Node6&#45;&gt;Node0</title>
<path fill="none" stroke="midnightblue" d="M110.36,-432.629C116.718,-499.483 143.6,-682.907 251,-775.5 254.876,-778.841 259.119,-781.745 263.608,-784.266"/>
<polygon fill="midnightblue" stroke="midnightblue" points="113.839,-432.239 109.479,-422.584 106.866,-432.851 113.839,-432.239"/>
</g>
<!-- Node8 -->
<g id="node3" class="node"><title>Node8</title>
<g id="a_node3"><a xlink:href="classpymoduleconnector_1_1moduleconnectorwrapper_1_1_baseband_iq_data.xhtml" target="_top" xlink:title="Represents I/Q baseband data coming from the module. ">
<polygon fill="white" stroke="black" points="251,-735.5 251,-765.5 466,-765.5 466,-735.5 251,-735.5"/>
<text text-anchor="start" x="259" y="-753.5" font-family="Helvetica,sans-Serif" font-size="10.00">pymoduleconnector.moduleconnectorwrapper.</text>
<text text-anchor="middle" x="358.5" y="-742.5" font-family="Helvetica,sans-Serif" font-size="10.00">BasebandIqData</text>
</a>
</g>
</g>
<!-- Node6&#45;&gt;Node8 -->
<g id="edge2" class="edge"><title>Node6&#45;&gt;Node8</title>
<path fill="none" stroke="midnightblue" d="M112.063,-432.94C121.993,-493.804 155.794,-648.535 251,-726.5 255.179,-729.922 259.748,-732.88 264.567,-735.434"/>
<polygon fill="midnightblue" stroke="midnightblue" points="115.468,-432.054 110.478,-422.707 108.55,-433.126 115.468,-432.054"/>
</g>
<!-- Node9 -->
<g id="node4" class="node"><title>Node9</title>
<g id="a_node4"><a xlink:href="classpymoduleconnector_1_1moduleconnectorwrapper_1_1_data_record.xhtml" target="_top" xlink:title="Encapsulates data and information about one data record on disk. ">
<polygon fill="white" stroke="black" points="251,-686.5 251,-716.5 466,-716.5 466,-686.5 251,-686.5"/>
<text text-anchor="start" x="259" y="-704.5" font-family="Helvetica,sans-Serif" font-size="10.00">pymoduleconnector.moduleconnectorwrapper.</text>
<text text-anchor="middle" x="358.5" y="-693.5" font-family="Helvetica,sans-Serif" font-size="10.00">DataRecord</text>
</a>
</g>
</g>
<!-- Node6&#45;&gt;Node9 -->
<g id="edge3" class="edge"><title>Node6&#45;&gt;Node9</title>
<path fill="none" stroke="midnightblue" d="M114.143,-432.362C127.698,-486.117 167.356,-613.462 251,-677.5 255.515,-680.956 260.434,-683.932 265.601,-686.493"/>
<polygon fill="midnightblue" stroke="midnightblue" points="117.541,-431.521 111.775,-422.633 110.739,-433.177 117.541,-431.521"/>
</g>
<!-- Node10 -->
<g id="node5" class="node"><title>Node10</title>
<g id="a_node5"><a xlink:href="classpymoduleconnector_1_1moduleconnectorwrapper_1_1_data_type.xhtml" target="_top" xlink:title="Proxy of C++ XeThru::DataType class. ">
<polygon fill="white" stroke="black" points="251,-637.5 251,-667.5 466,-667.5 466,-637.5 251,-637.5"/>
<text text-anchor="start" x="259" y="-655.5" font-family="Helvetica,sans-Serif" font-size="10.00">pymoduleconnector.moduleconnectorwrapper.</text>
<text text-anchor="middle" x="358.5" y="-644.5" font-family="Helvetica,sans-Serif" font-size="10.00">DataType</text>
</a>
</g>
</g>
<!-- Node6&#45;&gt;Node10 -->
<g id="edge4" class="edge"><title>Node6&#45;&gt;Node10</title>
<path fill="none" stroke="midnightblue" d="M117.171,-432.296C134.713,-478.625 178.982,-578.18 251,-628.5 255.894,-631.92 261.196,-634.861 266.732,-637.39"/>
<polygon fill="midnightblue" stroke="midnightblue" points="120.392,-430.914 113.649,-422.741 113.824,-433.335 120.392,-430.914"/>
</g>
<!-- Node11 -->
<g id="node6" class="node"><title>Node11</title>
<g id="a_node6"><a xlink:href="classpymoduleconnector_1_1moduleconnectorwrapper_1_1_detection_zone.xhtml" target="_top" xlink:title="Representation of the detection zone. ">
<polygon fill="white" stroke="black" points="251,-588.5 251,-618.5 466,-618.5 466,-588.5 251,-588.5"/>
<text text-anchor="start" x="259" y="-606.5" font-family="Helvetica,sans-Serif" font-size="10.00">pymoduleconnector.moduleconnectorwrapper.</text>
<text text-anchor="middle" x="358.5" y="-595.5" font-family="Helvetica,sans-Serif" font-size="10.00">DetectionZone</text>
</a>
</g>
</g>
<!-- Node6&#45;&gt;Node11 -->
<g id="edge5" class="edge"><title>Node6&#45;&gt;Node11</title>
<path fill="none" stroke="midnightblue" d="M121.411,-431.578C142.982,-469.361 190.058,-542.112 251,-579.5 256.654,-582.969 262.753,-585.938 269.07,-588.479"/>
<polygon fill="midnightblue" stroke="midnightblue" points="124.42,-429.787 116.483,-422.769 118.311,-433.205 124.42,-429.787"/>
</g>
<!-- Node12 -->
<g id="node7" class="node"><title>Node12</title>
<g id="a_node7"><a xlink:href="classpymoduleconnector_1_1moduleconnectorwrapper_1_1_detection_zone_limits.xhtml" target="_top" xlink:title="Is an aggrgation of parameters used to represent the detection zone limits. ">
<polygon fill="white" stroke="black" points="251,-539.5 251,-569.5 466,-569.5 466,-539.5 251,-539.5"/>
<text text-anchor="start" x="259" y="-557.5" font-family="Helvetica,sans-Serif" font-size="10.00">pymoduleconnector.moduleconnectorwrapper.</text>
<text text-anchor="middle" x="358.5" y="-546.5" font-family="Helvetica,sans-Serif" font-size="10.00">DetectionZoneLimits</text>
</a>
</g>
</g>
<!-- Node6&#45;&gt;Node12 -->
<g id="edge6" class="edge"><title>Node6&#45;&gt;Node12</title>
<path fill="none" stroke="midnightblue" d="M128.237,-430.357C153.722,-458.362 200.799,-505.197 251,-530.5 257.855,-533.955 265.206,-536.917 272.725,-539.457"/>
<polygon fill="midnightblue" stroke="midnightblue" points="130.617,-427.768 121.339,-422.652 125.402,-432.437 130.617,-427.768"/>
</g>
<!-- Node13 -->
<g id="node8" class="node"><title>Node13</title>
<g id="a_node8"><a xlink:href="classpymoduleconnector_1_1moduleconnectorwrapper_1_1_frame_area.xhtml" target="_top" xlink:title="FrameArea. ">
<polygon fill="white" stroke="black" points="251,-490.5 251,-520.5 466,-520.5 466,-490.5 251,-490.5"/>
<text text-anchor="start" x="259" y="-508.5" font-family="Helvetica,sans-Serif" font-size="10.00">pymoduleconnector.moduleconnectorwrapper.</text>
<text text-anchor="middle" x="358.5" y="-497.5" font-family="Helvetica,sans-Serif" font-size="10.00">FrameArea</text>
</a>
</g>
</g>
<!-- Node6&#45;&gt;Node13 -->
<g id="edge7" class="edge"><title>Node6&#45;&gt;Node13</title>
<path fill="none" stroke="midnightblue" d="M141.48,-427.744C169.67,-444.275 211.78,-467.17 251,-481.5 260.168,-484.85 269.958,-487.823 279.747,-490.436"/>
<polygon fill="midnightblue" stroke="midnightblue" points="143.224,-424.709 132.837,-422.619 139.654,-430.73 143.224,-424.709"/>
</g>
<!-- Node14 -->
<g id="node9" class="node"><title>Node14</title>
<g id="a_node9"><a xlink:href="classpymoduleconnector_1_1moduleconnectorwrapper_1_1_preferred_split_size.xhtml" target="_top" xlink:title="The PreferredSplitSize class allows specifying a split size. ">
<polygon fill="white" stroke="black" points="251,-441.5 251,-471.5 466,-471.5 466,-441.5 251,-441.5"/>
<text text-anchor="start" x="259" y="-459.5" font-family="Helvetica,sans-Serif" font-size="10.00">pymoduleconnector.moduleconnectorwrapper.</text>
<text text-anchor="middle" x="358.5" y="-448.5" font-family="Helvetica,sans-Serif" font-size="10.00">PreferredSplitSize</text>
</a>
</g>
</g>
<!-- Node6&#45;&gt;Node14 -->
<g id="edge8" class="edge"><title>Node6&#45;&gt;Node14</title>
<path fill="none" stroke="midnightblue" d="M194.722,-424.467C222.861,-430.005 253.891,-436.111 281.244,-441.494"/>
<polygon fill="midnightblue" stroke="midnightblue" points="195.388,-421.031 184.9,-422.535 194.036,-427.9 195.388,-421.031"/>
</g>
<!-- Node15 -->
<g id="node10" class="node"><title>Node15</title>
<g id="a_node10"><a xlink:href="classpymoduleconnector_1_1moduleconnectorwrapper_1_1_py_data_reader.xhtml" target="_top" xlink:title="The PyDataReader class allows reading of xethru data records from a recording. ">
<polygon fill="white" stroke="black" points="251,-392.5 251,-422.5 466,-422.5 466,-392.5 251,-392.5"/>
<text text-anchor="start" x="259" y="-410.5" font-family="Helvetica,sans-Serif" font-size="10.00">pymoduleconnector.moduleconnectorwrapper.</text>
<text text-anchor="middle" x="358.5" y="-399.5" font-family="Helvetica,sans-Serif" font-size="10.00">PyDataReader</text>
</a>
</g>
</g>
<!-- Node6&#45;&gt;Node15 -->
<g id="edge9" class="edge"><title>Node6&#45;&gt;Node15</title>
<path fill="none" stroke="midnightblue" d="M225.413,-407.5C233.829,-407.5 242.29,-407.5 250.644,-407.5"/>
<polygon fill="midnightblue" stroke="midnightblue" points="225.182,-404 215.182,-407.5 225.182,-411 225.182,-404"/>
</g>
<!-- Node16 -->
<g id="node11" class="node"><title>Node16</title>
<g id="a_node11"><a xlink:href="classpymoduleconnector_1_1moduleconnectorwrapper_1_1_py_data_recorder.xhtml" target="_top" xlink:title="The DataRecorder class allows recording of xethru data types. ">
<polygon fill="white" stroke="black" points="251,-343.5 251,-373.5 466,-373.5 466,-343.5 251,-343.5"/>
<text text-anchor="start" x="259" y="-361.5" font-family="Helvetica,sans-Serif" font-size="10.00">pymoduleconnector.moduleconnectorwrapper.</text>
<text text-anchor="middle" x="358.5" y="-350.5" font-family="Helvetica,sans-Serif" font-size="10.00">PyDataRecorder</text>
</a>
</g>
</g>
<!-- Node6&#45;&gt;Node16 -->
<g id="edge10" class="edge"><title>Node6&#45;&gt;Node16</title>
<path fill="none" stroke="midnightblue" d="M194.722,-390.533C222.861,-384.995 253.891,-378.889 281.244,-373.506"/>
<polygon fill="midnightblue" stroke="midnightblue" points="194.036,-387.1 184.9,-392.465 195.388,-393.969 194.036,-387.1"/>
</g>
<!-- Node17 -->
<g id="node12" class="node"><title>Node17</title>
<g id="a_node12"><a xlink:href="classpymoduleconnector_1_1moduleconnectorwrapper_1_1_python_module_connector.xhtml" target="_top" xlink:title="C++ includes: PythonModuleConnector.hpp. ">
<polygon fill="white" stroke="black" points="251,-294.5 251,-324.5 466,-324.5 466,-294.5 251,-294.5"/>
<text text-anchor="start" x="259" y="-312.5" font-family="Helvetica,sans-Serif" font-size="10.00">pymoduleconnector.moduleconnectorwrapper.</text>
<text text-anchor="middle" x="358.5" y="-301.5" font-family="Helvetica,sans-Serif" font-size="10.00">PythonModuleConnector</text>
</a>
</g>
</g>
<!-- Node6&#45;&gt;Node17 -->
<g id="edge11" class="edge"><title>Node6&#45;&gt;Node17</title>
<path fill="none" stroke="midnightblue" d="M142.062,-387.349C170.291,-371.132 212.152,-348.769 251,-334.5 261.162,-330.768 272.078,-327.458 282.909,-324.568"/>
<polygon fill="midnightblue" stroke="midnightblue" points="140.287,-384.332 133.397,-392.38 143.802,-390.385 140.287,-384.332"/>
</g>
<!-- Node18 -->
<g id="node13" class="node"><title>Node18</title>
<g id="a_node13"><a xlink:href="classpymoduleconnector_1_1moduleconnectorwrapper_1_1_py_x2_m200.xhtml" target="_top" xlink:title="Interface to the Xethru X2M200 Application module. ">
<polygon fill="white" stroke="black" points="251,-245.5 251,-275.5 466,-275.5 466,-245.5 251,-245.5"/>
<text text-anchor="start" x="259" y="-263.5" font-family="Helvetica,sans-Serif" font-size="10.00">pymoduleconnector.moduleconnectorwrapper.</text>
<text text-anchor="middle" x="358.5" y="-252.5" font-family="Helvetica,sans-Serif" font-size="10.00">PyX2M200</text>
</a>
</g>
</g>
<!-- Node6&#45;&gt;Node18 -->
<g id="edge12" class="edge"><title>Node6&#45;&gt;Node18</title>
<path fill="none" stroke="midnightblue" d="M128.721,-384.465C154.375,-356.719 201.298,-310.703 251,-285.5 258.622,-281.635 266.856,-278.356 275.25,-275.577"/>
<polygon fill="midnightblue" stroke="midnightblue" points="125.905,-382.359 121.763,-392.111 131.082,-387.071 125.905,-382.359"/>
</g>
<!-- Node19 -->
<g id="node14" class="node"><title>Node19</title>
<g id="a_node14"><a xlink:href="classpymoduleconnector_1_1moduleconnectorwrapper_1_1_py_x4_m300.xhtml" target="_top" xlink:title="C++ includes: PyX4M300.hpp. ">
<polygon fill="white" stroke="black" points="251,-196.5 251,-226.5 466,-226.5 466,-196.5 251,-196.5"/>
<text text-anchor="start" x="259" y="-214.5" font-family="Helvetica,sans-Serif" font-size="10.00">pymoduleconnector.moduleconnectorwrapper.</text>
<text text-anchor="middle" x="358.5" y="-203.5" font-family="Helvetica,sans-Serif" font-size="10.00">PyX4M300</text>
</a>
</g>
</g>
<!-- Node6&#45;&gt;Node19 -->
<g id="edge13" class="edge"><title>Node6&#45;&gt;Node19</title>
<path fill="none" stroke="midnightblue" d="M121.487,-383.626C143.163,-346.151 190.381,-273.943 251,-236.5 257.302,-232.608 264.155,-229.321 271.246,-226.546"/>
<polygon fill="midnightblue" stroke="midnightblue" points="118.421,-381.937 116.534,-392.363 124.51,-385.39 118.421,-381.937"/>
</g>
<!-- Node20 -->
<g id="node15" class="node"><title>Node20</title>
<g id="a_node15"><a xlink:href="classpymoduleconnector_1_1moduleconnectorwrapper_1_1_py_x_e_p.xhtml" target="_top" xlink:title="C++ includes: PyXEP.hpp. ">
<polygon fill="white" stroke="black" points="251,-147.5 251,-177.5 466,-177.5 466,-147.5 251,-147.5"/>
<text text-anchor="start" x="259" y="-165.5" font-family="Helvetica,sans-Serif" font-size="10.00">pymoduleconnector.moduleconnectorwrapper.</text>
<text text-anchor="middle" x="358.5" y="-154.5" font-family="Helvetica,sans-Serif" font-size="10.00">PyXEP</text>
</a>
</g>
</g>
<!-- Node6&#45;&gt;Node20 -->
<g id="edge14" class="edge"><title>Node6&#45;&gt;Node20</title>
<path fill="none" stroke="midnightblue" d="M117.246,-382.874C134.913,-336.852 179.384,-237.905 251,-187.5 256.513,-183.619 262.546,-180.334 268.847,-177.554"/>
<polygon fill="midnightblue" stroke="midnightblue" points="113.921,-381.772 113.697,-392.364 120.478,-384.224 113.921,-381.772"/>
</g>
<!-- Node21 -->
<g id="node16" class="node"><title>Node21</title>
<g id="a_node16"><a xlink:href="classpymoduleconnector_1_1moduleconnectorwrapper_1_1_recording_options.xhtml" target="_top" xlink:title="The RecordingOptions class allows specifying options for recording. ">
<polygon fill="white" stroke="black" points="251,-98.5 251,-128.5 466,-128.5 466,-98.5 251,-98.5"/>
<text text-anchor="start" x="259" y="-116.5" font-family="Helvetica,sans-Serif" font-size="10.00">pymoduleconnector.moduleconnectorwrapper.</text>
<text text-anchor="middle" x="358.5" y="-105.5" font-family="Helvetica,sans-Serif" font-size="10.00">RecordingOptions</text>
</a>
</g>
</g>
<!-- Node6&#45;&gt;Node21 -->
<g id="edge15" class="edge"><title>Node6&#45;&gt;Node21</title>
<path fill="none" stroke="midnightblue" d="M114.301,-382.449C128.078,-328.808 168.008,-202.527 251,-138.5 256.038,-134.614 261.58,-131.316 267.41,-128.521"/>
<polygon fill="midnightblue" stroke="midnightblue" points="110.829,-381.909 111.82,-392.457 117.623,-383.593 110.829,-381.909"/>
</g>
<!-- Node22 -->
<g id="node17" class="node"><title>Node22</title>
<g id="a_node17"><a xlink:href="classpymoduleconnector_1_1moduleconnectorwrapper_1_1_respiration_data.xhtml" target="_top" xlink:title="Represents the respiration status data coming from the module. ">
<polygon fill="white" stroke="black" points="251,-49.5 251,-79.5 466,-79.5 466,-49.5 251,-49.5"/>
<text text-anchor="start" x="259" y="-67.5" font-family="Helvetica,sans-Serif" font-size="10.00">pymoduleconnector.moduleconnectorwrapper.</text>
<text text-anchor="middle" x="358.5" y="-56.5" font-family="Helvetica,sans-Serif" font-size="10.00">RespirationData</text>
</a>
</g>
</g>
<!-- Node6&#45;&gt;Node22 -->
<g id="edge16" class="edge"><title>Node6&#45;&gt;Node22</title>
<path fill="none" stroke="midnightblue" d="M112.134,-382.192C122.221,-321.636 156.345,-167.629 251,-89.5 255.687,-85.6313 260.866,-82.3391 266.342,-79.5398"/>
<polygon fill="midnightblue" stroke="midnightblue" points="108.63,-381.948 110.522,-392.373 115.543,-383.044 108.63,-381.948"/>
</g>
<!-- Node23 -->
<g id="node18" class="node"><title>Node23</title>
<g id="a_node18"><a xlink:href="classpymoduleconnector_1_1moduleconnectorwrapper_1_1_sleep_data.xhtml" target="_top" xlink:title="Represents the sleep status data coming from the module. ">
<polygon fill="white" stroke="black" points="251,-0.5 251,-30.5 466,-30.5 466,-0.5 251,-0.5"/>
<text text-anchor="start" x="259" y="-18.5" font-family="Helvetica,sans-Serif" font-size="10.00">pymoduleconnector.moduleconnectorwrapper.</text>
<text text-anchor="middle" x="358.5" y="-7.5" font-family="Helvetica,sans-Serif" font-size="10.00">SleepData</text>
</a>
</g>
</g>
<!-- Node6&#45;&gt;Node23 -->
<g id="edge17" class="edge"><title>Node6&#45;&gt;Node23</title>
<path fill="none" stroke="midnightblue" d="M110.429,-382.49C116.957,-315.944 144.224,-133.303 251,-40.5 255.444,-36.6378 260.373,-33.3444 265.605,-30.5386"/>
<polygon fill="midnightblue" stroke="midnightblue" points="106.94,-382.213 109.521,-392.489 113.911,-382.846 106.94,-382.213"/>
</g>
</g>
</svg>
