<?xml version="1.0" encoding="UTF-8" standalone="no"?>
<!DOCTYPE svg PUBLIC "-//W3C//DTD SVG 1.1//EN"
 "http://www.w3.org/Graphics/SVG/1.1/DTD/svg11.dtd">
<!-- Generated by graphviz version 2.38.0 (20140413.2041)
 -->
<!-- Title: Graphical Class Hierarchy Pages: 1 -->
<svg width="522pt" height="823pt"
 viewBox="0.00 0.00 522.00 823.00" xmlns="http://www.w3.org/2000/svg" xmlns:xlink="http://www.w3.org/1999/xlink">
<g id="graph0" class="graph" transform="scale(1 1) rotate(0) translate(4 819)">
<title>Graphical Class Hierarchy</title>
<polygon fill="white" stroke="none" points="-4,4 -4,-819 518,-819 518,4 -4,4"/>
<!-- Node6 -->
<g id="node1" class="node"><title>Node6</title>
<polygon fill="white" stroke="#bfbfbf" points="0,-392.5 0,-422.5 239,-422.5 239,-392.5 0,-392.5"/>
<text text-anchor="start" x="8" y="-410.5" font-family="Helvetica,sans-Serif" font-size="10.00">pymoduleconnector.moduleconnectorwrapper.</text>
<text text-anchor="middle" x="119.5" y="-399.5" font-family="Helvetica,sans-Serif" font-size="10.00">_object</text>
</g>
<!-- Node0 -->
<g id="node2" class="node"><title>Node0</title>
<g id="a_node2"><a xlink:href="classpymoduleconnector_1_1moduleconnectorwrapper_1_1_baseband_ap_data.xhtml" target="_top" xlink:title="Represents amplitude phase baseband data coming from the module. ">
<polygon fill="white" stroke="black" points="275,-784.5 275,-814.5 514,-814.5 514,-784.5 275,-784.5"/>
<text text-anchor="start" x="283" y="-802.5" font-family="Helvetica,sans-Serif" font-size="10.00">pymoduleconnector.moduleconnectorwrapper.</text>
<text text-anchor="middle" x="394.5" y="-791.5" font-family="Helvetica,sans-Serif" font-size="10.00">BasebandApData</text>
</a>
</g>
</g>
<!-- Node6&#45;&gt;Node0 -->
<g id="edge1" class="edge"><title>Node6&#45;&gt;Node0</title>
<path fill="none" stroke="midnightblue" d="M123.124,-432.814C131.524,-500.128 164.077,-684.59 275,-775.5 279.14,-778.893 283.631,-781.848 288.362,-784.419"/>
<polygon fill="midnightblue" stroke="midnightblue" points="126.579,-432.222 121.936,-422.698 119.626,-433.038 126.579,-432.222"/>
</g>
<!-- Node8 -->
<g id="node3" class="node"><title>Node8</title>
<g id="a_node3"><a xlink:href="classpymoduleconnector_1_1moduleconnectorwrapper_1_1_baseband_iq_data.xhtml" target="_top" xlink:title="Represents I/Q baseband data coming from the module. ">
<polygon fill="white" stroke="black" points="275,-735.5 275,-765.5 514,-765.5 514,-735.5 275,-735.5"/>
<text text-anchor="start" x="283" y="-753.5" font-family="Helvetica,sans-Serif" font-size="10.00">pymoduleconnector.moduleconnectorwrapper.</text>
<text text-anchor="middle" x="394.5" y="-742.5" font-family="Helvetica,sans-Serif" font-size="10.00">BasebandIqData</text>
</a>
</g>
</g>
<!-- Node6&#45;&gt;Node8 -->
<g id="edge2" class="edge"><title>Node6&#45;&gt;Node8</title>
<path fill="none" stroke="midnightblue" d="M124.881,-432.746C136.869,-493.758 176.158,-649.82 275,-726.5 279.395,-729.91 284.15,-732.87 289.143,-735.439"/>
<polygon fill="midnightblue" stroke="midnightblue" points="128.302,-432.001 123.01,-422.823 121.423,-433.298 128.302,-432.001"/>
</g>
<!-- Node9 -->
<g id="node4" class="node"><title>Node9</title>
<g id="a_node4"><a xlink:href="classpymoduleconnector_1_1moduleconnectorwrapper_1_1_data_record.xhtml" target="_top" xlink:title="Encapsulates data and information about one data record on disk. ">
<polygon fill="white" stroke="black" points="275,-686.5 275,-716.5 514,-716.5 514,-686.5 275,-686.5"/>
<text text-anchor="start" x="283" y="-704.5" font-family="Helvetica,sans-Serif" font-size="10.00">pymoduleconnector.moduleconnectorwrapper.</text>
<text text-anchor="middle" x="394.5" y="-693.5" font-family="Helvetica,sans-Serif" font-size="10.00">DataRecord</text>
</a>
</g>
</g>
<!-- Node6&#45;&gt;Node9 -->
<g id="edge3" class="edge"><title>Node6&#45;&gt;Node9</title>
<path fill="none" stroke="midnightblue" d="M127.168,-432.541C142.955,-486.652 187.98,-614.658 275,-677.5 279.765,-680.941 284.905,-683.916 290.281,-686.487"/>
<polygon fill="midnightblue" stroke="midnightblue" points="130.487,-431.415 124.397,-422.746 123.752,-433.321 130.487,-431.415"/>
</g>
<!-- Node10 -->
<g id="node5" class="node"><title>Node10</title>
<g id="a_node5"><a xlink:href="classpymoduleconnector_1_1moduleconnectorwrapper_1_1_data_type.xhtml" target="_top" xlink:title="Proxy of C++ XeThru::DataType class. ">
<polygon fill="white" stroke="black" points="275,-637.5 275,-667.5 514,-667.5 514,-637.5 275,-637.5"/>
<text text-anchor="start" x="283" y="-655.5" font-family="Helvetica,sans-Serif" font-size="10.00">pymoduleconnector.moduleconnectorwrapper.</text>
<text text-anchor="middle" x="394.5" y="-644.5" font-family="Helvetica,sans-Serif" font-size="10.00">DataType</text>
</a>
</g>
</g>
<!-- Node6&#45;&gt;Node10 -->
<g id="edge4" class="edge"><title>Node6&#45;&gt;Node10</title>
<path fill="none" stroke="midnightblue" d="M130.14,-431.838C149.833,-478.181 199.313,-578.885 275,-628.5 280.266,-631.952 285.926,-634.925 291.814,-637.483"/>
<polygon fill="midnightblue" stroke="midnightblue" points="133.354,-430.451 126.287,-422.557 126.888,-433.135 133.354,-430.451"/>
</g>
<!-- Node11 -->
<g id="node6" class="node"><title>Node11</title>
<g id="a_node6"><a xlink:href="classpymoduleconnector_1_1moduleconnectorwrapper_1_1_detection_zone.xhtml" target="_top" xlink:title="Representation of the detection zone. ">
<polygon fill="white" stroke="black" points="275,-588.5 275,-618.5 514,-618.5 514,-588.5 275,-588.5"/>
<text text-anchor="start" x="283" y="-606.5" font-family="Helvetica,sans-Serif" font-size="10.00">pymoduleconnector.moduleconnectorwrapper.</text>
<text text-anchor="middle" x="394.5" y="-595.5" font-family="Helvetica,sans-Serif" font-size="10.00">DetectionZone</text>
</a>
</g>
</g>
<!-- Node6&#45;&gt;Node11 -->
<g id="edge5" class="edge"><title>Node6&#45;&gt;Node11</title>
<path fill="none" stroke="midnightblue" d="M134.748,-431.448C158.65,-469.362 210.592,-542.675 275,-579.5 281.013,-582.938 287.446,-585.889 294.089,-588.42"/>
<polygon fill="midnightblue" stroke="midnightblue" points="137.522,-429.278 129.285,-422.615 131.569,-432.961 137.522,-429.278"/>
</g>
<!-- Node12 -->
<g id="node7" class="node"><title>Node12</title>
<g id="a_node7"><a xlink:href="classpymoduleconnector_1_1moduleconnectorwrapper_1_1_detection_zone_limits.xhtml" target="_top" xlink:title="Is an aggrgation of parameters used to represent the detection zone limits. ">
<polygon fill="white" stroke="black" points="275,-539.5 275,-569.5 514,-569.5 514,-539.5 275,-539.5"/>
<text text-anchor="start" x="283" y="-557.5" font-family="Helvetica,sans-Serif" font-size="10.00">pymoduleconnector.moduleconnectorwrapper.</text>
<text text-anchor="middle" x="394.5" y="-546.5" font-family="Helvetica,sans-Serif" font-size="10.00">DetectionZoneLimits</text>
</a>
</g>
</g>
<!-- Node6&#45;&gt;Node12 -->
<g id="edge6" class="edge"><title>Node6&#45;&gt;Node12</title>
<path fill="none" stroke="midnightblue" d="M141.854,-430.122C169.726,-458.215 221.313,-505.481 275,-530.5 282.42,-533.958 290.33,-536.919 298.407,-539.455"/>
<polygon fill="midnightblue" stroke="midnightblue" points="144.133,-427.445 134.64,-422.741 139.127,-432.338 144.133,-427.445"/>
</g>
<!-- Node13 -->
<g id="node8" class="node"><title>Node13</title>
<g id="a_node8"><a xlink:href="classpymoduleconnector_1_1moduleconnectorwrapper_1_1_frame_area.xhtml" target="_top" xlink:title="FrameArea. ">
<polygon fill="white" stroke="black" points="275,-490.5 275,-520.5 514,-520.5 514,-490.5 275,-490.5"/>
<text text-anchor="start" x="283" y="-508.5" font-family="Helvetica,sans-Serif" font-size="10.00">pymoduleconnector.moduleconnectorwrapper.</text>
<text text-anchor="middle" x="394.5" y="-497.5" font-family="Helvetica,sans-Serif" font-size="10.00">FrameArea</text>
</a>
</g>
</g>
<!-- Node6&#45;&gt;Node13 -->
<g id="edge7" class="edge"><title>Node6&#45;&gt;Node13</title>
<path fill="none" stroke="midnightblue" d="M155.729,-427.471C186.383,-444.086 232.448,-467.245 275,-481.5 285.051,-484.867 295.748,-487.84 306.445,-490.443"/>
<polygon fill="midnightblue" stroke="midnightblue" points="157.183,-424.277 146.731,-422.542 153.82,-430.416 157.183,-424.277"/>
</g>
<!-- Node14 -->
<g id="node9" class="node"><title>Node14</title>
<g id="a_node9"><a xlink:href="classpymoduleconnector_1_1moduleconnectorwrapper_1_1_preferred_split_size.xhtml" target="_top" xlink:title="The PreferredSplitSize class allows specifying a split size. ">
<polygon fill="white" stroke="black" points="275,-441.5 275,-471.5 514,-471.5 514,-441.5 275,-441.5"/>
<text text-anchor="start" x="283" y="-459.5" font-family="Helvetica,sans-Serif" font-size="10.00">pymoduleconnector.moduleconnectorwrapper.</text>
<text text-anchor="middle" x="394.5" y="-448.5" font-family="Helvetica,sans-Serif" font-size="10.00">PreferredSplitSize</text>
</a>
</g>
</g>
<!-- Node6&#45;&gt;Node14 -->
<g id="edge8" class="edge"><title>Node6&#45;&gt;Node14</title>
<path fill="none" stroke="midnightblue" d="M214.225,-424.322C245.29,-429.898 279.642,-436.064 309.894,-441.494"/>
<polygon fill="midnightblue" stroke="midnightblue" points="214.725,-420.856 204.264,-422.535 213.489,-427.746 214.725,-420.856"/>
</g>
<!-- Node15 -->
<g id="node10" class="node"><title>Node15</title>
<g id="a_node10"><a xlink:href="classpymoduleconnector_1_1moduleconnectorwrapper_1_1_py_data_reader.xhtml" target="_top" xlink:title="The PyDataReader class allows reading of xethru data records from a recording. ">
<polygon fill="white" stroke="black" points="275,-392.5 275,-422.5 514,-422.5 514,-392.5 275,-392.5"/>
<text text-anchor="start" x="283" y="-410.5" font-family="Helvetica,sans-Serif" font-size="10.00">pymoduleconnector.moduleconnectorwrapper.</text>
<text text-anchor="middle" x="394.5" y="-399.5" font-family="Helvetica,sans-Serif" font-size="10.00">PyDataReader</text>
</a>
</g>
</g>
<!-- Node6&#45;&gt;Node15 -->
<g id="edge9" class="edge"><title>Node6&#45;&gt;Node15</title>
<path fill="none" stroke="midnightblue" d="M249.32,-407.5C257.762,-407.5 266.244,-407.5 274.635,-407.5"/>
<polygon fill="midnightblue" stroke="midnightblue" points="249.051,-404 239.051,-407.5 249.051,-411 249.051,-404"/>
</g>
<!-- Node16 -->
<g id="node11" class="node"><title>Node16</title>
<g id="a_node11"><a xlink:href="classpymoduleconnector_1_1moduleconnectorwrapper_1_1_py_data_recorder.xhtml" target="_top" xlink:title="The DataRecorder class allows recording of xethru data types. ">
<polygon fill="white" stroke="black" points="275,-343.5 275,-373.5 514,-373.5 514,-343.5 275,-343.5"/>
<text text-anchor="start" x="283" y="-361.5" font-family="Helvetica,sans-Serif" font-size="10.00">pymoduleconnector.moduleconnectorwrapper.</text>
<text text-anchor="middle" x="394.5" y="-350.5" font-family="Helvetica,sans-Serif" font-size="10.00">PyDataRecorder</text>
</a>
</g>
</g>
<!-- Node6&#45;&gt;Node16 -->
<g id="edge10" class="edge"><title>Node6&#45;&gt;Node16</title>
<path fill="none" stroke="midnightblue" d="M214.225,-390.678C245.29,-385.102 279.642,-378.936 309.894,-373.506"/>
<polygon fill="midnightblue" stroke="midnightblue" points="213.489,-387.254 204.264,-392.465 214.725,-394.144 213.489,-387.254"/>
</g>
<!-- Node17 -->
<g id="node12" class="node"><title>Node17</title>
<g id="a_node12"><a xlink:href="classpymoduleconnector_1_1moduleconnectorwrapper_1_1_python_module_connector.xhtml" target="_top" xlink:title="C++ includes: PythonModuleConnector.hpp. ">
<polygon fill="white" stroke="black" points="275,-294.5 275,-324.5 514,-324.5 514,-294.5 275,-294.5"/>
<text text-anchor="start" x="283" y="-312.5" font-family="Helvetica,sans-Serif" font-size="10.00">pymoduleconnector.moduleconnectorwrapper.</text>
<text text-anchor="middle" x="394.5" y="-301.5" font-family="Helvetica,sans-Serif" font-size="10.00">PythonModuleConnector</text>
</a>
</g>
</g>
<!-- Node6&#45;&gt;Node17 -->
<g id="edge11" class="edge"><title>Node6&#45;&gt;Node17</title>
<path fill="none" stroke="midnightblue" d="M156.347,-387.613C187.04,-371.313 232.83,-348.693 275,-334.5 286.159,-330.744 298.107,-327.435 309.964,-324.557"/>
<polygon fill="midnightblue" stroke="midnightblue" points="154.484,-384.641 147.327,-392.453 157.794,-390.809 154.484,-384.641"/>
</g>
<!-- Node18 -->
<g id="node13" class="node"><title>Node18</title>
<g id="a_node13"><a xlink:href="classpymoduleconnector_1_1moduleconnectorwrapper_1_1_py_x2_m200.xhtml" target="_top" xlink:title="Interface to the Xethru X2M200 Application module. ">
<polygon fill="white" stroke="black" points="275,-245.5 275,-275.5 514,-275.5 514,-245.5 275,-245.5"/>
<text text-anchor="start" x="283" y="-263.5" font-family="Helvetica,sans-Serif" font-size="10.00">pymoduleconnector.moduleconnectorwrapper.</text>
<text text-anchor="middle" x="394.5" y="-252.5" font-family="Helvetica,sans-Serif" font-size="10.00">PyX2M200</text>
</a>
</g>
</g>
<!-- Node6&#45;&gt;Node18 -->
<g id="edge12" class="edge"><title>Node6&#45;&gt;Node18</title>
<path fill="none" stroke="midnightblue" d="M141.924,-385.137C169.87,-357.35 221.534,-310.551 275,-285.5 283.282,-281.62 292.171,-278.336 301.222,-275.559"/>
<polygon fill="midnightblue" stroke="midnightblue" points="139.243,-382.87 134.689,-392.436 144.215,-387.798 139.243,-382.87"/>
</g>
<!-- Node19 -->
<g id="node14" class="node"><title>Node19</title>
<g id="a_node14"><a xlink:href="classpymoduleconnector_1_1moduleconnectorwrapper_1_1_py_x4_m300.xhtml" target="_top" xlink:title="C++ includes: PyX4M300.hpp. ">
<polygon fill="white" stroke="black" points="275,-196.5 275,-226.5 514,-226.5 514,-196.5 275,-196.5"/>
<text text-anchor="start" x="283" y="-214.5" font-family="Helvetica,sans-Serif" font-size="10.00">pymoduleconnector.moduleconnectorwrapper.</text>
<text text-anchor="middle" x="394.5" y="-203.5" font-family="Helvetica,sans-Serif" font-size="10.00">PyX4M300</text>
</a>
</g>
</g>
<!-- Node6&#45;&gt;Node19 -->
<g id="edge13" class="edge"><title>Node6&#45;&gt;Node19</title>
<path fill="none" stroke="midnightblue" d="M134.998,-383.47C159.078,-345.781 211.055,-273.281 275,-236.5 281.744,-232.621 289.013,-229.341 296.516,-226.568"/>
<polygon fill="midnightblue" stroke="midnightblue" points="131.834,-381.928 129.487,-392.26 137.765,-385.647 131.834,-381.928"/>
</g>
<!-- Node20 -->
<g id="node15" class="node"><title>Node20</title>
<g id="a_node15"><a xlink:href="classpymoduleconnector_1_1moduleconnectorwrapper_1_1_py_x_e_p.xhtml" target="_top" xlink:title="C++ includes: PyXEP.hpp. ">
<polygon fill="white" stroke="black" points="275,-147.5 275,-177.5 514,-177.5 514,-147.5 275,-147.5"/>
<text text-anchor="start" x="283" y="-165.5" font-family="Helvetica,sans-Serif" font-size="10.00">pymoduleconnector.moduleconnectorwrapper.</text>
<text text-anchor="middle" x="394.5" y="-154.5" font-family="Helvetica,sans-Serif" font-size="10.00">PyXEP</text>
</a>
</g>
</g>
<!-- Node6&#45;&gt;Node20 -->
<g id="edge14" class="edge"><title>Node6&#45;&gt;Node20</title>
<path fill="none" stroke="midnightblue" d="M130.351,-382.992C150.258,-336.803 199.872,-237.069 275,-187.5 280.879,-183.621 287.249,-180.329 293.88,-177.537"/>
<polygon fill="midnightblue" stroke="midnightblue" points="127.107,-381.679 126.451,-392.253 133.558,-384.396 127.107,-381.679"/>
</g>
<!-- Node21 -->
<g id="node16" class="node"><title>Node21</title>
<g id="a_node16"><a xlink:href="classpymoduleconnector_1_1moduleconnectorwrapper_1_1_recording_options.xhtml" target="_top" xlink:title="The RecordingOptions class allows specifying options for recording. ">
<polygon fill="white" stroke="black" points="275,-98.5 275,-128.5 514,-128.5 514,-98.5 275,-98.5"/>
<text text-anchor="start" x="283" y="-116.5" font-family="Helvetica,sans-Serif" font-size="10.00">pymoduleconnector.moduleconnectorwrapper.</text>
<text text-anchor="middle" x="394.5" y="-105.5" font-family="Helvetica,sans-Serif" font-size="10.00">RecordingOptions</text>
</a>
</g>
</g>
<!-- Node6&#45;&gt;Node21 -->
<g id="edge15" class="edge"><title>Node6&#45;&gt;Node21</title>
<path fill="none" stroke="midnightblue" d="M127.235,-382.602C143.154,-328.793 188.427,-201.448 275,-138.5 280.272,-134.667 286.004,-131.396 292.009,-128.606"/>
<polygon fill="midnightblue" stroke="midnightblue" points="123.834,-381.765 124.439,-392.343 130.563,-383.696 123.834,-381.765"/>
</g>
<!-- Node22 -->
<g id="node17" class="node"><title>Node22</title>
<g id="a_node17"><a xlink:href="classpymoduleconnector_1_1moduleconnectorwrapper_1_1_respiration_data.xhtml" target="_top" xlink:title="Represents the respiration status data coming from the module. ">
<polygon fill="white" stroke="black" points="275,-49.5 275,-79.5 514,-79.5 514,-49.5 275,-49.5"/>
<text text-anchor="start" x="283" y="-67.5" font-family="Helvetica,sans-Serif" font-size="10.00">pymoduleconnector.moduleconnectorwrapper.</text>
<text text-anchor="middle" x="394.5" y="-56.5" font-family="Helvetica,sans-Serif" font-size="10.00">RespirationData</text>
</a>
</g>
</g>
<!-- Node6&#45;&gt;Node22 -->
<g id="edge16" class="edge"><title>Node6&#45;&gt;Node22</title>
<path fill="none" stroke="midnightblue" d="M124.946,-382.381C137.081,-321.671 176.672,-166.323 275,-89.5 279.888,-85.6813 285.223,-82.4107 290.836,-79.6126"/>
<polygon fill="midnightblue" stroke="midnightblue" points="121.499,-381.775 123.051,-392.256 128.373,-383.095 121.499,-381.775"/>
</g>
<!-- Node23 -->
<g id="node18" class="node"><title>Node23</title>
<g id="a_node18"><a xlink:href="classpymoduleconnector_1_1moduleconnectorwrapper_1_1_sleep_data.xhtml" target="_top" xlink:title="Represents the sleep status data coming from the module. ">
<polygon fill="white" stroke="black" points="275,-0.5 275,-30.5 514,-30.5 514,-0.5 275,-0.5"/>
<text text-anchor="start" x="283" y="-18.5" font-family="Helvetica,sans-Serif" font-size="10.00">pymoduleconnector.moduleconnectorwrapper.</text>
<text text-anchor="middle" x="394.5" y="-7.5" font-family="Helvetica,sans-Serif" font-size="10.00">SleepData</text>
</a>
</g>
</g>
<!-- Node6&#45;&gt;Node23 -->
<g id="edge17" class="edge"><title>Node6&#45;&gt;Node23</title>
<path fill="none" stroke="midnightblue" d="M123.188,-382.302C131.746,-315.289 164.657,-131.594 275,-40.5 279.621,-36.6851 284.682,-33.4097 290.027,-30.601"/>
<polygon fill="midnightblue" stroke="midnightblue" points="119.696,-382.026 121.976,-392.373 126.646,-382.863 119.696,-382.026"/>
</g>
</g>
</svg>
