<?xml version="1.0" encoding="UTF-8" standalone="no"?>
<!DOCTYPE svg PUBLIC "-//W3C//DTD SVG 1.1//EN"
 "http://www.w3.org/Graphics/SVG/1.1/DTD/svg11.dtd">
<!-- Generated by graphviz version 2.38.0 (20140413.2041)
 -->
<!-- Title: src/DataRecorder.hpp Pages: 1 -->
<svg width="588pt" height="207pt"
 viewBox="0.00 0.00 588.00 207.00" xmlns="http://www.w3.org/2000/svg" xmlns:xlink="http://www.w3.org/1999/xlink">
<g id="graph0" class="graph" transform="scale(1 1) rotate(0) translate(4 203)">
<title>src/DataRecorder.hpp</title>
<polygon fill="white" stroke="none" points="-4,4 -4,-203 584,-203 584,4 -4,4"/>
<!-- Node0 -->
<g id="node1" class="node"><title>Node0</title>
<polygon fill="#bfbfbf" stroke="black" points="242.5,-179.5 242.5,-198.5 361.5,-198.5 361.5,-179.5 242.5,-179.5"/>
<text text-anchor="middle" x="302" y="-186.5" font-family="Helvetica,sans-Serif" font-size="10.00">src/DataRecorder.hpp</text>
</g>
<!-- Node1 -->
<g id="node2" class="node"><title>Node1</title>
<polygon fill="white" stroke="#bfbfbf" points="0,-118 0,-137 128,-137 128,-118 0,-118"/>
<text text-anchor="middle" x="64" y="-125" font-family="Helvetica,sans-Serif" font-size="10.00">NotSupportedData.hpp</text>
</g>
<!-- Node0&#45;&gt;Node1 -->
<g id="edge1" class="edge"><title>Node0&#45;&gt;Node1</title>
<path fill="none" stroke="midnightblue" d="M267.9,-179.475C225.749,-168.937 153.945,-150.986 107.766,-139.441"/>
<polygon fill="midnightblue" stroke="midnightblue" points="108.587,-136.039 98.0363,-137.009 106.889,-142.83 108.587,-136.039"/>
</g>
<!-- Node2 -->
<g id="node3" class="node"><title>Node2</title>
<polygon fill="white" stroke="#bfbfbf" points="146,-112.5 146,-142.5 260,-142.5 260,-112.5 146,-112.5"/>
<text text-anchor="start" x="154" y="-130.5" font-family="Helvetica,sans-Serif" font-size="10.00">/build/radar_com/src</text>
<text text-anchor="middle" x="203" y="-119.5" font-family="Helvetica,sans-Serif" font-size="10.00">/datatypes.h</text>
</g>
<!-- Node0&#45;&gt;Node2 -->
<g id="edge2" class="edge"><title>Node0&#45;&gt;Node2</title>
<path fill="none" stroke="midnightblue" d="M287.816,-179.475C274.157,-171.266 253.013,-158.558 235.253,-147.885"/>
<polygon fill="midnightblue" stroke="midnightblue" points="236.706,-144.674 226.332,-142.523 233.1,-150.674 236.706,-144.674"/>
</g>
<!-- Node3 -->
<g id="node4" class="node"><title>Node3</title>
<polygon fill="white" stroke="#bfbfbf" points="278.5,-118 278.5,-137 325.5,-137 325.5,-118 278.5,-118"/>
<text text-anchor="middle" x="302" y="-125" font-family="Helvetica,sans-Serif" font-size="10.00">vector</text>
</g>
<!-- Node0&#45;&gt;Node3 -->
<g id="edge3" class="edge"><title>Node0&#45;&gt;Node3</title>
<path fill="none" stroke="midnightblue" d="M302,-179.475C302,-171.08 302,-157.981 302,-147.163"/>
<polygon fill="midnightblue" stroke="midnightblue" points="305.5,-147.009 302,-137.009 298.5,-147.009 305.5,-147.009"/>
</g>
<!-- Node4 -->
<g id="node5" class="node"><title>Node4</title>
<polygon fill="white" stroke="#bfbfbf" points="343.5,-118 343.5,-137 406.5,-137 406.5,-118 343.5,-118"/>
<text text-anchor="middle" x="375" y="-125" font-family="Helvetica,sans-Serif" font-size="10.00">functional</text>
</g>
<!-- Node0&#45;&gt;Node4 -->
<g id="edge4" class="edge"><title>Node0&#45;&gt;Node4</title>
<path fill="none" stroke="midnightblue" d="M312.459,-179.475C323.951,-170.108 342.63,-154.884 356.587,-143.508"/>
<polygon fill="midnightblue" stroke="midnightblue" points="359.02,-146.04 364.56,-137.009 354.598,-140.614 359.02,-146.04"/>
</g>
<!-- Node5 -->
<g id="node6" class="node"><title>Node5</title>
<g id="a_node6"><a xlink:href="_recording_options_8hpp.xhtml" target="_top" xlink:title="RecordingOptions.hpp">
<polygon fill="white" stroke="black" points="424.5,-118 424.5,-137 545.5,-137 545.5,-118 424.5,-118"/>
<text text-anchor="middle" x="485" y="-125" font-family="Helvetica,sans-Serif" font-size="10.00">RecordingOptions.hpp</text>
</a>
</g>
</g>
<!-- Node0&#45;&gt;Node5 -->
<g id="edge5" class="edge"><title>Node0&#45;&gt;Node5</title>
<path fill="none" stroke="midnightblue" d="M328.219,-179.475C360.018,-169.136 413.765,-151.661 449.317,-140.102"/>
<polygon fill="midnightblue" stroke="midnightblue" points="450.401,-143.43 458.829,-137.009 448.237,-136.773 450.401,-143.43"/>
</g>
<!-- Node6 -->
<g id="node7" class="node"><title>Node6</title>
<g id="a_node7"><a xlink:href="_preferred_split_size_8hpp.xhtml" target="_top" xlink:title="PreferredSplitSize.hpp">
<polygon fill="white" stroke="black" points="311.5,-56.5 311.5,-75.5 434.5,-75.5 434.5,-56.5 311.5,-56.5"/>
<text text-anchor="middle" x="373" y="-63.5" font-family="Helvetica,sans-Serif" font-size="10.00">PreferredSplitSize.hpp</text>
</a>
</g>
</g>
<!-- Node5&#45;&gt;Node6 -->
<g id="edge6" class="edge"><title>Node5&#45;&gt;Node6</title>
<path fill="none" stroke="midnightblue" d="M468.953,-117.975C450.407,-108.122 419.66,-91.7883 397.978,-80.2697"/>
<polygon fill="midnightblue" stroke="midnightblue" points="399.49,-77.1098 389.017,-75.5091 396.206,-83.2916 399.49,-77.1098"/>
</g>
<!-- Node8 -->
<g id="node9" class="node"><title>Node8</title>
<polygon fill="white" stroke="#bfbfbf" points="452.5,-56.5 452.5,-75.5 517.5,-75.5 517.5,-56.5 452.5,-56.5"/>
<text text-anchor="middle" x="485" y="-63.5" font-family="Helvetica,sans-Serif" font-size="10.00">Bytes.hpp</text>
</g>
<!-- Node5&#45;&gt;Node8 -->
<g id="edge8" class="edge"><title>Node5&#45;&gt;Node8</title>
<path fill="none" stroke="midnightblue" d="M485,-117.975C485,-109.58 485,-96.4806 485,-85.6631"/>
<polygon fill="midnightblue" stroke="midnightblue" points="488.5,-85.5091 485,-75.5091 481.5,-85.5091 488.5,-85.5091"/>
</g>
<!-- Node9 -->
<g id="node10" class="node"><title>Node9</title>
<polygon fill="white" stroke="#bfbfbf" points="536,-56.5 536,-75.5 580,-75.5 580,-56.5 536,-56.5"/>
<text text-anchor="middle" x="558" y="-63.5" font-family="Helvetica,sans-Serif" font-size="10.00">string</text>
</g>
<!-- Node5&#45;&gt;Node9 -->
<g id="edge9" class="edge"><title>Node5&#45;&gt;Node9</title>
<path fill="none" stroke="midnightblue" d="M495.459,-117.975C506.951,-108.608 525.63,-93.3839 539.587,-82.0081"/>
<polygon fill="midnightblue" stroke="midnightblue" points="542.02,-84.54 547.56,-75.5091 537.598,-79.114 542.02,-84.54"/>
</g>
<!-- Node7 -->
<g id="node8" class="node"><title>Node7</title>
<polygon fill="white" stroke="#bfbfbf" points="343,-0.5 343,-19.5 403,-19.5 403,-0.5 343,-0.5"/>
<text text-anchor="middle" x="373" y="-7.5" font-family="Helvetica,sans-Serif" font-size="10.00">cinttypes</text>
</g>
<!-- Node6&#45;&gt;Node7 -->
<g id="edge7" class="edge"><title>Node6&#45;&gt;Node7</title>
<path fill="none" stroke="midnightblue" d="M373,-56.083C373,-49.0059 373,-38.8611 373,-29.9865"/>
<polygon fill="midnightblue" stroke="midnightblue" points="376.5,-29.751 373,-19.7511 369.5,-29.7511 376.5,-29.751"/>
</g>
</g>
</svg>
