<?xml version="1.0" encoding="UTF-8" standalone="no"?>
<!DOCTYPE svg PUBLIC "-//W3C//DTD SVG 1.1//EN"
 "http://www.w3.org/Graphics/SVG/1.1/DTD/svg11.dtd">
<!-- Generated by graphviz version 2.38.0 (20140413.2041)
 -->
<!-- Title: src/X2M200.hpp Pages: 1 -->
<svg width="489pt" height="196pt"
 viewBox="0.00 0.00 488.50 196.00" xmlns="http://www.w3.org/2000/svg" xmlns:xlink="http://www.w3.org/1999/xlink">
<g id="graph0" class="graph" transform="scale(1 1) rotate(0) translate(4 192)">
<title>src/X2M200.hpp</title>
<polygon fill="white" stroke="none" points="-4,4 -4,-192 484.5,-192 484.5,4 -4,4"/>
<!-- Node0 -->
<g id="node1" class="node"><title>Node0</title>
<polygon fill="#bfbfbf" stroke="black" points="217.5,-168.5 217.5,-187.5 310.5,-187.5 310.5,-168.5 217.5,-168.5"/>
<text text-anchor="middle" x="264" y="-175.5" font-family="Helvetica,sans-Serif" font-size="10.00">src/X2M200.hpp</text>
</g>
<!-- Node1 -->
<g id="node2" class="node"><title>Node1</title>
<polygon fill="white" stroke="#bfbfbf" points="157.5,-56.5 157.5,-75.5 222.5,-75.5 222.5,-56.5 157.5,-56.5"/>
<text text-anchor="middle" x="190" y="-63.5" font-family="Helvetica,sans-Serif" font-size="10.00">Bytes.hpp</text>
</g>
<!-- Node0&#45;&gt;Node1 -->
<g id="edge1" class="edge"><title>Node0&#45;&gt;Node1</title>
<path fill="none" stroke="midnightblue" d="M240.211,-168.401C224.209,-161.269 204.233,-149.447 194,-132 185.867,-118.133 185.534,-99.6184 186.846,-85.8964"/>
<polygon fill="midnightblue" stroke="midnightblue" points="190.353,-86.0783 188.2,-75.7045 183.414,-85.1566 190.353,-86.0783"/>
</g>
<!-- Node2 -->
<g id="node3" class="node"><title>Node2</title>
<g id="a_node3"><a xlink:href="_data_8hpp.xhtml" target="_top" xlink:title="Data.hpp">
<polygon fill="white" stroke="black" points="85.5,-112.5 85.5,-131.5 146.5,-131.5 146.5,-112.5 85.5,-112.5"/>
<text text-anchor="middle" x="116" y="-119.5" font-family="Helvetica,sans-Serif" font-size="10.00">Data.hpp</text>
</a>
</g>
</g>
<!-- Node0&#45;&gt;Node2 -->
<g id="edge2" class="edge"><title>Node0&#45;&gt;Node2</title>
<path fill="none" stroke="midnightblue" d="M240.549,-168.444C215.867,-159.438 176.815,-145.189 149.023,-135.049"/>
<polygon fill="midnightblue" stroke="midnightblue" points="149.935,-131.656 139.341,-131.516 147.536,-138.232 149.935,-131.656"/>
</g>
<!-- Node6 -->
<g id="node7" class="node"><title>Node6</title>
<g id="a_node7"><a xlink:href="_recording_options_8hpp.xhtml" target="_top" xlink:title="RecordingOptions.hpp">
<polygon fill="white" stroke="black" points="203.5,-112.5 203.5,-131.5 324.5,-131.5 324.5,-112.5 203.5,-112.5"/>
<text text-anchor="middle" x="264" y="-119.5" font-family="Helvetica,sans-Serif" font-size="10.00">RecordingOptions.hpp</text>
</a>
</g>
</g>
<!-- Node0&#45;&gt;Node6 -->
<g id="edge7" class="edge"><title>Node0&#45;&gt;Node6</title>
<path fill="none" stroke="midnightblue" d="M264,-168.083C264,-161.006 264,-150.861 264,-141.986"/>
<polygon fill="midnightblue" stroke="midnightblue" points="267.5,-141.751 264,-131.751 260.5,-141.751 267.5,-141.751"/>
</g>
<!-- Node10 -->
<g id="node11" class="node"><title>Node10</title>
<polygon fill="white" stroke="#bfbfbf" points="342.5,-112.5 342.5,-131.5 399.5,-131.5 399.5,-112.5 342.5,-112.5"/>
<text text-anchor="middle" x="371" y="-119.5" font-family="Helvetica,sans-Serif" font-size="10.00">memory</text>
</g>
<!-- Node0&#45;&gt;Node10 -->
<g id="edge12" class="edge"><title>Node0&#45;&gt;Node10</title>
<path fill="none" stroke="midnightblue" d="M281.191,-168.324C298.351,-159.664 324.946,-146.242 344.747,-136.249"/>
<polygon fill="midnightblue" stroke="midnightblue" points="346.501,-139.285 353.851,-131.655 343.347,-133.035 346.501,-139.285"/>
</g>
<!-- Node11 -->
<g id="node12" class="node"><title>Node11</title>
<polygon fill="white" stroke="#bfbfbf" points="417.5,-112.5 417.5,-131.5 480.5,-131.5 480.5,-112.5 417.5,-112.5"/>
<text text-anchor="middle" x="449" y="-119.5" font-family="Helvetica,sans-Serif" font-size="10.00">functional</text>
</g>
<!-- Node0&#45;&gt;Node11 -->
<g id="edge13" class="edge"><title>Node0&#45;&gt;Node11</title>
<path fill="none" stroke="midnightblue" d="M293.314,-168.444C324.842,-159.241 375.131,-144.562 409.986,-134.388"/>
<polygon fill="midnightblue" stroke="midnightblue" points="411.205,-137.678 419.823,-131.516 409.243,-130.959 411.205,-137.678"/>
</g>
<!-- Node2&#45;&gt;Node1 -->
<g id="edge3" class="edge"><title>Node2&#45;&gt;Node1</title>
<path fill="none" stroke="midnightblue" d="M127.889,-112.324C139.15,-104.107 156.287,-91.6017 169.709,-81.8069"/>
<polygon fill="midnightblue" stroke="midnightblue" points="171.88,-84.5559 177.894,-75.8339 167.753,-78.9014 171.88,-84.5559"/>
</g>
<!-- Node3 -->
<g id="node4" class="node"><title>Node3</title>
<polygon fill="white" stroke="#bfbfbf" points="92.5,-56.5 92.5,-75.5 139.5,-75.5 139.5,-56.5 92.5,-56.5"/>
<text text-anchor="middle" x="116" y="-63.5" font-family="Helvetica,sans-Serif" font-size="10.00">vector</text>
</g>
<!-- Node2&#45;&gt;Node3 -->
<g id="edge4" class="edge"><title>Node2&#45;&gt;Node3</title>
<path fill="none" stroke="midnightblue" d="M116,-112.083C116,-105.006 116,-94.8611 116,-85.9865"/>
<polygon fill="midnightblue" stroke="midnightblue" points="119.5,-85.751 116,-75.7511 112.5,-85.7511 119.5,-85.751"/>
</g>
<!-- Node4 -->
<g id="node5" class="node"><title>Node4</title>
<g id="a_node5"><a xlink:href="datatypes_8h.xhtml" target="_top" xlink:title="datatypes.h">
<polygon fill="white" stroke="black" points="0,-56.5 0,-75.5 74,-75.5 74,-56.5 0,-56.5"/>
<text text-anchor="middle" x="37" y="-63.5" font-family="Helvetica,sans-Serif" font-size="10.00">datatypes.h</text>
</a>
</g>
</g>
<!-- Node2&#45;&gt;Node4 -->
<g id="edge5" class="edge"><title>Node2&#45;&gt;Node4</title>
<path fill="none" stroke="midnightblue" d="M103.307,-112.324C91.0989,-103.979 72.4215,-91.2122 57.9971,-81.3524"/>
<polygon fill="midnightblue" stroke="midnightblue" points="59.892,-78.4082 49.6612,-75.6545 55.9418,-84.1871 59.892,-78.4082"/>
</g>
<!-- Node5 -->
<g id="node6" class="node"><title>Node5</title>
<polygon fill="white" stroke="#bfbfbf" points="10.5,-0.5 10.5,-19.5 63.5,-19.5 63.5,-0.5 10.5,-0.5"/>
<text text-anchor="middle" x="37" y="-7.5" font-family="Helvetica,sans-Serif" font-size="10.00">stdint.h</text>
</g>
<!-- Node4&#45;&gt;Node5 -->
<g id="edge6" class="edge"><title>Node4&#45;&gt;Node5</title>
<path fill="none" stroke="midnightblue" d="M37,-56.083C37,-49.0059 37,-38.8611 37,-29.9865"/>
<polygon fill="midnightblue" stroke="midnightblue" points="40.5001,-29.751 37,-19.7511 33.5001,-29.7511 40.5001,-29.751"/>
</g>
<!-- Node6&#45;&gt;Node1 -->
<g id="edge10" class="edge"><title>Node6&#45;&gt;Node1</title>
<path fill="none" stroke="midnightblue" d="M252.111,-112.324C240.85,-104.107 223.713,-91.6017 210.291,-81.8069"/>
<polygon fill="midnightblue" stroke="midnightblue" points="212.247,-78.9014 202.106,-75.8339 208.12,-84.5559 212.247,-78.9014"/>
</g>
<!-- Node7 -->
<g id="node8" class="node"><title>Node7</title>
<g id="a_node8"><a xlink:href="_preferred_split_size_8hpp.xhtml" target="_top" xlink:title="PreferredSplitSize.hpp">
<polygon fill="white" stroke="black" points="304.5,-56.5 304.5,-75.5 427.5,-75.5 427.5,-56.5 304.5,-56.5"/>
<text text-anchor="middle" x="366" y="-63.5" font-family="Helvetica,sans-Serif" font-size="10.00">PreferredSplitSize.hpp</text>
</a>
</g>
</g>
<!-- Node6&#45;&gt;Node7 -->
<g id="edge8" class="edge"><title>Node6&#45;&gt;Node7</title>
<path fill="none" stroke="midnightblue" d="M280.388,-112.324C296.671,-103.703 321.867,-90.3643 340.716,-80.3855"/>
<polygon fill="midnightblue" stroke="midnightblue" points="342.452,-83.4267 349.653,-75.6545 339.177,-77.2402 342.452,-83.4267"/>
</g>
<!-- Node9 -->
<g id="node10" class="node"><title>Node9</title>
<polygon fill="white" stroke="#bfbfbf" points="242,-56.5 242,-75.5 286,-75.5 286,-56.5 242,-56.5"/>
<text text-anchor="middle" x="264" y="-63.5" font-family="Helvetica,sans-Serif" font-size="10.00">string</text>
</g>
<!-- Node6&#45;&gt;Node9 -->
<g id="edge11" class="edge"><title>Node6&#45;&gt;Node9</title>
<path fill="none" stroke="midnightblue" d="M264,-112.083C264,-105.006 264,-94.8611 264,-85.9865"/>
<polygon fill="midnightblue" stroke="midnightblue" points="267.5,-85.751 264,-75.7511 260.5,-85.7511 267.5,-85.751"/>
</g>
<!-- Node8 -->
<g id="node9" class="node"><title>Node8</title>
<polygon fill="white" stroke="#bfbfbf" points="336,-0.5 336,-19.5 396,-19.5 396,-0.5 336,-0.5"/>
<text text-anchor="middle" x="366" y="-7.5" font-family="Helvetica,sans-Serif" font-size="10.00">cinttypes</text>
</g>
<!-- Node7&#45;&gt;Node8 -->
<g id="edge9" class="edge"><title>Node7&#45;&gt;Node8</title>
<path fill="none" stroke="midnightblue" d="M366,-56.083C366,-49.0059 366,-38.8611 366,-29.9865"/>
<polygon fill="midnightblue" stroke="midnightblue" points="369.5,-29.751 366,-19.7511 362.5,-29.7511 369.5,-29.751"/>
</g>
</g>
</svg>
