<?xml version="1.0" encoding="UTF-8" standalone="no"?>
<!DOCTYPE svg PUBLIC "-//W3C//DTD SVG 1.1//EN"
 "http://www.w3.org/Graphics/SVG/1.1/DTD/svg11.dtd">
<!-- Generated by graphviz version 2.38.0 (20140413.2041)
 -->
<!-- Title: src/X4M300.hpp Pages: 1 -->
<svg width="508pt" height="196pt"
 viewBox="0.00 0.00 507.50 196.00" xmlns="http://www.w3.org/2000/svg" xmlns:xlink="http://www.w3.org/1999/xlink">
<g id="graph0" class="graph" transform="scale(1 1) rotate(0) translate(4 192)">
<title>src/X4M300.hpp</title>
<polygon fill="white" stroke="none" points="-4,4 -4,-192 503.5,-192 503.5,4 -4,4"/>
<!-- Node0 -->
<g id="node1" class="node"><title>Node0</title>
<polygon fill="#bfbfbf" stroke="black" points="227.5,-168.5 227.5,-187.5 320.5,-187.5 320.5,-168.5 227.5,-168.5"/>
<text text-anchor="middle" x="274" y="-175.5" font-family="Helvetica,sans-Serif" font-size="10.00">src/X4M300.hpp</text>
</g>
<!-- Node1 -->
<g id="node2" class="node"><title>Node1</title>
<polygon fill="white" stroke="#bfbfbf" points="0,-112.5 0,-131.5 128,-131.5 128,-112.5 0,-112.5"/>
<text text-anchor="middle" x="64" y="-119.5" font-family="Helvetica,sans-Serif" font-size="10.00">NotSupportedData.hpp</text>
</g>
<!-- Node0&#45;&gt;Node1 -->
<g id="edge1" class="edge"><title>Node0&#45;&gt;Node1</title>
<path fill="none" stroke="midnightblue" d="M240.725,-168.444C204.552,-159.142 146.623,-144.246 107.019,-134.062"/>
<polygon fill="midnightblue" stroke="midnightblue" points="107.676,-130.617 97.1194,-131.516 105.933,-137.397 107.676,-130.617"/>
</g>
<!-- Node2 -->
<g id="node3" class="node"><title>Node2</title>
<g id="a_node3"><a xlink:href="_data_8hpp.xhtml" target="_top" xlink:title="Data.hpp">
<polygon fill="white" stroke="black" points="184.5,-112.5 184.5,-131.5 245.5,-131.5 245.5,-112.5 184.5,-112.5"/>
<text text-anchor="middle" x="215" y="-119.5" font-family="Helvetica,sans-Serif" font-size="10.00">Data.hpp</text>
</a>
</g>
</g>
<!-- Node0&#45;&gt;Node2 -->
<g id="edge2" class="edge"><title>Node0&#45;&gt;Node2</title>
<path fill="none" stroke="midnightblue" d="M264.521,-168.324C255.799,-160.341 242.657,-148.313 232.102,-138.653"/>
<polygon fill="midnightblue" stroke="midnightblue" points="234.392,-136.004 224.652,-131.834 229.666,-141.167 234.392,-136.004"/>
</g>
<!-- Node3 -->
<g id="node4" class="node"><title>Node3</title>
<polygon fill="white" stroke="#bfbfbf" points="94.5,-56.5 94.5,-75.5 159.5,-75.5 159.5,-56.5 94.5,-56.5"/>
<text text-anchor="middle" x="127" y="-63.5" font-family="Helvetica,sans-Serif" font-size="10.00">Bytes.hpp</text>
</g>
<!-- Node0&#45;&gt;Node3 -->
<g id="edge7" class="edge"><title>Node0&#45;&gt;Node3</title>
<path fill="none" stroke="midnightblue" d="M246.2,-168.403C225.385,-161.028 197.003,-148.903 176,-132 159.541,-118.754 145.595,-98.8114 136.839,-84.5111"/>
<polygon fill="midnightblue" stroke="midnightblue" points="139.725,-82.5122 131.641,-75.6639 133.689,-86.0587 139.725,-82.5122"/>
</g>
<!-- Node4 -->
<g id="node5" class="node"><title>Node4</title>
<polygon fill="white" stroke="#bfbfbf" points="270.5,-56.5 270.5,-75.5 317.5,-75.5 317.5,-56.5 270.5,-56.5"/>
<text text-anchor="middle" x="294" y="-63.5" font-family="Helvetica,sans-Serif" font-size="10.00">vector</text>
</g>
<!-- Node0&#45;&gt;Node4 -->
<g id="edge10" class="edge"><title>Node0&#45;&gt;Node4</title>
<path fill="none" stroke="midnightblue" d="M275.569,-168.368C278.797,-150.617 286.242,-109.666 290.619,-85.5974"/>
<polygon fill="midnightblue" stroke="midnightblue" points="294.093,-86.0562 292.438,-75.5914 287.205,-84.804 294.093,-86.0562"/>
</g>
<!-- Node7 -->
<g id="node8" class="node"><title>Node7</title>
<polygon fill="white" stroke="#bfbfbf" points="302,-112.5 302,-131.5 362,-131.5 362,-112.5 302,-112.5"/>
<text text-anchor="middle" x="332" y="-119.5" font-family="Helvetica,sans-Serif" font-size="10.00">cinttypes</text>
</g>
<!-- Node0&#45;&gt;Node7 -->
<g id="edge8" class="edge"><title>Node0&#45;&gt;Node7</title>
<path fill="none" stroke="midnightblue" d="M283.319,-168.324C291.893,-160.341 304.812,-148.313 315.188,-138.653"/>
<polygon fill="midnightblue" stroke="midnightblue" points="317.578,-141.21 322.512,-131.834 312.808,-136.086 317.578,-141.21"/>
</g>
<!-- Node8 -->
<g id="node9" class="node"><title>Node8</title>
<polygon fill="white" stroke="#bfbfbf" points="380,-112.5 380,-131.5 424,-131.5 424,-112.5 380,-112.5"/>
<text text-anchor="middle" x="402" y="-119.5" font-family="Helvetica,sans-Serif" font-size="10.00">string</text>
</g>
<!-- Node0&#45;&gt;Node8 -->
<g id="edge9" class="edge"><title>Node0&#45;&gt;Node8</title>
<path fill="none" stroke="midnightblue" d="M294.282,-168.444C315.347,-159.557 348.517,-145.563 372.486,-135.451"/>
<polygon fill="midnightblue" stroke="midnightblue" points="373.96,-138.628 381.813,-131.516 371.239,-132.179 373.96,-138.628"/>
</g>
<!-- Node9 -->
<g id="node10" class="node"><title>Node9</title>
<polygon fill="white" stroke="#bfbfbf" points="442.5,-112.5 442.5,-131.5 499.5,-131.5 499.5,-112.5 442.5,-112.5"/>
<text text-anchor="middle" x="471" y="-119.5" font-family="Helvetica,sans-Serif" font-size="10.00">memory</text>
</g>
<!-- Node0&#45;&gt;Node9 -->
<g id="edge11" class="edge"><title>Node0&#45;&gt;Node9</title>
<path fill="none" stroke="midnightblue" d="M305.215,-168.444C339.726,-158.984 395.346,-143.738 432.525,-133.546"/>
<polygon fill="midnightblue" stroke="midnightblue" points="433.77,-136.834 442.489,-130.815 431.92,-130.083 433.77,-136.834"/>
</g>
<!-- Node2&#45;&gt;Node3 -->
<g id="edge3" class="edge"><title>Node2&#45;&gt;Node3</title>
<path fill="none" stroke="midnightblue" d="M200.861,-112.324C187.134,-103.9 166.064,-90.9709 149.936,-81.0741"/>
<polygon fill="midnightblue" stroke="midnightblue" points="151.457,-77.9016 141.104,-75.6545 147.796,-83.8678 151.457,-77.9016"/>
</g>
<!-- Node2&#45;&gt;Node4 -->
<g id="edge4" class="edge"><title>Node2&#45;&gt;Node4</title>
<path fill="none" stroke="midnightblue" d="M227.693,-112.324C239.901,-103.979 258.578,-91.2122 273.003,-81.3524"/>
<polygon fill="midnightblue" stroke="midnightblue" points="275.058,-84.1871 281.339,-75.6545 271.108,-78.4082 275.058,-84.1871"/>
</g>
<!-- Node5 -->
<g id="node6" class="node"><title>Node5</title>
<g id="a_node6"><a xlink:href="datatypes_8h.xhtml" target="_top" xlink:title="datatypes.h">
<polygon fill="white" stroke="black" points="178,-56.5 178,-75.5 252,-75.5 252,-56.5 178,-56.5"/>
<text text-anchor="middle" x="215" y="-63.5" font-family="Helvetica,sans-Serif" font-size="10.00">datatypes.h</text>
</a>
</g>
</g>
<!-- Node2&#45;&gt;Node5 -->
<g id="edge5" class="edge"><title>Node2&#45;&gt;Node5</title>
<path fill="none" stroke="midnightblue" d="M215,-112.083C215,-105.006 215,-94.8611 215,-85.9865"/>
<polygon fill="midnightblue" stroke="midnightblue" points="218.5,-85.751 215,-75.7511 211.5,-85.7511 218.5,-85.751"/>
</g>
<!-- Node6 -->
<g id="node7" class="node"><title>Node6</title>
<polygon fill="white" stroke="#bfbfbf" points="188.5,-0.5 188.5,-19.5 241.5,-19.5 241.5,-0.5 188.5,-0.5"/>
<text text-anchor="middle" x="215" y="-7.5" font-family="Helvetica,sans-Serif" font-size="10.00">stdint.h</text>
</g>
<!-- Node5&#45;&gt;Node6 -->
<g id="edge6" class="edge"><title>Node5&#45;&gt;Node6</title>
<path fill="none" stroke="midnightblue" d="M215,-56.083C215,-49.0059 215,-38.8611 215,-29.9865"/>
<polygon fill="midnightblue" stroke="midnightblue" points="218.5,-29.751 215,-19.7511 211.5,-29.7511 218.5,-29.751"/>
</g>
</g>
</svg>
