<?xml version="1.0" encoding="UTF-8" standalone="no"?>
<!DOCTYPE svg PUBLIC "-//W3C//DTD SVG 1.1//EN"
 "http://www.w3.org/Graphics/SVG/1.1/DTD/svg11.dtd">
<!-- Generated by graphviz version 2.38.0 (20140413.2041)
 -->
<!-- Title: src/XEP.hpp Pages: 1 -->
<svg width="455pt" height="196pt"
 viewBox="0.00 0.00 455.00 196.00" xmlns="http://www.w3.org/2000/svg" xmlns:xlink="http://www.w3.org/1999/xlink">
<g id="graph0" class="graph" transform="scale(1 1) rotate(0) translate(4 192)">
<title>src/XEP.hpp</title>
<polygon fill="white" stroke="none" points="-4,4 -4,-192 451,-192 451,4 -4,4"/>
<!-- Node0 -->
<g id="node1" class="node"><title>Node0</title>
<polygon fill="#bfbfbf" stroke="black" points="261,-168.5 261,-187.5 332,-187.5 332,-168.5 261,-168.5"/>
<text text-anchor="middle" x="296.5" y="-175.5" font-family="Helvetica,sans-Serif" font-size="10.00">src/XEP.hpp</text>
</g>
<!-- Node1 -->
<g id="node2" class="node"><title>Node1</title>
<g id="a_node2"><a xlink:href="_recording_options_8hpp.xhtml" target="_top" xlink:title="RecordingOptions.hpp">
<polygon fill="white" stroke="black" points="109,-112.5 109,-131.5 230,-131.5 230,-112.5 109,-112.5"/>
<text text-anchor="middle" x="169.5" y="-119.5" font-family="Helvetica,sans-Serif" font-size="10.00">RecordingOptions.hpp</text>
</a>
</g>
</g>
<!-- Node0&#45;&gt;Node1 -->
<g id="edge1" class="edge"><title>Node0&#45;&gt;Node1</title>
<path fill="none" stroke="midnightblue" d="M276.376,-168.444C255.476,-159.557 222.565,-145.563 198.784,-135.451"/>
<polygon fill="midnightblue" stroke="midnightblue" points="200.102,-132.208 189.529,-131.516 197.362,-138.65 200.102,-132.208"/>
</g>
<!-- Node3 -->
<g id="node4" class="node"><title>Node3</title>
<polygon fill="white" stroke="#bfbfbf" points="148.5,-0.5 148.5,-19.5 208.5,-19.5 208.5,-0.5 148.5,-0.5"/>
<text text-anchor="middle" x="178.5" y="-7.5" font-family="Helvetica,sans-Serif" font-size="10.00">cinttypes</text>
</g>
<!-- Node0&#45;&gt;Node3 -->
<g id="edge6" class="edge"><title>Node0&#45;&gt;Node3</title>
<path fill="none" stroke="midnightblue" d="M297.716,-168.326C300.23,-146.866 303.751,-90.5346 277.5,-56 263.263,-37.2708 239.43,-26.1128 218.716,-19.5929"/>
<polygon fill="midnightblue" stroke="midnightblue" points="219.431,-16.1567 208.853,-16.7519 217.493,-22.8832 219.431,-16.1567"/>
</g>
<!-- Node5 -->
<g id="node6" class="node"><title>Node5</title>
<polygon fill="white" stroke="#bfbfbf" points="224.5,-56.5 224.5,-75.5 268.5,-75.5 268.5,-56.5 224.5,-56.5"/>
<text text-anchor="middle" x="246.5" y="-63.5" font-family="Helvetica,sans-Serif" font-size="10.00">string</text>
</g>
<!-- Node0&#45;&gt;Node5 -->
<g id="edge7" class="edge"><title>Node0&#45;&gt;Node5</title>
<path fill="none" stroke="midnightblue" d="M292.577,-168.368C284.435,-150.456 265.556,-108.923 254.658,-84.9482"/>
<polygon fill="midnightblue" stroke="midnightblue" points="257.73,-83.2468 250.405,-75.5914 251.357,-86.1434 257.73,-83.2468"/>
</g>
<!-- Node6 -->
<g id="node7" class="node"><title>Node6</title>
<polygon fill="white" stroke="#bfbfbf" points="325,-112.5 325,-131.5 372,-131.5 372,-112.5 325,-112.5"/>
<text text-anchor="middle" x="348.5" y="-119.5" font-family="Helvetica,sans-Serif" font-size="10.00">vector</text>
</g>
<!-- Node0&#45;&gt;Node6 -->
<g id="edge8" class="edge"><title>Node0&#45;&gt;Node6</title>
<path fill="none" stroke="midnightblue" d="M305.087,-168.083C312.659,-160.22 323.878,-148.569 333.014,-139.081"/>
<polygon fill="midnightblue" stroke="midnightblue" points="335.658,-141.382 340.073,-131.751 330.615,-136.527 335.658,-141.382"/>
</g>
<!-- Node7 -->
<g id="node8" class="node"><title>Node7</title>
<polygon fill="white" stroke="#bfbfbf" points="390,-112.5 390,-131.5 447,-131.5 447,-112.5 390,-112.5"/>
<text text-anchor="middle" x="418.5" y="-119.5" font-family="Helvetica,sans-Serif" font-size="10.00">memory</text>
</g>
<!-- Node0&#45;&gt;Node7 -->
<g id="edge9" class="edge"><title>Node0&#45;&gt;Node7</title>
<path fill="none" stroke="midnightblue" d="M315.831,-168.444C335.82,-159.596 367.243,-145.687 390.064,-135.586"/>
<polygon fill="midnightblue" stroke="midnightblue" points="391.532,-138.764 399.259,-131.516 388.698,-132.363 391.532,-138.764"/>
</g>
<!-- Node2 -->
<g id="node3" class="node"><title>Node2</title>
<g id="a_node3"><a xlink:href="_preferred_split_size_8hpp.xhtml" target="_top" xlink:title="PreferredSplitSize.hpp">
<polygon fill="white" stroke="black" points="0,-56.5 0,-75.5 123,-75.5 123,-56.5 0,-56.5"/>
<text text-anchor="middle" x="61.5" y="-63.5" font-family="Helvetica,sans-Serif" font-size="10.00">PreferredSplitSize.hpp</text>
</a>
</g>
</g>
<!-- Node1&#45;&gt;Node2 -->
<g id="edge2" class="edge"><title>Node1&#45;&gt;Node2</title>
<path fill="none" stroke="midnightblue" d="M152.148,-112.324C134.828,-103.664 107.985,-90.2424 87.9981,-80.249"/>
<polygon fill="midnightblue" stroke="midnightblue" points="89.3186,-76.9962 78.809,-75.6545 86.188,-83.2572 89.3186,-76.9962"/>
</g>
<!-- Node4 -->
<g id="node5" class="node"><title>Node4</title>
<polygon fill="white" stroke="#bfbfbf" points="141,-56.5 141,-75.5 206,-75.5 206,-56.5 141,-56.5"/>
<text text-anchor="middle" x="173.5" y="-63.5" font-family="Helvetica,sans-Serif" font-size="10.00">Bytes.hpp</text>
</g>
<!-- Node1&#45;&gt;Node4 -->
<g id="edge4" class="edge"><title>Node1&#45;&gt;Node4</title>
<path fill="none" stroke="midnightblue" d="M170.161,-112.083C170.685,-105.006 171.436,-94.8611 172.094,-85.9865"/>
<polygon fill="midnightblue" stroke="midnightblue" points="175.603,-85.9823 172.852,-75.7511 168.623,-85.4652 175.603,-85.9823"/>
</g>
<!-- Node1&#45;&gt;Node5 -->
<g id="edge5" class="edge"><title>Node1&#45;&gt;Node5</title>
<path fill="none" stroke="midnightblue" d="M181.871,-112.324C193.658,-104.058 211.632,-91.4527 225.636,-81.6322"/>
<polygon fill="midnightblue" stroke="midnightblue" points="227.982,-84.2619 234.159,-75.6545 223.962,-78.5307 227.982,-84.2619"/>
</g>
<!-- Node2&#45;&gt;Node3 -->
<g id="edge3" class="edge"><title>Node2&#45;&gt;Node3</title>
<path fill="none" stroke="midnightblue" d="M80.039,-56.4435C99.1229,-47.6356 129.075,-33.8116 150.936,-23.722"/>
<polygon fill="midnightblue" stroke="midnightblue" points="152.435,-26.8849 160.048,-19.5164 149.501,-20.5292 152.435,-26.8849"/>
</g>
</g>
</svg>
