<?xml version="1.0" encoding="UTF-8" standalone="no"?>
<!DOCTYPE svg PUBLIC "-//W3C//DTD SVG 1.1//EN"
 "http://www.w3.org/Graphics/SVG/1.1/DTD/svg11.dtd">
<!-- Generated by graphviz version 2.38.0 (20140413.2041)
 -->
<!-- Title: src/datatypes.h Pages: 1 -->
<svg width="341pt" height="140pt"
 viewBox="0.00 0.00 340.50 140.00" xmlns="http://www.w3.org/2000/svg" xmlns:xlink="http://www.w3.org/1999/xlink">
<g id="graph0" class="graph" transform="scale(1 1) rotate(0) translate(4 136)">
<title>src/datatypes.h</title>
<polygon fill="white" stroke="none" points="-4,4 -4,-136 336.5,-136 336.5,4 -4,4"/>
<!-- Node2 -->
<g id="node1" class="node"><title>Node2</title>
<polygon fill="#bfbfbf" stroke="black" points="75.5,-112.5 75.5,-131.5 166.5,-131.5 166.5,-112.5 75.5,-112.5"/>
<text text-anchor="middle" x="121" y="-119.5" font-family="Helvetica,sans-Serif" font-size="10.00">src/datatypes.h</text>
</g>
<!-- Node3 -->
<g id="node2" class="node"><title>Node3</title>
<g id="a_node2"><a xlink:href="_data_8hpp.xhtml" target="_top" xlink:title="src/Data.hpp">
<polygon fill="white" stroke="black" points="122,-56.5 122,-75.5 200,-75.5 200,-56.5 122,-56.5"/>
<text text-anchor="middle" x="161" y="-63.5" font-family="Helvetica,sans-Serif" font-size="10.00">src/Data.hpp</text>
</a>
</g>
</g>
<!-- Node2&#45;&gt;Node3 -->
<g id="edge1" class="edge"><title>Node2&#45;&gt;Node3</title>
<path fill="none" stroke="midnightblue" d="M133.7,-103.855C140.626,-94.5048 148.906,-83.3265 154.518,-75.7511"/>
<polygon fill="midnightblue" stroke="midnightblue" points="130.745,-101.964 127.605,-112.083 136.37,-106.131 130.745,-101.964"/>
</g>
<!-- Node4 -->
<g id="node3" class="node"><title>Node4</title>
<g id="a_node3"><a xlink:href="_data_reader_8hpp.xhtml" target="_top" xlink:title="src/DataReader.hpp">
<polygon fill="white" stroke="black" points="0,-0.5 0,-19.5 110,-19.5 110,-0.5 0,-0.5"/>
<text text-anchor="middle" x="55" y="-7.5" font-family="Helvetica,sans-Serif" font-size="10.00">src/DataReader.hpp</text>
</a>
</g>
</g>
<!-- Node2&#45;&gt;Node4 -->
<g id="edge5" class="edge"><title>Node2&#45;&gt;Node4</title>
<path fill="none" stroke="midnightblue" d="M110.584,-103.64C96.2461,-79.7436 70.9772,-37.6286 60.1549,-19.5914"/>
<polygon fill="midnightblue" stroke="midnightblue" points="107.675,-105.594 115.821,-112.368 113.677,-101.993 107.675,-105.594"/>
</g>
<!-- Node3&#45;&gt;Node4 -->
<g id="edge2" class="edge"><title>Node3&#45;&gt;Node4</title>
<path fill="none" stroke="midnightblue" d="M134.944,-51.7261C115.316,-41.7271 88.972,-28.3065 71.9885,-19.6545"/>
<polygon fill="midnightblue" stroke="midnightblue" points="133.47,-54.9033 143.969,-56.324 136.648,-48.666 133.47,-54.9033"/>
</g>
<!-- Node5 -->
<g id="node4" class="node"><title>Node5</title>
<g id="a_node4"><a xlink:href="_x2_m200_8hpp.xhtml" target="_top" xlink:title="src/X2M200.hpp">
<polygon fill="white" stroke="black" points="128.5,-0.5 128.5,-19.5 221.5,-19.5 221.5,-0.5 128.5,-0.5"/>
<text text-anchor="middle" x="175" y="-7.5" font-family="Helvetica,sans-Serif" font-size="10.00">src/X2M200.hpp</text>
</a>
</g>
</g>
<!-- Node3&#45;&gt;Node5 -->
<g id="edge3" class="edge"><title>Node3&#45;&gt;Node5</title>
<path fill="none" stroke="midnightblue" d="M165.823,-46.3956C168.165,-37.362 170.868,-26.936 172.731,-19.7511"/>
<polygon fill="midnightblue" stroke="midnightblue" points="162.434,-45.5246 163.312,-56.083 169.21,-47.2814 162.434,-45.5246"/>
</g>
<!-- Node6 -->
<g id="node5" class="node"><title>Node6</title>
<g id="a_node5"><a xlink:href="_x4_m300_8hpp.xhtml" target="_top" xlink:title="src/X4M300.hpp">
<polygon fill="white" stroke="black" points="239.5,-0.5 239.5,-19.5 332.5,-19.5 332.5,-0.5 239.5,-0.5"/>
<text text-anchor="middle" x="286" y="-7.5" font-family="Helvetica,sans-Serif" font-size="10.00">src/X4M300.hpp</text>
</a>
</g>
</g>
<!-- Node3&#45;&gt;Node6 -->
<g id="edge4" class="edge"><title>Node3&#45;&gt;Node6</title>
<path fill="none" stroke="midnightblue" d="M190.241,-52.3678C213.65,-42.2553 245.841,-28.3486 266.286,-19.5164"/>
<polygon fill="midnightblue" stroke="midnightblue" points="188.599,-49.2647 180.807,-56.4435 191.375,-55.6907 188.599,-49.2647"/>
</g>
</g>
</svg>
