<?xml version="1.0" encoding="UTF-8" standalone="no"?>
<!DOCTYPE svg PUBLIC "-//W3C//DTD SVG 1.1//EN"
 "http://www.w3.org/Graphics/SVG/1.1/DTD/svg11.dtd">
<!-- Generated by graphviz version 2.38.0 (20140413.2041)
 -->
<!-- Title: src/DataReader.hpp Pages: 1 -->
<svg width="379pt" height="196pt"
 viewBox="0.00 0.00 378.50 196.00" xmlns="http://www.w3.org/2000/svg" xmlns:xlink="http://www.w3.org/1999/xlink">
<g id="graph0" class="graph" transform="scale(1 1) rotate(0) translate(4 192)">
<title>src/DataReader.hpp</title>
<polygon fill="white" stroke="none" points="-4,4 -4,-192 374.5,-192 374.5,4 -4,4"/>
<!-- Node0 -->
<g id="node1" class="node"><title>Node0</title>
<polygon fill="#bfbfbf" stroke="black" points="129,-168.5 129,-187.5 232,-187.5 232,-168.5 129,-168.5"/>
<text text-anchor="middle" x="180.5" y="-175.5" font-family="Helvetica,sans-Serif" font-size="10.00">src/DataReader.hpp</text>
</g>
<!-- Node1 -->
<g id="node2" class="node"><title>Node1</title>
<polygon fill="white" stroke="#bfbfbf" points="0,-56.5 0,-75.5 61,-75.5 61,-56.5 0,-56.5"/>
<text text-anchor="middle" x="30.5" y="-63.5" font-family="Helvetica,sans-Serif" font-size="10.00">Bytes.hpp</text>
</g>
<!-- Node0&#45;&gt;Node1 -->
<g id="edge1" class="edge"><title>Node0&#45;&gt;Node1</title>
<path fill="none" stroke="midnightblue" d="M137.511,-168.496C113.432,-161.912 84.1819,-150.662 63.5,-132 49.7229,-119.569 40.9021,-100.055 35.8795,-85.649"/>
<polygon fill="midnightblue" stroke="midnightblue" points="39.1239,-84.3013 32.76,-75.8307 32.4525,-86.4211 39.1239,-84.3013"/>
</g>
<!-- Node2 -->
<g id="node3" class="node"><title>Node2</title>
<g id="a_node3"><a xlink:href="_data_8hpp.xhtml" target="_top" xlink:title="Data.hpp">
<polygon fill="white" stroke="black" points="72.5,-112.5 72.5,-131.5 128.5,-131.5 128.5,-112.5 72.5,-112.5"/>
<text text-anchor="middle" x="100.5" y="-119.5" font-family="Helvetica,sans-Serif" font-size="10.00">Data.hpp</text>
</a>
</g>
</g>
<!-- Node0&#45;&gt;Node2 -->
<g id="edge2" class="edge"><title>Node0&#45;&gt;Node2</title>
<path fill="none" stroke="midnightblue" d="M167.647,-168.324C155.284,-159.979 136.37,-147.212 121.763,-137.352"/>
<polygon fill="midnightblue" stroke="midnightblue" points="123.568,-134.348 113.321,-131.655 119.652,-140.15 123.568,-134.348"/>
</g>
<!-- Node4 -->
<g id="node5" class="node"><title>Node4</title>
<g id="a_node5"><a xlink:href="datatypes_8h.xhtml" target="_top" xlink:title="datatypes.h">
<polygon fill="white" stroke="black" points="139.5,-56.5 139.5,-75.5 207.5,-75.5 207.5,-56.5 139.5,-56.5"/>
<text text-anchor="middle" x="173.5" y="-63.5" font-family="Helvetica,sans-Serif" font-size="10.00">datatypes.h</text>
</a>
</g>
</g>
<!-- Node0&#45;&gt;Node4 -->
<g id="edge7" class="edge"><title>Node0&#45;&gt;Node4</title>
<path fill="none" stroke="midnightblue" d="M179.624,-168.382C178.73,-159.33 177.356,-144.677 176.5,-132 175.453,-116.483 174.664,-98.8568 174.159,-85.8778"/>
<polygon fill="midnightblue" stroke="midnightblue" points="177.655,-85.7023 173.789,-75.8381 170.66,-85.9604 177.655,-85.7023"/>
</g>
<!-- Node6 -->
<g id="node7" class="node"><title>Node6</title>
<polygon fill="white" stroke="#bfbfbf" points="185,-112.5 185,-131.5 226,-131.5 226,-112.5 185,-112.5"/>
<text text-anchor="middle" x="205.5" y="-119.5" font-family="Helvetica,sans-Serif" font-size="10.00">string</text>
</g>
<!-- Node0&#45;&gt;Node6 -->
<g id="edge8" class="edge"><title>Node0&#45;&gt;Node6</title>
<path fill="none" stroke="midnightblue" d="M184.628,-168.083C188.014,-160.77 192.916,-150.181 197.119,-141.103"/>
<polygon fill="midnightblue" stroke="midnightblue" points="200.423,-142.296 201.449,-131.751 194.071,-139.355 200.423,-142.296"/>
</g>
<!-- Node7 -->
<g id="node8" class="node"><title>Node7</title>
<polygon fill="white" stroke="#bfbfbf" points="244.5,-112.5 244.5,-131.5 296.5,-131.5 296.5,-112.5 244.5,-112.5"/>
<text text-anchor="middle" x="270.5" y="-119.5" font-family="Helvetica,sans-Serif" font-size="10.00">memory</text>
</g>
<!-- Node0&#45;&gt;Node7 -->
<g id="edge9" class="edge"><title>Node0&#45;&gt;Node7</title>
<path fill="none" stroke="midnightblue" d="M194.96,-168.324C209,-159.9 230.548,-146.971 247.043,-137.074"/>
<polygon fill="midnightblue" stroke="midnightblue" points="249.302,-139.801 256.076,-131.655 245.7,-133.798 249.302,-139.801"/>
</g>
<!-- Node8 -->
<g id="node9" class="node"><title>Node8</title>
<polygon fill="white" stroke="#bfbfbf" points="314.5,-112.5 314.5,-131.5 370.5,-131.5 370.5,-112.5 314.5,-112.5"/>
<text text-anchor="middle" x="342.5" y="-119.5" font-family="Helvetica,sans-Serif" font-size="10.00">cinttypes</text>
</g>
<!-- Node0&#45;&gt;Node8 -->
<g id="edge10" class="edge"><title>Node0&#45;&gt;Node8</title>
<path fill="none" stroke="midnightblue" d="M206.169,-168.444C233.423,-159.359 276.684,-144.939 307.151,-134.783"/>
<polygon fill="midnightblue" stroke="midnightblue" points="308.571,-137.999 316.951,-131.516 306.357,-131.358 308.571,-137.999"/>
</g>
<!-- Node2&#45;&gt;Node1 -->
<g id="edge3" class="edge"><title>Node2&#45;&gt;Node1</title>
<path fill="none" stroke="midnightblue" d="M89.2533,-112.324C78.7026,-104.185 62.6993,-91.8395 50.0578,-82.0874"/>
<polygon fill="midnightblue" stroke="midnightblue" points="52.007,-79.1707 41.9513,-75.8339 47.7314,-84.7132 52.007,-79.1707"/>
</g>
<!-- Node3 -->
<g id="node4" class="node"><title>Node3</title>
<polygon fill="white" stroke="#bfbfbf" points="79.5,-56.5 79.5,-75.5 121.5,-75.5 121.5,-56.5 79.5,-56.5"/>
<text text-anchor="middle" x="100.5" y="-63.5" font-family="Helvetica,sans-Serif" font-size="10.00">vector</text>
</g>
<!-- Node2&#45;&gt;Node3 -->
<g id="edge4" class="edge"><title>Node2&#45;&gt;Node3</title>
<path fill="none" stroke="midnightblue" d="M100.5,-112.083C100.5,-105.006 100.5,-94.8611 100.5,-85.9865"/>
<polygon fill="midnightblue" stroke="midnightblue" points="104,-85.751 100.5,-75.7511 97.0001,-85.7511 104,-85.751"/>
</g>
<!-- Node2&#45;&gt;Node4 -->
<g id="edge5" class="edge"><title>Node2&#45;&gt;Node4</title>
<path fill="none" stroke="midnightblue" d="M112.229,-112.324C123.337,-104.107 140.242,-91.6017 153.483,-81.8069"/>
<polygon fill="midnightblue" stroke="midnightblue" points="155.6,-84.5948 161.558,-75.8339 151.437,-78.9671 155.6,-84.5948"/>
</g>
<!-- Node5 -->
<g id="node6" class="node"><title>Node5</title>
<polygon fill="white" stroke="#bfbfbf" points="149,-0.5 149,-19.5 198,-19.5 198,-0.5 149,-0.5"/>
<text text-anchor="middle" x="173.5" y="-7.5" font-family="Helvetica,sans-Serif" font-size="10.00">stdint.h</text>
</g>
<!-- Node4&#45;&gt;Node5 -->
<g id="edge6" class="edge"><title>Node4&#45;&gt;Node5</title>
<path fill="none" stroke="midnightblue" d="M173.5,-56.083C173.5,-49.0059 173.5,-38.8611 173.5,-29.9865"/>
<polygon fill="midnightblue" stroke="midnightblue" points="177,-29.751 173.5,-19.7511 170,-29.7511 177,-29.751"/>
</g>
</g>
</svg>
