<?xml version="1.0" encoding="UTF-8" standalone="no"?>
<!DOCTYPE svg PUBLIC "-//W3C//DTD SVG 1.1//EN"
 "http://www.w3.org/Graphics/SVG/1.1/DTD/svg11.dtd">
<!-- Generated by graphviz version 2.38.0 (20140413.2041)
 -->
<!-- Title: src/ModuleConnector.hpp Pages: 1 -->
<svg width="271pt" height="84pt"
 viewBox="0.00 0.00 270.50 84.00" xmlns="http://www.w3.org/2000/svg" xmlns:xlink="http://www.w3.org/1999/xlink">
<g id="graph0" class="graph" transform="scale(1 1) rotate(0) translate(4 80)">
<title>src/ModuleConnector.hpp</title>
<polygon fill="white" stroke="none" points="-4,4 -4,-80 266.5,-80 266.5,4 -4,4"/>
<!-- Node0 -->
<g id="node1" class="node"><title>Node0</title>
<polygon fill="#bfbfbf" stroke="black" points="67.5,-56.5 67.5,-75.5 195.5,-75.5 195.5,-56.5 67.5,-56.5"/>
<text text-anchor="middle" x="131.5" y="-63.5" font-family="Helvetica,sans-Serif" font-size="10.00">src/ModuleConnector.hpp</text>
</g>
<!-- Node1 -->
<g id="node2" class="node"><title>Node1</title>
<polygon fill="white" stroke="#bfbfbf" points="0,-0.5 0,-19.5 61,-19.5 61,-0.5 0,-0.5"/>
<text text-anchor="middle" x="30.5" y="-7.5" font-family="Helvetica,sans-Serif" font-size="10.00">Bytes.hpp</text>
</g>
<!-- Node0&#45;&gt;Node1 -->
<g id="edge1" class="edge"><title>Node0&#45;&gt;Node1</title>
<path fill="none" stroke="midnightblue" d="M115.273,-56.324C99.149,-47.7034 74.1998,-34.3643 55.5359,-24.3855"/>
<polygon fill="midnightblue" stroke="midnightblue" points="57.1561,-21.283 46.6871,-19.6545 53.8556,-27.456 57.1561,-21.283"/>
</g>
<!-- Node2 -->
<g id="node3" class="node"><title>Node2</title>
<polygon fill="white" stroke="#bfbfbf" points="79,-0.5 79,-19.5 120,-19.5 120,-0.5 79,-0.5"/>
<text text-anchor="middle" x="99.5" y="-7.5" font-family="Helvetica,sans-Serif" font-size="10.00">string</text>
</g>
<!-- Node0&#45;&gt;Node2 -->
<g id="edge2" class="edge"><title>Node0&#45;&gt;Node2</title>
<path fill="none" stroke="midnightblue" d="M126.216,-56.083C121.789,-48.6127 115.337,-37.7244 109.882,-28.5199"/>
<polygon fill="midnightblue" stroke="midnightblue" points="112.795,-26.5697 104.686,-19.7511 106.773,-30.1383 112.795,-26.5697"/>
</g>
<!-- Node3 -->
<g id="node4" class="node"><title>Node3</title>
<polygon fill="white" stroke="#bfbfbf" points="138.5,-0.5 138.5,-19.5 190.5,-19.5 190.5,-0.5 138.5,-0.5"/>
<text text-anchor="middle" x="164.5" y="-7.5" font-family="Helvetica,sans-Serif" font-size="10.00">memory</text>
</g>
<!-- Node0&#45;&gt;Node3 -->
<g id="edge3" class="edge"><title>Node0&#45;&gt;Node3</title>
<path fill="none" stroke="midnightblue" d="M136.949,-56.083C141.514,-48.6127 148.168,-37.7244 153.793,-28.5199"/>
<polygon fill="midnightblue" stroke="midnightblue" points="156.924,-30.109 159.152,-19.7511 150.951,-26.4588 156.924,-30.109"/>
</g>
<!-- Node4 -->
<g id="node5" class="node"><title>Node4</title>
<polygon fill="white" stroke="#bfbfbf" points="208.5,-0.5 208.5,-19.5 262.5,-19.5 262.5,-0.5 208.5,-0.5"/>
<text text-anchor="middle" x="235.5" y="-7.5" font-family="Helvetica,sans-Serif" font-size="10.00">iostream</text>
</g>
<!-- Node0&#45;&gt;Node4 -->
<g id="edge4" class="edge"><title>Node0&#45;&gt;Node4</title>
<path fill="none" stroke="midnightblue" d="M148.209,-56.324C164.812,-47.7034 190.502,-34.3643 209.72,-24.3855"/>
<polygon fill="midnightblue" stroke="midnightblue" points="211.57,-27.3689 218.832,-19.6545 208.344,-21.1565 211.57,-27.3689"/>
</g>
</g>
</svg>
