<?xml version="1.0" encoding="UTF-8" standalone="no"?>
<!DOCTYPE svg PUBLIC "-//W3C//DTD SVG 1.1//EN"
 "http://www.w3.org/Graphics/SVG/1.1/DTD/svg11.dtd">
<!-- Generated by graphviz version 2.38.0 (20140413.2041)
 -->
<!-- Title: src/RecordingOptions.hpp Pages: 1 -->
<svg width="259pt" height="140pt"
 viewBox="0.00 0.00 259.00 140.00" xmlns="http://www.w3.org/2000/svg" xmlns:xlink="http://www.w3.org/1999/xlink">
<g id="graph0" class="graph" transform="scale(1 1) rotate(0) translate(4 136)">
<title>src/RecordingOptions.hpp</title>
<polygon fill="white" stroke="none" points="-4,4 -4,-136 255,-136 255,4 -4,4"/>
<!-- Node0 -->
<g id="node1" class="node"><title>Node0</title>
<polygon fill="#bfbfbf" stroke="black" points="97,-112.5 97,-131.5 226,-131.5 226,-112.5 97,-112.5"/>
<text text-anchor="middle" x="161.5" y="-119.5" font-family="Helvetica,sans-Serif" font-size="10.00">src/RecordingOptions.hpp</text>
</g>
<!-- Node1 -->
<g id="node2" class="node"><title>Node1</title>
<g id="a_node2"><a xlink:href="_preferred_split_size_8hpp.xhtml" target="_top" xlink:title="PreferredSplitSize.hpp">
<polygon fill="white" stroke="black" points="0,-56.5 0,-75.5 113,-75.5 113,-56.5 0,-56.5"/>
<text text-anchor="middle" x="56.5" y="-63.5" font-family="Helvetica,sans-Serif" font-size="10.00">PreferredSplitSize.hpp</text>
</a>
</g>
</g>
<!-- Node0&#45;&gt;Node1 -->
<g id="edge1" class="edge"><title>Node0&#45;&gt;Node1</title>
<path fill="none" stroke="midnightblue" d="M144.63,-112.324C127.791,-103.664 101.693,-90.2424 82.262,-80.249"/>
<polygon fill="midnightblue" stroke="midnightblue" points="83.8218,-77.1155 73.3282,-75.6545 80.6204,-83.3405 83.8218,-77.1155"/>
</g>
<!-- Node3 -->
<g id="node4" class="node"><title>Node3</title>
<polygon fill="white" stroke="#bfbfbf" points="131,-56.5 131,-75.5 192,-75.5 192,-56.5 131,-56.5"/>
<text text-anchor="middle" x="161.5" y="-63.5" font-family="Helvetica,sans-Serif" font-size="10.00">Bytes.hpp</text>
</g>
<!-- Node0&#45;&gt;Node3 -->
<g id="edge3" class="edge"><title>Node0&#45;&gt;Node3</title>
<path fill="none" stroke="midnightblue" d="M161.5,-112.083C161.5,-105.006 161.5,-94.8611 161.5,-85.9865"/>
<polygon fill="midnightblue" stroke="midnightblue" points="165,-85.751 161.5,-75.7511 158,-85.7511 165,-85.751"/>
</g>
<!-- Node4 -->
<g id="node5" class="node"><title>Node4</title>
<polygon fill="white" stroke="#bfbfbf" points="210,-56.5 210,-75.5 251,-75.5 251,-56.5 210,-56.5"/>
<text text-anchor="middle" x="230.5" y="-63.5" font-family="Helvetica,sans-Serif" font-size="10.00">string</text>
</g>
<!-- Node0&#45;&gt;Node4 -->
<g id="edge4" class="edge"><title>Node0&#45;&gt;Node4</title>
<path fill="none" stroke="midnightblue" d="M172.586,-112.324C182.986,-104.185 198.761,-91.8395 211.222,-82.0874"/>
<polygon fill="midnightblue" stroke="midnightblue" points="213.494,-84.7533 219.212,-75.8339 209.18,-79.2407 213.494,-84.7533"/>
</g>
<!-- Node2 -->
<g id="node3" class="node"><title>Node2</title>
<polygon fill="white" stroke="#bfbfbf" points="28.5,-0.5 28.5,-19.5 84.5,-19.5 84.5,-0.5 28.5,-0.5"/>
<text text-anchor="middle" x="56.5" y="-7.5" font-family="Helvetica,sans-Serif" font-size="10.00">cinttypes</text>
</g>
<!-- Node1&#45;&gt;Node2 -->
<g id="edge2" class="edge"><title>Node1&#45;&gt;Node2</title>
<path fill="none" stroke="midnightblue" d="M56.5,-56.083C56.5,-49.0059 56.5,-38.8611 56.5,-29.9865"/>
<polygon fill="midnightblue" stroke="midnightblue" points="60.0001,-29.751 56.5,-19.7511 53.0001,-29.7511 60.0001,-29.751"/>
</g>
</g>
</svg>
