<?xml version="1.0" encoding="UTF-8" standalone="no"?>
<!DOCTYPE svg PUBLIC "-//W3C//DTD SVG 1.1//EN"
 "http://www.w3.org/Graphics/SVG/1.1/DTD/svg11.dtd">
<!-- Generated by graphviz version 2.38.0 (20140413.2041)
 -->
<!-- Title: src/RecordingOptions.hpp Pages: 1 -->
<svg width="313pt" height="84pt"
 viewBox="0.00 0.00 313.00 84.00" xmlns="http://www.w3.org/2000/svg" xmlns:xlink="http://www.w3.org/1999/xlink">
<g id="graph0" class="graph" transform="scale(1 1) rotate(0) translate(4 80)">
<title>src/RecordingOptions.hpp</title>
<polygon fill="white" stroke="none" points="-4,4 -4,-80 309,-80 309,4 -4,4"/>
<!-- Node5 -->
<g id="node1" class="node"><title>Node5</title>
<polygon fill="#bfbfbf" stroke="black" points="108,-56.5 108,-75.5 237,-75.5 237,-56.5 108,-56.5"/>
<text text-anchor="middle" x="172.5" y="-63.5" font-family="Helvetica,sans-Serif" font-size="10.00">src/RecordingOptions.hpp</text>
</g>
<!-- Node6 -->
<g id="node2" class="node"><title>Node6</title>
<g id="a_node2"><a xlink:href="_data_recorder_8hpp.xhtml" target="_top" xlink:title="src/DataRecorder.hpp">
<polygon fill="white" stroke="black" points="0,-0.5 0,-19.5 111,-19.5 111,-0.5 0,-0.5"/>
<text text-anchor="middle" x="55.5" y="-7.5" font-family="Helvetica,sans-Serif" font-size="10.00">src/DataRecorder.hpp</text>
</a>
</g>
</g>
<!-- Node5&#45;&gt;Node6 -->
<g id="edge1" class="edge"><title>Node5&#45;&gt;Node6</title>
<path fill="none" stroke="midnightblue" d="M144.836,-52.2321C122.951,-42.1312 93.0032,-28.3091 73.9523,-19.5164"/>
<polygon fill="midnightblue" stroke="midnightblue" points="143.415,-55.4308 153.961,-56.4435 146.348,-49.075 143.415,-55.4308"/>
</g>
<!-- Node7 -->
<g id="node3" class="node"><title>Node7</title>
<g id="a_node3"><a xlink:href="_x2_m200_8hpp.xhtml" target="_top" xlink:title="src/X2M200.hpp">
<polygon fill="white" stroke="black" points="129.5,-0.5 129.5,-19.5 215.5,-19.5 215.5,-0.5 129.5,-0.5"/>
<text text-anchor="middle" x="172.5" y="-7.5" font-family="Helvetica,sans-Serif" font-size="10.00">src/X2M200.hpp</text>
</a>
</g>
</g>
<!-- Node5&#45;&gt;Node7 -->
<g id="edge2" class="edge"><title>Node5&#45;&gt;Node7</title>
<path fill="none" stroke="midnightblue" d="M172.5,-45.8045C172.5,-36.9102 172.5,-26.7798 172.5,-19.7511"/>
<polygon fill="midnightblue" stroke="midnightblue" points="169,-46.083 172.5,-56.083 176,-46.083 169,-46.083"/>
</g>
<!-- Node8 -->
<g id="node4" class="node"><title>Node8</title>
<g id="a_node4"><a xlink:href="_x_e_p_8hpp.xhtml" target="_top" xlink:title="src/XEP.hpp">
<polygon fill="white" stroke="black" points="234,-0.5 234,-19.5 305,-19.5 305,-0.5 234,-0.5"/>
<text text-anchor="middle" x="269.5" y="-7.5" font-family="Helvetica,sans-Serif" font-size="10.00">src/XEP.hpp</text>
</a>
</g>
</g>
<!-- Node5&#45;&gt;Node8 -->
<g id="edge3" class="edge"><title>Node5&#45;&gt;Node8</title>
<path fill="none" stroke="midnightblue" d="M196.835,-51.4526C214.743,-41.4835 238.554,-28.2279 253.954,-19.6545"/>
<polygon fill="midnightblue" stroke="midnightblue" points="195.12,-48.4018 188.085,-56.324 198.525,-54.5179 195.12,-48.4018"/>
</g>
</g>
</svg>
