<?xml version="1.0" encoding="UTF-8" standalone="no"?>
<!DOCTYPE svg PUBLIC "-//W3C//DTD SVG 1.1//EN"
 "http://www.w3.org/Graphics/SVG/1.1/DTD/svg11.dtd">
<!-- Generated by graphviz version 2.38.0 (20140413.2041)
 -->
<!-- Title: src/X4M300.hpp Pages: 1 -->
<svg width="478pt" height="196pt"
 viewBox="0.00 0.00 477.50 196.00" xmlns="http://www.w3.org/2000/svg" xmlns:xlink="http://www.w3.org/1999/xlink">
<g id="graph0" class="graph" transform="scale(1 1) rotate(0) translate(4 192)">
<title>src/X4M300.hpp</title>
<polygon fill="white" stroke="none" points="-4,4 -4,-192 473.5,-192 473.5,4 -4,4"/>
<!-- Node0 -->
<g id="node1" class="node"><title>Node0</title>
<polygon fill="#bfbfbf" stroke="black" points="212.5,-168.5 212.5,-187.5 298.5,-187.5 298.5,-168.5 212.5,-168.5"/>
<text text-anchor="middle" x="255.5" y="-175.5" font-family="Helvetica,sans-Serif" font-size="10.00">src/X4M300.hpp</text>
</g>
<!-- Node1 -->
<g id="node2" class="node"><title>Node1</title>
<polygon fill="white" stroke="#bfbfbf" points="0,-112.5 0,-131.5 115,-131.5 115,-112.5 0,-112.5"/>
<text text-anchor="middle" x="57.5" y="-119.5" font-family="Helvetica,sans-Serif" font-size="10.00">NotSupportedData.hpp</text>
</g>
<!-- Node0&#45;&gt;Node1 -->
<g id="edge1" class="edge"><title>Node0&#45;&gt;Node1</title>
<path fill="none" stroke="midnightblue" d="M224.126,-168.444C190.237,-159.201 136.097,-144.436 98.7764,-134.257"/>
<polygon fill="midnightblue" stroke="midnightblue" points="99.2955,-130.771 88.7269,-131.516 97.4536,-137.524 99.2955,-130.771"/>
</g>
<!-- Node2 -->
<g id="node3" class="node"><title>Node2</title>
<g id="a_node3"><a xlink:href="_data_8hpp.xhtml" target="_top" xlink:title="Data.hpp">
<polygon fill="white" stroke="black" points="171.5,-112.5 171.5,-131.5 227.5,-131.5 227.5,-112.5 171.5,-112.5"/>
<text text-anchor="middle" x="199.5" y="-119.5" font-family="Helvetica,sans-Serif" font-size="10.00">Data.hpp</text>
</a>
</g>
</g>
<!-- Node0&#45;&gt;Node2 -->
<g id="edge2" class="edge"><title>Node0&#45;&gt;Node2</title>
<path fill="none" stroke="midnightblue" d="M246.503,-168.324C238.306,-160.42 225.994,-148.548 216.028,-138.938"/>
<polygon fill="midnightblue" stroke="midnightblue" points="218.289,-136.256 208.661,-131.834 213.43,-141.295 218.289,-136.256"/>
</g>
<!-- Node3 -->
<g id="node4" class="node"><title>Node3</title>
<polygon fill="white" stroke="#bfbfbf" points="86,-56.5 86,-75.5 147,-75.5 147,-56.5 86,-56.5"/>
<text text-anchor="middle" x="116.5" y="-63.5" font-family="Helvetica,sans-Serif" font-size="10.00">Bytes.hpp</text>
</g>
<!-- Node0&#45;&gt;Node3 -->
<g id="edge7" class="edge"><title>Node0&#45;&gt;Node3</title>
<path fill="none" stroke="midnightblue" d="M229.402,-168.437C209.545,-161.014 182.345,-148.81 162.5,-132 146.73,-118.641 133.691,-98.7176 125.571,-84.4526"/>
<polygon fill="midnightblue" stroke="midnightblue" points="128.622,-82.7364 120.763,-75.631 122.476,-86.0865 128.622,-82.7364"/>
</g>
<!-- Node4 -->
<g id="node5" class="node"><title>Node4</title>
<polygon fill="white" stroke="#bfbfbf" points="251.5,-56.5 251.5,-75.5 293.5,-75.5 293.5,-56.5 251.5,-56.5"/>
<text text-anchor="middle" x="272.5" y="-63.5" font-family="Helvetica,sans-Serif" font-size="10.00">vector</text>
</g>
<!-- Node0&#45;&gt;Node4 -->
<g id="edge10" class="edge"><title>Node0&#45;&gt;Node4</title>
<path fill="none" stroke="midnightblue" d="M256.834,-168.368C259.577,-150.617 265.906,-109.666 269.626,-85.5974"/>
<polygon fill="midnightblue" stroke="midnightblue" points="273.104,-86.0087 271.172,-75.5914 266.186,-84.9395 273.104,-86.0087"/>
</g>
<!-- Node7 -->
<g id="node8" class="node"><title>Node7</title>
<polygon fill="white" stroke="#bfbfbf" points="283.5,-112.5 283.5,-131.5 339.5,-131.5 339.5,-112.5 283.5,-112.5"/>
<text text-anchor="middle" x="311.5" y="-119.5" font-family="Helvetica,sans-Serif" font-size="10.00">cinttypes</text>
</g>
<!-- Node0&#45;&gt;Node7 -->
<g id="edge8" class="edge"><title>Node0&#45;&gt;Node7</title>
<path fill="none" stroke="midnightblue" d="M264.497,-168.324C272.694,-160.42 285.006,-148.548 294.972,-138.938"/>
<polygon fill="midnightblue" stroke="midnightblue" points="297.57,-141.295 302.339,-131.834 292.711,-136.256 297.57,-141.295"/>
</g>
<!-- Node8 -->
<g id="node9" class="node"><title>Node8</title>
<polygon fill="white" stroke="#bfbfbf" points="358,-112.5 358,-131.5 399,-131.5 399,-112.5 358,-112.5"/>
<text text-anchor="middle" x="378.5" y="-119.5" font-family="Helvetica,sans-Serif" font-size="10.00">string</text>
</g>
<!-- Node0&#45;&gt;Node8 -->
<g id="edge9" class="edge"><title>Node0&#45;&gt;Node8</title>
<path fill="none" stroke="midnightblue" d="M274.99,-168.444C295.142,-159.596 326.823,-145.687 349.831,-135.586"/>
<polygon fill="midnightblue" stroke="midnightblue" points="351.352,-138.741 359.101,-131.516 348.538,-132.332 351.352,-138.741"/>
</g>
<!-- Node9 -->
<g id="node10" class="node"><title>Node9</title>
<polygon fill="white" stroke="#bfbfbf" points="417.5,-112.5 417.5,-131.5 469.5,-131.5 469.5,-112.5 417.5,-112.5"/>
<text text-anchor="middle" x="443.5" y="-119.5" font-family="Helvetica,sans-Serif" font-size="10.00">memory</text>
</g>
<!-- Node0&#45;&gt;Node9 -->
<g id="edge11" class="edge"><title>Node0&#45;&gt;Node9</title>
<path fill="none" stroke="midnightblue" d="M285.289,-168.444C318.46,-158.916 372.065,-143.519 407.543,-133.328"/>
<polygon fill="midnightblue" stroke="midnightblue" points="408.838,-136.598 417.483,-130.473 406.905,-129.87 408.838,-136.598"/>
</g>
<!-- Node2&#45;&gt;Node3 -->
<g id="edge3" class="edge"><title>Node2&#45;&gt;Node3</title>
<path fill="none" stroke="midnightblue" d="M186.165,-112.324C173.338,-103.979 153.715,-91.2122 138.56,-81.3524"/>
<polygon fill="midnightblue" stroke="midnightblue" points="140.093,-78.1742 129.802,-75.6545 136.276,-84.0417 140.093,-78.1742"/>
</g>
<!-- Node2&#45;&gt;Node4 -->
<g id="edge4" class="edge"><title>Node2&#45;&gt;Node4</title>
<path fill="none" stroke="midnightblue" d="M211.229,-112.324C222.337,-104.107 239.242,-91.6017 252.483,-81.8069"/>
<polygon fill="midnightblue" stroke="midnightblue" points="254.6,-84.5948 260.558,-75.8339 250.437,-78.9671 254.6,-84.5948"/>
</g>
<!-- Node5 -->
<g id="node6" class="node"><title>Node5</title>
<g id="a_node6"><a xlink:href="datatypes_8h.xhtml" target="_top" xlink:title="datatypes.h">
<polygon fill="white" stroke="black" points="165.5,-56.5 165.5,-75.5 233.5,-75.5 233.5,-56.5 165.5,-56.5"/>
<text text-anchor="middle" x="199.5" y="-63.5" font-family="Helvetica,sans-Serif" font-size="10.00">datatypes.h</text>
</a>
</g>
</g>
<!-- Node2&#45;&gt;Node5 -->
<g id="edge5" class="edge"><title>Node2&#45;&gt;Node5</title>
<path fill="none" stroke="midnightblue" d="M199.5,-112.083C199.5,-105.006 199.5,-94.8611 199.5,-85.9865"/>
<polygon fill="midnightblue" stroke="midnightblue" points="203,-85.751 199.5,-75.7511 196,-85.7511 203,-85.751"/>
</g>
<!-- Node6 -->
<g id="node7" class="node"><title>Node6</title>
<polygon fill="white" stroke="#bfbfbf" points="175,-0.5 175,-19.5 224,-19.5 224,-0.5 175,-0.5"/>
<text text-anchor="middle" x="199.5" y="-7.5" font-family="Helvetica,sans-Serif" font-size="10.00">stdint.h</text>
</g>
<!-- Node5&#45;&gt;Node6 -->
<g id="edge6" class="edge"><title>Node5&#45;&gt;Node6</title>
<path fill="none" stroke="midnightblue" d="M199.5,-56.083C199.5,-49.0059 199.5,-38.8611 199.5,-29.9865"/>
<polygon fill="midnightblue" stroke="midnightblue" points="203,-29.751 199.5,-19.7511 196,-29.7511 203,-29.751"/>
</g>
</g>
</svg>
