<?xml version="1.0" encoding="UTF-8" standalone="no"?>
<!DOCTYPE svg PUBLIC "-//W3C//DTD SVG 1.1//EN"
 "http://www.w3.org/Graphics/SVG/1.1/DTD/svg11.dtd">
<!-- Generated by graphviz version 2.38.0 (20140413.2041)
 -->
<!-- Title: src/Data.hpp Pages: 1 -->
<svg width="216pt" height="140pt"
 viewBox="0.00 0.00 215.50 140.00" xmlns="http://www.w3.org/2000/svg" xmlns:xlink="http://www.w3.org/1999/xlink">
<g id="graph0" class="graph" transform="scale(1 1) rotate(0) translate(4 136)">
<title>src/Data.hpp</title>
<polygon fill="white" stroke="none" points="-4,4 -4,-136 211.5,-136 211.5,4 -4,4"/>
<!-- Node0 -->
<g id="node1" class="node"><title>Node0</title>
<polygon fill="#bfbfbf" stroke="black" points="64.5,-112.5 64.5,-131.5 136.5,-131.5 136.5,-112.5 64.5,-112.5"/>
<text text-anchor="middle" x="100.5" y="-119.5" font-family="Helvetica,sans-Serif" font-size="10.00">src/Data.hpp</text>
</g>
<!-- Node1 -->
<g id="node2" class="node"><title>Node1</title>
<polygon fill="white" stroke="#bfbfbf" points="0,-56.5 0,-75.5 61,-75.5 61,-56.5 0,-56.5"/>
<text text-anchor="middle" x="30.5" y="-63.5" font-family="Helvetica,sans-Serif" font-size="10.00">Bytes.hpp</text>
</g>
<!-- Node0&#45;&gt;Node1 -->
<g id="edge1" class="edge"><title>Node0&#45;&gt;Node1</title>
<path fill="none" stroke="midnightblue" d="M89.2533,-112.324C78.7026,-104.185 62.6993,-91.8395 50.0578,-82.0874"/>
<polygon fill="midnightblue" stroke="midnightblue" points="52.007,-79.1707 41.9513,-75.8339 47.7314,-84.7132 52.007,-79.1707"/>
</g>
<!-- Node2 -->
<g id="node3" class="node"><title>Node2</title>
<polygon fill="white" stroke="#bfbfbf" points="79.5,-56.5 79.5,-75.5 121.5,-75.5 121.5,-56.5 79.5,-56.5"/>
<text text-anchor="middle" x="100.5" y="-63.5" font-family="Helvetica,sans-Serif" font-size="10.00">vector</text>
</g>
<!-- Node0&#45;&gt;Node2 -->
<g id="edge2" class="edge"><title>Node0&#45;&gt;Node2</title>
<path fill="none" stroke="midnightblue" d="M100.5,-112.083C100.5,-105.006 100.5,-94.8611 100.5,-85.9865"/>
<polygon fill="midnightblue" stroke="midnightblue" points="104,-85.751 100.5,-75.7511 97.0001,-85.7511 104,-85.751"/>
</g>
<!-- Node3 -->
<g id="node4" class="node"><title>Node3</title>
<g id="a_node4"><a xlink:href="datatypes_8h.xhtml" target="_top" xlink:title="datatypes.h">
<polygon fill="white" stroke="black" points="139.5,-56.5 139.5,-75.5 207.5,-75.5 207.5,-56.5 139.5,-56.5"/>
<text text-anchor="middle" x="173.5" y="-63.5" font-family="Helvetica,sans-Serif" font-size="10.00">datatypes.h</text>
</a>
</g>
</g>
<!-- Node0&#45;&gt;Node3 -->
<g id="edge3" class="edge"><title>Node0&#45;&gt;Node3</title>
<path fill="none" stroke="midnightblue" d="M112.229,-112.324C123.337,-104.107 140.242,-91.6017 153.483,-81.8069"/>
<polygon fill="midnightblue" stroke="midnightblue" points="155.6,-84.5948 161.558,-75.8339 151.437,-78.9671 155.6,-84.5948"/>
</g>
<!-- Node4 -->
<g id="node5" class="node"><title>Node4</title>
<polygon fill="white" stroke="#bfbfbf" points="149,-0.5 149,-19.5 198,-19.5 198,-0.5 149,-0.5"/>
<text text-anchor="middle" x="173.5" y="-7.5" font-family="Helvetica,sans-Serif" font-size="10.00">stdint.h</text>
</g>
<!-- Node3&#45;&gt;Node4 -->
<g id="edge4" class="edge"><title>Node3&#45;&gt;Node4</title>
<path fill="none" stroke="midnightblue" d="M173.5,-56.083C173.5,-49.0059 173.5,-38.8611 173.5,-29.9865"/>
<polygon fill="midnightblue" stroke="midnightblue" points="177,-29.751 173.5,-19.7511 170,-29.7511 177,-29.751"/>
</g>
</g>
</svg>
