<?xml version="1.0" encoding="UTF-8" standalone="no"?>
<!DOCTYPE svg PUBLIC "-//W3C//DTD SVG 1.1//EN"
 "http://www.w3.org/Graphics/SVG/1.1/DTD/svg11.dtd">
<!-- Generated by graphviz version 2.38.0 (20140413.2041)
 -->
<!-- Title: src/DataRecorder.hpp Pages: 1 -->
<svg width="757pt" height="229pt"
 viewBox="0.00 0.00 756.50 229.00" xmlns="http://www.w3.org/2000/svg" xmlns:xlink="http://www.w3.org/1999/xlink">
<g id="graph0" class="graph" transform="scale(1 1) rotate(0) translate(4 225)">
<title>src/DataRecorder.hpp</title>
<polygon fill="white" stroke="none" points="-4,4 -4,-225 752.5,-225 752.5,4 -4,4"/>
<!-- Node0 -->
<g id="node1" class="node"><title>Node0</title>
<polygon fill="#bfbfbf" stroke="black" points="325,-201.5 325,-220.5 436,-220.5 436,-201.5 325,-201.5"/>
<text text-anchor="middle" x="380.5" y="-208.5" font-family="Helvetica,sans-Serif" font-size="10.00">src/DataRecorder.hpp</text>
</g>
<!-- Node1 -->
<g id="node2" class="node"><title>Node1</title>
<polygon fill="white" stroke="#bfbfbf" points="0,-129 0,-148 115,-148 115,-129 0,-129"/>
<text text-anchor="middle" x="57.5" y="-136" font-family="Helvetica,sans-Serif" font-size="10.00">NotSupportedData.hpp</text>
</g>
<!-- Node0&#45;&gt;Node1 -->
<g id="edge1" class="edge"><title>Node0&#45;&gt;Node1</title>
<path fill="none" stroke="midnightblue" d="M324.897,-203.324C272.584,-196.318 192.368,-183.698 124.5,-165 111.751,-161.488 98.0436,-156.498 86.3693,-151.863"/>
<polygon fill="midnightblue" stroke="midnightblue" points="87.6883,-148.621 77.1067,-148.093 85.0493,-155.105 87.6883,-148.621"/>
</g>
<!-- Node2 -->
<g id="node3" class="node"><title>Node2</title>
<polygon fill="white" stroke="#bfbfbf" points="133.5,-112.5 133.5,-164.5 273.5,-164.5 273.5,-112.5 133.5,-112.5"/>
<text text-anchor="start" x="141.5" y="-152.5" font-family="Helvetica,sans-Serif" font-size="10.00">C:/jenkins/workspace</text>
<text text-anchor="start" x="141.5" y="-141.5" font-family="Helvetica,sans-Serif" font-size="10.00">/gen_XTSW_radar_com_thin</text>
<text text-anchor="start" x="141.5" y="-130.5" font-family="Helvetica,sans-Serif" font-size="10.00">_win32_release/radar_com</text>
<text text-anchor="middle" x="203.5" y="-119.5" font-family="Helvetica,sans-Serif" font-size="10.00">/src/datatypes.h</text>
</g>
<!-- Node0&#45;&gt;Node2 -->
<g id="edge2" class="edge"><title>Node0&#45;&gt;Node2</title>
<path fill="none" stroke="midnightblue" d="M359.15,-201.496C338.491,-193.268 305.989,-180.322 276.017,-168.384"/>
<polygon fill="midnightblue" stroke="midnightblue" points="276.979,-164.999 266.393,-164.551 274.388,-171.503 276.979,-164.999"/>
</g>
<!-- Node3 -->
<g id="node4" class="node"><title>Node3</title>
<polygon fill="white" stroke="#bfbfbf" points="291.5,-129 291.5,-148 333.5,-148 333.5,-129 291.5,-129"/>
<text text-anchor="middle" x="312.5" y="-136" font-family="Helvetica,sans-Serif" font-size="10.00">vector</text>
</g>
<!-- Node0&#45;&gt;Node3 -->
<g id="edge3" class="edge"><title>Node0&#45;&gt;Node3</title>
<path fill="none" stroke="midnightblue" d="M372.162,-201.355C361.252,-190.044 341.914,-169.996 328.215,-155.792"/>
<polygon fill="midnightblue" stroke="midnightblue" points="330.368,-152.983 320.906,-148.215 325.33,-157.843 330.368,-152.983"/>
</g>
<!-- Node4 -->
<g id="node5" class="node"><title>Node4</title>
<polygon fill="white" stroke="#bfbfbf" points="351.5,-129 351.5,-148 409.5,-148 409.5,-129 351.5,-129"/>
<text text-anchor="middle" x="380.5" y="-136" font-family="Helvetica,sans-Serif" font-size="10.00">functional</text>
</g>
<!-- Node0&#45;&gt;Node4 -->
<g id="edge4" class="edge"><title>Node0&#45;&gt;Node4</title>
<path fill="none" stroke="midnightblue" d="M380.5,-201.355C380.5,-190.679 380.5,-172.217 380.5,-158.234"/>
<polygon fill="midnightblue" stroke="midnightblue" points="384,-158.215 380.5,-148.215 377,-158.215 384,-158.215"/>
</g>
<!-- Node5 -->
<g id="node6" class="node"><title>Node5</title>
<g id="a_node6"><a xlink:href="_recording_options_8hpp.xhtml" target="_top" xlink:title="RecordingOptions.hpp">
<polygon fill="white" stroke="black" points="428,-129 428,-148 541,-148 541,-129 428,-129"/>
<text text-anchor="middle" x="484.5" y="-136" font-family="Helvetica,sans-Serif" font-size="10.00">RecordingOptions.hpp</text>
</a>
</g>
</g>
<!-- Node0&#45;&gt;Node5 -->
<g id="edge5" class="edge"><title>Node0&#45;&gt;Node5</title>
<path fill="none" stroke="midnightblue" d="M393.252,-201.355C410.718,-189.516 442.306,-168.103 463.344,-153.841"/>
<polygon fill="midnightblue" stroke="midnightblue" points="465.33,-156.724 471.643,-148.215 461.402,-150.929 465.33,-156.724"/>
</g>
<!-- Node10 -->
<g id="node11" class="node"><title>Node10</title>
<polygon fill="white" stroke="#bfbfbf" points="559,-129 559,-148 686,-148 686,-129 559,-129"/>
<text text-anchor="middle" x="622.5" y="-136" font-family="Helvetica,sans-Serif" font-size="10.00">LockedRadarForward.hpp</text>
</g>
<!-- Node0&#45;&gt;Node10 -->
<g id="edge10" class="edge"><title>Node0&#45;&gt;Node10</title>
<path fill="none" stroke="midnightblue" d="M416.23,-201.443C450.798,-192.953 504.556,-179.191 550.5,-165 563.697,-160.924 578.074,-155.943 590.486,-151.469"/>
<polygon fill="midnightblue" stroke="midnightblue" points="591.762,-154.729 599.959,-148.017 589.365,-148.153 591.762,-154.729"/>
</g>
<!-- Node11 -->
<g id="node12" class="node"><title>Node11</title>
<polygon fill="white" stroke="#bfbfbf" points="704.5,-129 704.5,-148 748.5,-148 748.5,-129 704.5,-129"/>
<text text-anchor="middle" x="726.5" y="-136" font-family="Helvetica,sans-Serif" font-size="10.00">mutex</text>
</g>
<!-- Node0&#45;&gt;Node11 -->
<g id="edge11" class="edge"><title>Node0&#45;&gt;Node11</title>
<path fill="none" stroke="midnightblue" d="M436.246,-205.675C513.898,-199.035 650.194,-184.968 695.5,-165 701.08,-162.541 706.467,-158.784 711.141,-154.903"/>
<polygon fill="midnightblue" stroke="midnightblue" points="713.639,-157.362 718.672,-148.039 708.924,-152.188 713.639,-157.362"/>
</g>
<!-- Node6 -->
<g id="node7" class="node"><title>Node6</title>
<g id="a_node7"><a xlink:href="_preferred_split_size_8hpp.xhtml" target="_top" xlink:title="PreferredSplitSize.hpp">
<polygon fill="white" stroke="black" points="323,-56.5 323,-75.5 436,-75.5 436,-56.5 323,-56.5"/>
<text text-anchor="middle" x="379.5" y="-63.5" font-family="Helvetica,sans-Serif" font-size="10.00">PreferredSplitSize.hpp</text>
</a>
</g>
</g>
<!-- Node5&#45;&gt;Node6 -->
<g id="edge6" class="edge"><title>Node5&#45;&gt;Node6</title>
<path fill="none" stroke="midnightblue" d="M471.625,-128.855C453.992,-117.016 422.1,-95.603 400.859,-81.3411"/>
<polygon fill="midnightblue" stroke="midnightblue" points="402.734,-78.384 392.48,-75.7154 398.832,-84.1956 402.734,-78.384"/>
</g>
<!-- Node8 -->
<g id="node9" class="node"><title>Node8</title>
<polygon fill="white" stroke="#bfbfbf" points="454,-56.5 454,-75.5 515,-75.5 515,-56.5 454,-56.5"/>
<text text-anchor="middle" x="484.5" y="-63.5" font-family="Helvetica,sans-Serif" font-size="10.00">Bytes.hpp</text>
</g>
<!-- Node5&#45;&gt;Node8 -->
<g id="edge8" class="edge"><title>Node5&#45;&gt;Node8</title>
<path fill="none" stroke="midnightblue" d="M484.5,-128.855C484.5,-118.179 484.5,-99.7167 484.5,-85.7343"/>
<polygon fill="midnightblue" stroke="midnightblue" points="488,-85.7154 484.5,-75.7154 481,-85.7154 488,-85.7154"/>
</g>
<!-- Node9 -->
<g id="node10" class="node"><title>Node9</title>
<polygon fill="white" stroke="#bfbfbf" points="533,-56.5 533,-75.5 574,-75.5 574,-56.5 533,-56.5"/>
<text text-anchor="middle" x="553.5" y="-63.5" font-family="Helvetica,sans-Serif" font-size="10.00">string</text>
</g>
<!-- Node5&#45;&gt;Node9 -->
<g id="edge9" class="edge"><title>Node5&#45;&gt;Node9</title>
<path fill="none" stroke="midnightblue" d="M492.961,-128.855C504.135,-117.439 524.021,-97.1203 537.942,-82.8957"/>
<polygon fill="midnightblue" stroke="midnightblue" points="540.477,-85.3102 544.97,-75.7154 535.474,-80.414 540.477,-85.3102"/>
</g>
<!-- Node7 -->
<g id="node8" class="node"><title>Node7</title>
<polygon fill="white" stroke="#bfbfbf" points="351.5,-0.5 351.5,-19.5 407.5,-19.5 407.5,-0.5 351.5,-0.5"/>
<text text-anchor="middle" x="379.5" y="-7.5" font-family="Helvetica,sans-Serif" font-size="10.00">cinttypes</text>
</g>
<!-- Node6&#45;&gt;Node7 -->
<g id="edge7" class="edge"><title>Node6&#45;&gt;Node7</title>
<path fill="none" stroke="midnightblue" d="M379.5,-56.083C379.5,-49.0059 379.5,-38.8611 379.5,-29.9865"/>
<polygon fill="midnightblue" stroke="midnightblue" points="383,-29.751 379.5,-19.7511 376,-29.7511 383,-29.751"/>
</g>
</g>
</svg>
