<?xml version="1.0" encoding="UTF-8" standalone="no"?>
<!DOCTYPE svg PUBLIC "-//W3C//DTD SVG 1.1//EN"
 "http://www.w3.org/Graphics/SVG/1.1/DTD/svg11.dtd">
<!-- Generated by graphviz version 2.38.0 (20140413.2041)
 -->
<!-- Title: src/Data.hpp Pages: 1 -->
<svg width="409pt" height="84pt"
 viewBox="0.00 0.00 409.00 84.00" xmlns="http://www.w3.org/2000/svg" xmlns:xlink="http://www.w3.org/1999/xlink">
<g id="graph0" class="graph" transform="scale(1 1) rotate(0) translate(4 80)">
<title>src/Data.hpp</title>
<polygon fill="white" stroke="none" points="-4,4 -4,-80 405,-80 405,4 -4,4"/>
<!-- Node5 -->
<g id="node1" class="node"><title>Node5</title>
<polygon fill="#bfbfbf" stroke="black" points="180.5,-56.5 180.5,-75.5 252.5,-75.5 252.5,-56.5 180.5,-56.5"/>
<text text-anchor="middle" x="216.5" y="-63.5" font-family="Helvetica,sans-Serif" font-size="10.00">src/Data.hpp</text>
</g>
<!-- Node6 -->
<g id="node2" class="node"><title>Node6</title>
<g id="a_node2"><a xlink:href="_data_reader_8hpp.xhtml" target="_top" xlink:title="src/DataReader.hpp">
<polygon fill="white" stroke="black" points="0,-0.5 0,-19.5 103,-19.5 103,-0.5 0,-0.5"/>
<text text-anchor="middle" x="51.5" y="-7.5" font-family="Helvetica,sans-Serif" font-size="10.00">src/DataReader.hpp</text>
</a>
</g>
</g>
<!-- Node5&#45;&gt;Node6 -->
<g id="edge1" class="edge"><title>Node5&#45;&gt;Node6</title>
<path fill="none" stroke="midnightblue" d="M180.764,-53.3044C149.673,-43.1294 105.353,-28.6246 77.5224,-19.5164"/>
<polygon fill="midnightblue" stroke="midnightblue" points="179.763,-56.6595 190.355,-56.4435 181.94,-50.0067 179.763,-56.6595"/>
</g>
<!-- Node7 -->
<g id="node3" class="node"><title>Node7</title>
<g id="a_node3"><a xlink:href="_x2_m200_8hpp.xhtml" target="_top" xlink:title="src/X2M200.hpp">
<polygon fill="white" stroke="black" points="121.5,-0.5 121.5,-19.5 207.5,-19.5 207.5,-0.5 121.5,-0.5"/>
<text text-anchor="middle" x="164.5" y="-7.5" font-family="Helvetica,sans-Serif" font-size="10.00">src/X2M200.hpp</text>
</a>
</g>
</g>
<!-- Node5&#45;&gt;Node7 -->
<g id="edge2" class="edge"><title>Node5&#45;&gt;Node7</title>
<path fill="none" stroke="midnightblue" d="M200.821,-48.7175C191.655,-39.1997 180.447,-27.5608 172.927,-19.7511"/>
<polygon fill="midnightblue" stroke="midnightblue" points="198.456,-51.3075 207.913,-56.083 203.498,-46.452 198.456,-51.3075"/>
</g>
<!-- Node8 -->
<g id="node4" class="node"><title>Node8</title>
<g id="a_node4"><a xlink:href="_x4_m300_8hpp.xhtml" target="_top" xlink:title="src/X4M300.hpp">
<polygon fill="white" stroke="black" points="225.5,-0.5 225.5,-19.5 311.5,-19.5 311.5,-0.5 225.5,-0.5"/>
<text text-anchor="middle" x="268.5" y="-7.5" font-family="Helvetica,sans-Serif" font-size="10.00">src/X4M300.hpp</text>
</a>
</g>
</g>
<!-- Node5&#45;&gt;Node8 -->
<g id="edge3" class="edge"><title>Node5&#45;&gt;Node8</title>
<path fill="none" stroke="midnightblue" d="M232.179,-48.7175C241.345,-39.1997 252.553,-27.5608 260.073,-19.7511"/>
<polygon fill="midnightblue" stroke="midnightblue" points="229.502,-46.452 225.087,-56.083 234.544,-51.3075 229.502,-46.452"/>
</g>
<!-- Node9 -->
<g id="node5" class="node"><title>Node9</title>
<g id="a_node5"><a xlink:href="_x_e_p_8hpp.xhtml" target="_top" xlink:title="src/XEP.hpp">
<polygon fill="white" stroke="black" points="330,-0.5 330,-19.5 401,-19.5 401,-0.5 330,-0.5"/>
<text text-anchor="middle" x="365.5" y="-7.5" font-family="Helvetica,sans-Serif" font-size="10.00">src/XEP.hpp</text>
</a>
</g>
</g>
<!-- Node5&#45;&gt;Node9 -->
<g id="edge4" class="edge"><title>Node5&#45;&gt;Node9</title>
<path fill="none" stroke="midnightblue" d="M249.871,-52.9058C277.884,-42.7536 317.196,-28.5063 342.001,-19.5164"/>
<polygon fill="midnightblue" stroke="midnightblue" points="248.319,-49.7456 240.109,-56.4435 250.704,-56.3267 248.319,-49.7456"/>
</g>
</g>
</svg>
