<?xml version="1.0" encoding="UTF-8" standalone="no"?>
<!DOCTYPE svg PUBLIC "-//W3C//DTD SVG 1.1//EN"
 "http://www.w3.org/Graphics/SVG/1.1/DTD/svg11.dtd">
<!-- Generated by graphviz version 2.38.0 (20140413.2041)
 -->
<!-- Title: src/X2M200.hpp Pages: 1 -->
<svg width="604pt" height="196pt"
 viewBox="0.00 0.00 604.00 196.00" xmlns="http://www.w3.org/2000/svg" xmlns:xlink="http://www.w3.org/1999/xlink">
<g id="graph0" class="graph" transform="scale(1 1) rotate(0) translate(4 192)">
<title>src/X2M200.hpp</title>
<polygon fill="white" stroke="none" points="-4,4 -4,-192 600,-192 600,4 -4,4"/>
<!-- Node0 -->
<g id="node1" class="node"><title>Node0</title>
<polygon fill="#bfbfbf" stroke="black" points="274,-168.5 274,-187.5 360,-187.5 360,-168.5 274,-168.5"/>
<text text-anchor="middle" x="317" y="-175.5" font-family="Helvetica,sans-Serif" font-size="10.00">src/X2M200.hpp</text>
</g>
<!-- Node1 -->
<g id="node2" class="node"><title>Node1</title>
<polygon fill="white" stroke="#bfbfbf" points="146.5,-56.5 146.5,-75.5 207.5,-75.5 207.5,-56.5 146.5,-56.5"/>
<text text-anchor="middle" x="177" y="-63.5" font-family="Helvetica,sans-Serif" font-size="10.00">Bytes.hpp</text>
</g>
<!-- Node0&#45;&gt;Node1 -->
<g id="edge1" class="edge"><title>Node0&#45;&gt;Node1</title>
<path fill="none" stroke="midnightblue" d="M273.697,-174.67C243.041,-170.549 203.666,-159.749 182,-132 171.887,-119.048 171.637,-99.8801 173.315,-85.7129"/>
<polygon fill="midnightblue" stroke="midnightblue" points="176.803,-86.064 174.923,-75.6374 169.891,-84.961 176.803,-86.064"/>
</g>
<!-- Node2 -->
<g id="node3" class="node"><title>Node2</title>
<g id="a_node3"><a xlink:href="_data_8hpp.xhtml" target="_top" xlink:title="Data.hpp">
<polygon fill="white" stroke="black" points="79,-112.5 79,-131.5 135,-131.5 135,-112.5 79,-112.5"/>
<text text-anchor="middle" x="107" y="-119.5" font-family="Helvetica,sans-Serif" font-size="10.00">Data.hpp</text>
</a>
</g>
</g>
<!-- Node0&#45;&gt;Node2 -->
<g id="edge2" class="edge"><title>Node0&#45;&gt;Node2</title>
<path fill="none" stroke="midnightblue" d="M283.725,-168.444C245.956,-158.731 184.47,-142.921 144.888,-132.743"/>
<polygon fill="midnightblue" stroke="midnightblue" points="145.636,-129.321 135.079,-130.22 143.892,-136.101 145.636,-129.321"/>
</g>
<!-- Node6 -->
<g id="node7" class="node"><title>Node6</title>
<g id="a_node7"><a xlink:href="_recording_options_8hpp.xhtml" target="_top" xlink:title="RecordingOptions.hpp">
<polygon fill="white" stroke="black" points="191.5,-112.5 191.5,-131.5 304.5,-131.5 304.5,-112.5 191.5,-112.5"/>
<text text-anchor="middle" x="248" y="-119.5" font-family="Helvetica,sans-Serif" font-size="10.00">RecordingOptions.hpp</text>
</a>
</g>
</g>
<!-- Node0&#45;&gt;Node6 -->
<g id="edge7" class="edge"><title>Node0&#45;&gt;Node6</title>
<path fill="none" stroke="midnightblue" d="M305.914,-168.324C295.514,-160.185 279.739,-147.839 267.278,-138.087"/>
<polygon fill="midnightblue" stroke="midnightblue" points="269.32,-135.241 259.288,-131.834 265.006,-140.753 269.32,-135.241"/>
</g>
<!-- Node10 -->
<g id="node11" class="node"><title>Node10</title>
<polygon fill="white" stroke="#bfbfbf" points="322.5,-112.5 322.5,-131.5 449.5,-131.5 449.5,-112.5 322.5,-112.5"/>
<text text-anchor="middle" x="386" y="-119.5" font-family="Helvetica,sans-Serif" font-size="10.00">LockedRadarForward.hpp</text>
</g>
<!-- Node0&#45;&gt;Node10 -->
<g id="edge12" class="edge"><title>Node0&#45;&gt;Node10</title>
<path fill="none" stroke="midnightblue" d="M328.086,-168.324C338.486,-160.185 354.261,-147.839 366.722,-138.087"/>
<polygon fill="midnightblue" stroke="midnightblue" points="368.994,-140.753 374.712,-131.834 364.68,-135.241 368.994,-140.753"/>
</g>
<!-- Node11 -->
<g id="node12" class="node"><title>Node11</title>
<polygon fill="white" stroke="#bfbfbf" points="468,-112.5 468,-131.5 520,-131.5 520,-112.5 468,-112.5"/>
<text text-anchor="middle" x="494" y="-119.5" font-family="Helvetica,sans-Serif" font-size="10.00">memory</text>
</g>
<!-- Node0&#45;&gt;Node11 -->
<g id="edge13" class="edge"><title>Node0&#45;&gt;Node11</title>
<path fill="none" stroke="midnightblue" d="M345.046,-168.444C375.612,-159.118 424.607,-144.171 457.993,-133.985"/>
<polygon fill="midnightblue" stroke="midnightblue" points="459.273,-137.254 467.816,-130.988 457.23,-130.559 459.273,-137.254"/>
</g>
<!-- Node12 -->
<g id="node13" class="node"><title>Node12</title>
<polygon fill="white" stroke="#bfbfbf" points="538,-112.5 538,-131.5 596,-131.5 596,-112.5 538,-112.5"/>
<text text-anchor="middle" x="567" y="-119.5" font-family="Helvetica,sans-Serif" font-size="10.00">functional</text>
</g>
<!-- Node0&#45;&gt;Node12 -->
<g id="edge14" class="edge"><title>Node0&#45;&gt;Node12</title>
<path fill="none" stroke="midnightblue" d="M358.498,-168.491C399.193,-160.08 463.255,-146.661 527.997,-132.186"/>
<polygon fill="midnightblue" stroke="midnightblue" points="528.979,-135.553 537.97,-129.949 527.446,-128.723 528.979,-135.553"/>
</g>
<!-- Node2&#45;&gt;Node1 -->
<g id="edge3" class="edge"><title>Node2&#45;&gt;Node1</title>
<path fill="none" stroke="midnightblue" d="M118.247,-112.324C128.797,-104.185 144.801,-91.8395 157.442,-82.0874"/>
<polygon fill="midnightblue" stroke="midnightblue" points="159.769,-84.7132 165.549,-75.8339 155.493,-79.1707 159.769,-84.7132"/>
</g>
<!-- Node3 -->
<g id="node4" class="node"><title>Node3</title>
<polygon fill="white" stroke="#bfbfbf" points="86,-56.5 86,-75.5 128,-75.5 128,-56.5 86,-56.5"/>
<text text-anchor="middle" x="107" y="-63.5" font-family="Helvetica,sans-Serif" font-size="10.00">vector</text>
</g>
<!-- Node2&#45;&gt;Node3 -->
<g id="edge4" class="edge"><title>Node2&#45;&gt;Node3</title>
<path fill="none" stroke="midnightblue" d="M107,-112.083C107,-105.006 107,-94.8611 107,-85.9865"/>
<polygon fill="midnightblue" stroke="midnightblue" points="110.5,-85.751 107,-75.7511 103.5,-85.7511 110.5,-85.751"/>
</g>
<!-- Node4 -->
<g id="node5" class="node"><title>Node4</title>
<g id="a_node5"><a xlink:href="datatypes_8h.xhtml" target="_top" xlink:title="datatypes.h">
<polygon fill="white" stroke="black" points="0,-56.5 0,-75.5 68,-75.5 68,-56.5 0,-56.5"/>
<text text-anchor="middle" x="34" y="-63.5" font-family="Helvetica,sans-Serif" font-size="10.00">datatypes.h</text>
</a>
</g>
</g>
<!-- Node2&#45;&gt;Node4 -->
<g id="edge5" class="edge"><title>Node2&#45;&gt;Node4</title>
<path fill="none" stroke="midnightblue" d="M95.2713,-112.324C84.1626,-104.107 67.2578,-91.6017 54.0167,-81.8069"/>
<polygon fill="midnightblue" stroke="midnightblue" points="56.0631,-78.9671 45.9421,-75.8339 51.9001,-84.5948 56.0631,-78.9671"/>
</g>
<!-- Node5 -->
<g id="node6" class="node"><title>Node5</title>
<polygon fill="white" stroke="#bfbfbf" points="9.5,-0.5 9.5,-19.5 58.5,-19.5 58.5,-0.5 9.5,-0.5"/>
<text text-anchor="middle" x="34" y="-7.5" font-family="Helvetica,sans-Serif" font-size="10.00">stdint.h</text>
</g>
<!-- Node4&#45;&gt;Node5 -->
<g id="edge6" class="edge"><title>Node4&#45;&gt;Node5</title>
<path fill="none" stroke="midnightblue" d="M34,-56.083C34,-49.0059 34,-38.8611 34,-29.9865"/>
<polygon fill="midnightblue" stroke="midnightblue" points="37.5001,-29.751 34,-19.7511 30.5001,-29.7511 37.5001,-29.751"/>
</g>
<!-- Node6&#45;&gt;Node1 -->
<g id="edge10" class="edge"><title>Node6&#45;&gt;Node1</title>
<path fill="none" stroke="midnightblue" d="M236.593,-112.324C225.891,-104.185 209.659,-91.8395 196.837,-82.0874"/>
<polygon fill="midnightblue" stroke="midnightblue" points="198.693,-79.1018 188.615,-75.8339 194.456,-84.6734 198.693,-79.1018"/>
</g>
<!-- Node7 -->
<g id="node8" class="node"><title>Node7</title>
<g id="a_node8"><a xlink:href="_preferred_split_size_8hpp.xhtml" target="_top" xlink:title="PreferredSplitSize.hpp">
<polygon fill="white" stroke="black" points="285.5,-56.5 285.5,-75.5 398.5,-75.5 398.5,-56.5 285.5,-56.5"/>
<text text-anchor="middle" x="342" y="-63.5" font-family="Helvetica,sans-Serif" font-size="10.00">PreferredSplitSize.hpp</text>
</a>
</g>
</g>
<!-- Node6&#45;&gt;Node7 -->
<g id="edge8" class="edge"><title>Node6&#45;&gt;Node7</title>
<path fill="none" stroke="midnightblue" d="M263.103,-112.324C277.903,-103.822 300.694,-90.7288 317.982,-80.7975"/>
<polygon fill="midnightblue" stroke="midnightblue" points="320.007,-83.6707 326.935,-75.6545 316.52,-77.6009 320.007,-83.6707"/>
</g>
<!-- Node9 -->
<g id="node10" class="node"><title>Node9</title>
<polygon fill="white" stroke="#bfbfbf" points="226.5,-56.5 226.5,-75.5 267.5,-75.5 267.5,-56.5 226.5,-56.5"/>
<text text-anchor="middle" x="247" y="-63.5" font-family="Helvetica,sans-Serif" font-size="10.00">string</text>
</g>
<!-- Node6&#45;&gt;Node9 -->
<g id="edge11" class="edge"><title>Node6&#45;&gt;Node9</title>
<path fill="none" stroke="midnightblue" d="M247.835,-112.083C247.704,-105.006 247.516,-94.8611 247.352,-85.9865"/>
<polygon fill="midnightblue" stroke="midnightblue" points="250.847,-85.6845 247.162,-75.7511 243.848,-85.8142 250.847,-85.6845"/>
</g>
<!-- Node8 -->
<g id="node9" class="node"><title>Node8</title>
<polygon fill="white" stroke="#bfbfbf" points="314,-0.5 314,-19.5 370,-19.5 370,-0.5 314,-0.5"/>
<text text-anchor="middle" x="342" y="-7.5" font-family="Helvetica,sans-Serif" font-size="10.00">cinttypes</text>
</g>
<!-- Node7&#45;&gt;Node8 -->
<g id="edge9" class="edge"><title>Node7&#45;&gt;Node8</title>
<path fill="none" stroke="midnightblue" d="M342,-56.083C342,-49.0059 342,-38.8611 342,-29.9865"/>
<polygon fill="midnightblue" stroke="midnightblue" points="345.5,-29.751 342,-19.7511 338.5,-29.7511 345.5,-29.751"/>
</g>
</g>
</svg>
