<?xml version="1.0" encoding="UTF-8" standalone="no"?>
<!DOCTYPE svg PUBLIC "-//W3C//DTD SVG 1.1//EN"
 "http://www.w3.org/Graphics/SVG/1.1/DTD/svg11.dtd">
<!-- Generated by graphviz version 2.38.0 (20140413.2041)
 -->
<!-- Title: src/X4M300.hpp Pages: 1 -->
<svg width="624pt" height="196pt"
 viewBox="0.00 0.00 623.50 196.00" xmlns="http://www.w3.org/2000/svg" xmlns:xlink="http://www.w3.org/1999/xlink">
<g id="graph0" class="graph" transform="scale(1 1) rotate(0) translate(4 192)">
<title>src/X4M300.hpp</title>
<polygon fill="white" stroke="none" points="-4,4 -4,-192 619.5,-192 619.5,4 -4,4"/>
<!-- Node0 -->
<g id="node1" class="node"><title>Node0</title>
<polygon fill="#bfbfbf" stroke="black" points="258.5,-168.5 258.5,-187.5 344.5,-187.5 344.5,-168.5 258.5,-168.5"/>
<text text-anchor="middle" x="301.5" y="-175.5" font-family="Helvetica,sans-Serif" font-size="10.00">src/X4M300.hpp</text>
</g>
<!-- Node1 -->
<g id="node2" class="node"><title>Node1</title>
<polygon fill="white" stroke="#bfbfbf" points="0,-112.5 0,-131.5 115,-131.5 115,-112.5 0,-112.5"/>
<text text-anchor="middle" x="57.5" y="-119.5" font-family="Helvetica,sans-Serif" font-size="10.00">NotSupportedData.hpp</text>
</g>
<!-- Node0&#45;&gt;Node1 -->
<g id="edge1" class="edge"><title>Node0&#45;&gt;Node1</title>
<path fill="none" stroke="midnightblue" d="M262.837,-168.444C220.362,-159.043 152.069,-143.929 106.026,-133.739"/>
<polygon fill="midnightblue" stroke="midnightblue" points="106.502,-130.26 95.9816,-131.516 104.989,-137.095 106.502,-130.26"/>
</g>
<!-- Node2 -->
<g id="node3" class="node"><title>Node2</title>
<g id="a_node3"><a xlink:href="_data_8hpp.xhtml" target="_top" xlink:title="Data.hpp">
<polygon fill="white" stroke="black" points="171.5,-112.5 171.5,-131.5 227.5,-131.5 227.5,-112.5 171.5,-112.5"/>
<text text-anchor="middle" x="199.5" y="-119.5" font-family="Helvetica,sans-Serif" font-size="10.00">Data.hpp</text>
</a>
</g>
</g>
<!-- Node0&#45;&gt;Node2 -->
<g id="edge2" class="edge"><title>Node0&#45;&gt;Node2</title>
<path fill="none" stroke="midnightblue" d="M285.112,-168.324C268.829,-159.703 243.633,-146.364 224.784,-136.386"/>
<polygon fill="midnightblue" stroke="midnightblue" points="226.323,-133.24 215.847,-131.655 223.048,-139.427 226.323,-133.24"/>
</g>
<!-- Node3 -->
<g id="node4" class="node"><title>Node3</title>
<polygon fill="white" stroke="#bfbfbf" points="86,-56.5 86,-75.5 147,-75.5 147,-56.5 86,-56.5"/>
<text text-anchor="middle" x="116.5" y="-63.5" font-family="Helvetica,sans-Serif" font-size="10.00">Bytes.hpp</text>
</g>
<!-- Node0&#45;&gt;Node3 -->
<g id="edge7" class="edge"><title>Node0&#45;&gt;Node3</title>
<path fill="none" stroke="midnightblue" d="M258.42,-170.415C229.167,-164.275 190.803,-152.811 162.5,-132 145.668,-119.624 132.678,-99.2076 124.86,-84.5572"/>
<polygon fill="midnightblue" stroke="midnightblue" points="127.921,-82.8548 120.29,-75.5053 121.673,-86.0096 127.921,-82.8548"/>
</g>
<!-- Node4 -->
<g id="node5" class="node"><title>Node4</title>
<polygon fill="white" stroke="#bfbfbf" points="251.5,-56.5 251.5,-75.5 293.5,-75.5 293.5,-56.5 251.5,-56.5"/>
<text text-anchor="middle" x="272.5" y="-63.5" font-family="Helvetica,sans-Serif" font-size="10.00">vector</text>
</g>
<!-- Node0&#45;&gt;Node4 -->
<g id="edge11" class="edge"><title>Node0&#45;&gt;Node4</title>
<path fill="none" stroke="midnightblue" d="M294.749,-168.28C288.473,-159.616 279.508,-145.681 275.5,-132 271.078,-116.907 270.578,-99.0068 271.043,-85.8159"/>
<polygon fill="midnightblue" stroke="midnightblue" points="274.549,-85.8086 271.624,-75.6253 267.56,-85.4095 274.549,-85.8086"/>
</g>
<!-- Node7 -->
<g id="node8" class="node"><title>Node7</title>
<polygon fill="white" stroke="#bfbfbf" points="284,-112.5 284,-131.5 411,-131.5 411,-112.5 284,-112.5"/>
<text text-anchor="middle" x="347.5" y="-119.5" font-family="Helvetica,sans-Serif" font-size="10.00">LockedRadarForward.hpp</text>
</g>
<!-- Node0&#45;&gt;Node7 -->
<g id="edge8" class="edge"><title>Node0&#45;&gt;Node7</title>
<path fill="none" stroke="midnightblue" d="M309.096,-168.083C315.727,-160.298 325.521,-148.801 333.558,-139.367"/>
<polygon fill="midnightblue" stroke="midnightblue" points="336.225,-141.633 340.045,-131.751 330.896,-137.094 336.225,-141.633"/>
</g>
<!-- Node8 -->
<g id="node9" class="node"><title>Node8</title>
<polygon fill="white" stroke="#bfbfbf" points="429.5,-112.5 429.5,-131.5 485.5,-131.5 485.5,-112.5 429.5,-112.5"/>
<text text-anchor="middle" x="457.5" y="-119.5" font-family="Helvetica,sans-Serif" font-size="10.00">cinttypes</text>
</g>
<!-- Node0&#45;&gt;Node8 -->
<g id="edge9" class="edge"><title>Node0&#45;&gt;Node8</title>
<path fill="none" stroke="midnightblue" d="M326.219,-168.444C352.348,-159.399 393.759,-145.064 423.076,-134.916"/>
<polygon fill="midnightblue" stroke="midnightblue" points="424.592,-138.095 432.897,-131.516 422.302,-131.48 424.592,-138.095"/>
</g>
<!-- Node9 -->
<g id="node10" class="node"><title>Node9</title>
<polygon fill="white" stroke="#bfbfbf" points="504,-112.5 504,-131.5 545,-131.5 545,-112.5 504,-112.5"/>
<text text-anchor="middle" x="524.5" y="-119.5" font-family="Helvetica,sans-Serif" font-size="10.00">string</text>
</g>
<!-- Node0&#45;&gt;Node9 -->
<g id="edge10" class="edge"><title>Node0&#45;&gt;Node9</title>
<path fill="none" stroke="midnightblue" d="M341.23,-168.497C378.312,-160.391 435.387,-147.485 494.078,-131.98"/>
<polygon fill="midnightblue" stroke="midnightblue" points="495.129,-135.322 503.891,-129.367 493.327,-128.558 495.129,-135.322"/>
</g>
<!-- Node10 -->
<g id="node11" class="node"><title>Node10</title>
<polygon fill="white" stroke="#bfbfbf" points="563.5,-112.5 563.5,-131.5 615.5,-131.5 615.5,-112.5 563.5,-112.5"/>
<text text-anchor="middle" x="589.5" y="-119.5" font-family="Helvetica,sans-Serif" font-size="10.00">memory</text>
</g>
<!-- Node0&#45;&gt;Node10 -->
<g id="edge12" class="edge"><title>Node0&#45;&gt;Node10</title>
<path fill="none" stroke="midnightblue" d="M344.669,-170.342C393.116,-162.645 474.257,-149.078 553.079,-132.182"/>
<polygon fill="midnightblue" stroke="midnightblue" points="554.144,-135.533 563.178,-129.996 552.663,-128.691 554.144,-135.533"/>
</g>
<!-- Node2&#45;&gt;Node3 -->
<g id="edge3" class="edge"><title>Node2&#45;&gt;Node3</title>
<path fill="none" stroke="midnightblue" d="M186.165,-112.324C173.338,-103.979 153.715,-91.2122 138.56,-81.3524"/>
<polygon fill="midnightblue" stroke="midnightblue" points="140.093,-78.1742 129.802,-75.6545 136.276,-84.0417 140.093,-78.1742"/>
</g>
<!-- Node2&#45;&gt;Node4 -->
<g id="edge4" class="edge"><title>Node2&#45;&gt;Node4</title>
<path fill="none" stroke="midnightblue" d="M211.229,-112.324C222.337,-104.107 239.242,-91.6017 252.483,-81.8069"/>
<polygon fill="midnightblue" stroke="midnightblue" points="254.6,-84.5948 260.558,-75.8339 250.437,-78.9671 254.6,-84.5948"/>
</g>
<!-- Node5 -->
<g id="node6" class="node"><title>Node5</title>
<g id="a_node6"><a xlink:href="datatypes_8h.xhtml" target="_top" xlink:title="datatypes.h">
<polygon fill="white" stroke="black" points="165.5,-56.5 165.5,-75.5 233.5,-75.5 233.5,-56.5 165.5,-56.5"/>
<text text-anchor="middle" x="199.5" y="-63.5" font-family="Helvetica,sans-Serif" font-size="10.00">datatypes.h</text>
</a>
</g>
</g>
<!-- Node2&#45;&gt;Node5 -->
<g id="edge5" class="edge"><title>Node2&#45;&gt;Node5</title>
<path fill="none" stroke="midnightblue" d="M199.5,-112.083C199.5,-105.006 199.5,-94.8611 199.5,-85.9865"/>
<polygon fill="midnightblue" stroke="midnightblue" points="203,-85.751 199.5,-75.7511 196,-85.7511 203,-85.751"/>
</g>
<!-- Node6 -->
<g id="node7" class="node"><title>Node6</title>
<polygon fill="white" stroke="#bfbfbf" points="175,-0.5 175,-19.5 224,-19.5 224,-0.5 175,-0.5"/>
<text text-anchor="middle" x="199.5" y="-7.5" font-family="Helvetica,sans-Serif" font-size="10.00">stdint.h</text>
</g>
<!-- Node5&#45;&gt;Node6 -->
<g id="edge6" class="edge"><title>Node5&#45;&gt;Node6</title>
<path fill="none" stroke="midnightblue" d="M199.5,-56.083C199.5,-49.0059 199.5,-38.8611 199.5,-29.9865"/>
<polygon fill="midnightblue" stroke="midnightblue" points="203,-29.751 199.5,-19.7511 196,-29.7511 203,-29.751"/>
</g>
</g>
</svg>
