<?xml version="1.0" encoding="UTF-8" standalone="no"?>
<!DOCTYPE svg PUBLIC "-//W3C//DTD SVG 1.1//EN"
 "http://www.w3.org/Graphics/SVG/1.1/DTD/svg11.dtd">
<!-- Generated by graphviz version 2.38.0 (20140413.2041)
 -->
<!-- Title: src/XEP.hpp Pages: 1 -->
<svg width="428pt" height="196pt"
 viewBox="0.00 0.00 427.50 196.00" xmlns="http://www.w3.org/2000/svg" xmlns:xlink="http://www.w3.org/1999/xlink">
<g id="graph0" class="graph" transform="scale(1 1) rotate(0) translate(4 192)">
<title>src/XEP.hpp</title>
<polygon fill="white" stroke="none" points="-4,4 -4,-192 423.5,-192 423.5,4 -4,4"/>
<!-- Node0 -->
<g id="node1" class="node"><title>Node0</title>
<polygon fill="#bfbfbf" stroke="black" points="244,-168.5 244,-187.5 315,-187.5 315,-168.5 244,-168.5"/>
<text text-anchor="middle" x="279.5" y="-175.5" font-family="Helvetica,sans-Serif" font-size="10.00">src/XEP.hpp</text>
</g>
<!-- Node1 -->
<g id="node2" class="node"><title>Node1</title>
<g id="a_node2"><a xlink:href="_recording_options_8hpp.xhtml" target="_top" xlink:title="RecordingOptions.hpp">
<polygon fill="white" stroke="black" points="100,-112.5 100,-131.5 213,-131.5 213,-112.5 100,-112.5"/>
<text text-anchor="middle" x="156.5" y="-119.5" font-family="Helvetica,sans-Serif" font-size="10.00">RecordingOptions.hpp</text>
</a>
</g>
</g>
<!-- Node0&#45;&gt;Node1 -->
<g id="edge1" class="edge"><title>Node0&#45;&gt;Node1</title>
<path fill="none" stroke="midnightblue" d="M260.01,-168.444C239.858,-159.596 208.177,-145.687 185.169,-135.586"/>
<polygon fill="midnightblue" stroke="midnightblue" points="186.462,-132.332 175.899,-131.516 183.648,-138.741 186.462,-132.332"/>
</g>
<!-- Node3 -->
<g id="node4" class="node"><title>Node3</title>
<polygon fill="white" stroke="#bfbfbf" points="139.5,-0.5 139.5,-19.5 195.5,-19.5 195.5,-0.5 139.5,-0.5"/>
<text text-anchor="middle" x="167.5" y="-7.5" font-family="Helvetica,sans-Serif" font-size="10.00">cinttypes</text>
</g>
<!-- Node0&#45;&gt;Node3 -->
<g id="edge6" class="edge"><title>Node0&#45;&gt;Node3</title>
<path fill="none" stroke="midnightblue" d="M280.57,-168.364C282.736,-146.991 285.434,-90.8435 259.5,-56 246.391,-38.3881 224.525,-27.2968 205.399,-20.5332"/>
<polygon fill="midnightblue" stroke="midnightblue" points="206.3,-17.1459 195.708,-17.3792 204.134,-23.8022 206.3,-17.1459"/>
</g>
<!-- Node5 -->
<g id="node6" class="node"><title>Node5</title>
<polygon fill="white" stroke="#bfbfbf" points="210,-56.5 210,-75.5 251,-75.5 251,-56.5 210,-56.5"/>
<text text-anchor="middle" x="230.5" y="-63.5" font-family="Helvetica,sans-Serif" font-size="10.00">string</text>
</g>
<!-- Node0&#45;&gt;Node5 -->
<g id="edge7" class="edge"><title>Node0&#45;&gt;Node5</title>
<path fill="none" stroke="midnightblue" d="M275.655,-168.368C267.676,-150.456 249.175,-108.923 238.495,-84.9482"/>
<polygon fill="midnightblue" stroke="midnightblue" points="241.593,-83.3019 234.327,-75.5914 235.199,-86.1503 241.593,-83.3019"/>
</g>
<!-- Node6 -->
<g id="node7" class="node"><title>Node6</title>
<polygon fill="white" stroke="#bfbfbf" points="307.5,-112.5 307.5,-131.5 349.5,-131.5 349.5,-112.5 307.5,-112.5"/>
<text text-anchor="middle" x="328.5" y="-119.5" font-family="Helvetica,sans-Serif" font-size="10.00">vector</text>
</g>
<!-- Node0&#45;&gt;Node6 -->
<g id="edge8" class="edge"><title>Node0&#45;&gt;Node6</title>
<path fill="none" stroke="midnightblue" d="M287.591,-168.083C294.655,-160.298 305.088,-148.801 313.649,-139.367"/>
<polygon fill="midnightblue" stroke="midnightblue" points="316.431,-141.509 320.559,-131.751 311.247,-136.805 316.431,-141.509"/>
</g>
<!-- Node7 -->
<g id="node8" class="node"><title>Node7</title>
<polygon fill="white" stroke="#bfbfbf" points="367.5,-112.5 367.5,-131.5 419.5,-131.5 419.5,-112.5 367.5,-112.5"/>
<text text-anchor="middle" x="393.5" y="-119.5" font-family="Helvetica,sans-Serif" font-size="10.00">memory</text>
</g>
<!-- Node0&#45;&gt;Node7 -->
<g id="edge9" class="edge"><title>Node0&#45;&gt;Node7</title>
<path fill="none" stroke="midnightblue" d="M297.564,-168.444C316.075,-159.675 345.081,-145.935 366.355,-135.858"/>
<polygon fill="midnightblue" stroke="midnightblue" points="367.982,-138.96 375.521,-131.516 364.985,-132.634 367.982,-138.96"/>
</g>
<!-- Node2 -->
<g id="node3" class="node"><title>Node2</title>
<g id="a_node3"><a xlink:href="_preferred_split_size_8hpp.xhtml" target="_top" xlink:title="PreferredSplitSize.hpp">
<polygon fill="white" stroke="black" points="0,-56.5 0,-75.5 113,-75.5 113,-56.5 0,-56.5"/>
<text text-anchor="middle" x="56.5" y="-63.5" font-family="Helvetica,sans-Serif" font-size="10.00">PreferredSplitSize.hpp</text>
</a>
</g>
</g>
<!-- Node1&#45;&gt;Node2 -->
<g id="edge2" class="edge"><title>Node1&#45;&gt;Node2</title>
<path fill="none" stroke="midnightblue" d="M140.433,-112.324C124.542,-103.743 99.9926,-90.486 81.5415,-80.5224"/>
<polygon fill="midnightblue" stroke="midnightblue" points="82.989,-77.3264 72.5269,-75.6545 79.6629,-83.4857 82.989,-77.3264"/>
</g>
<!-- Node4 -->
<g id="node5" class="node"><title>Node4</title>
<polygon fill="white" stroke="#bfbfbf" points="131,-56.5 131,-75.5 192,-75.5 192,-56.5 131,-56.5"/>
<text text-anchor="middle" x="161.5" y="-63.5" font-family="Helvetica,sans-Serif" font-size="10.00">Bytes.hpp</text>
</g>
<!-- Node1&#45;&gt;Node4 -->
<g id="edge4" class="edge"><title>Node1&#45;&gt;Node4</title>
<path fill="none" stroke="midnightblue" d="M157.326,-112.083C157.981,-105.006 158.92,-94.8611 159.742,-85.9865"/>
<polygon fill="midnightblue" stroke="midnightblue" points="163.253,-86.0312 160.69,-75.7511 156.283,-85.3858 163.253,-86.0312"/>
</g>
<!-- Node1&#45;&gt;Node5 -->
<g id="edge5" class="edge"><title>Node1&#45;&gt;Node5</title>
<path fill="none" stroke="midnightblue" d="M168.389,-112.324C179.65,-104.107 196.787,-91.6017 210.209,-81.8069"/>
<polygon fill="midnightblue" stroke="midnightblue" points="212.38,-84.5559 218.394,-75.8339 208.253,-78.9014 212.38,-84.5559"/>
</g>
<!-- Node2&#45;&gt;Node3 -->
<g id="edge3" class="edge"><title>Node2&#45;&gt;Node3</title>
<path fill="none" stroke="midnightblue" d="M74.3341,-56.324C92.2159,-47.6247 119.975,-34.1202 140.546,-24.113"/>
<polygon fill="midnightblue" stroke="midnightblue" points="142.249,-27.1765 149.71,-19.6545 139.187,-20.8819 142.249,-27.1765"/>
</g>
</g>
</svg>
