<?xml version="1.0" encoding="UTF-8" standalone="no"?>
<!DOCTYPE svg PUBLIC "-//W3C//DTD SVG 1.1//EN"
 "http://www.w3.org/Graphics/SVG/1.1/DTD/svg11.dtd">
<!-- Generated by graphviz version 2.38.0 (20140413.2041)
 -->
<!-- Title: src/XEP.hpp Pages: 1 -->
<svg width="547pt" height="196pt"
 viewBox="0.00 0.00 546.50 196.00" xmlns="http://www.w3.org/2000/svg" xmlns:xlink="http://www.w3.org/1999/xlink">
<g id="graph0" class="graph" transform="scale(1 1) rotate(0) translate(4 192)">
<title>src/XEP.hpp</title>
<polygon fill="white" stroke="none" points="-4,4 -4,-192 542.5,-192 542.5,4 -4,4"/>
<!-- Node0 -->
<g id="node1" class="node"><title>Node0</title>
<polygon fill="#bfbfbf" stroke="black" points="257,-168.5 257,-187.5 328,-187.5 328,-168.5 257,-168.5"/>
<text text-anchor="middle" x="292.5" y="-175.5" font-family="Helvetica,sans-Serif" font-size="10.00">src/XEP.hpp</text>
</g>
<!-- Node1 -->
<g id="node2" class="node"><title>Node1</title>
<g id="a_node2"><a xlink:href="_recording_options_8hpp.xhtml" target="_top" xlink:title="RecordingOptions.hpp">
<polygon fill="white" stroke="black" points="59,-112.5 59,-131.5 172,-131.5 172,-112.5 59,-112.5"/>
<text text-anchor="middle" x="115.5" y="-119.5" font-family="Helvetica,sans-Serif" font-size="10.00">RecordingOptions.hpp</text>
</a>
</g>
</g>
<!-- Node0&#45;&gt;Node1 -->
<g id="edge1" class="edge"><title>Node0&#45;&gt;Node1</title>
<path fill="none" stroke="midnightblue" d="M264.454,-168.444C234.418,-159.28 186.587,-144.688 153.257,-134.519"/>
<polygon fill="midnightblue" stroke="midnightblue" points="154.001,-131.087 143.415,-131.516 151.958,-137.782 154.001,-131.087"/>
</g>
<!-- Node3 -->
<g id="node4" class="node"><title>Node3</title>
<polygon fill="white" stroke="#bfbfbf" points="130.5,-0.5 130.5,-19.5 186.5,-19.5 186.5,-0.5 130.5,-0.5"/>
<text text-anchor="middle" x="158.5" y="-7.5" font-family="Helvetica,sans-Serif" font-size="10.00">cinttypes</text>
</g>
<!-- Node0&#45;&gt;Node3 -->
<g id="edge12" class="edge"><title>Node0&#45;&gt;Node3</title>
<path fill="none" stroke="midnightblue" d="M272.441,-168.397C256.471,-160.736 234.401,-148.232 219.5,-132 217.572,-129.899 183.557,-61.5384 167.177,-28.5161"/>
<polygon fill="midnightblue" stroke="midnightblue" points="170.292,-26.92 162.715,-19.5148 164.021,-30.0289 170.292,-26.92"/>
</g>
<!-- Node5 -->
<g id="node6" class="node"><title>Node5</title>
<polygon fill="white" stroke="#bfbfbf" points="0,-56.5 0,-75.5 41,-75.5 41,-56.5 0,-56.5"/>
<text text-anchor="middle" x="20.5" y="-63.5" font-family="Helvetica,sans-Serif" font-size="10.00">string</text>
</g>
<!-- Node0&#45;&gt;Node5 -->
<g id="edge13" class="edge"><title>Node0&#45;&gt;Node5</title>
<path fill="none" stroke="midnightblue" d="M256.879,-174.444C197.383,-169.525 81.1837,-156.954 49.5,-132 35.1115,-120.668 27.663,-100.669 23.9415,-85.8373"/>
<polygon fill="midnightblue" stroke="midnightblue" points="27.2928,-84.7731 21.769,-75.7322 20.4492,-86.2445 27.2928,-84.7731"/>
</g>
<!-- Node6 -->
<g id="node7" class="node"><title>Node6</title>
<polygon fill="white" stroke="#bfbfbf" points="229,-112.5 229,-131.5 356,-131.5 356,-112.5 229,-112.5"/>
<text text-anchor="middle" x="292.5" y="-119.5" font-family="Helvetica,sans-Serif" font-size="10.00">LockedRadarForward.hpp</text>
</g>
<!-- Node0&#45;&gt;Node6 -->
<g id="edge6" class="edge"><title>Node0&#45;&gt;Node6</title>
<path fill="none" stroke="midnightblue" d="M292.5,-168.083C292.5,-161.006 292.5,-150.861 292.5,-141.986"/>
<polygon fill="midnightblue" stroke="midnightblue" points="296,-141.751 292.5,-131.751 289,-141.751 296,-141.751"/>
</g>
<!-- Node7 -->
<g id="node8" class="node"><title>Node7</title>
<g id="a_node8"><a xlink:href="_data_8hpp.xhtml" target="_top" xlink:title="Data.hpp">
<polygon fill="white" stroke="black" points="374.5,-112.5 374.5,-131.5 430.5,-131.5 430.5,-112.5 374.5,-112.5"/>
<text text-anchor="middle" x="402.5" y="-119.5" font-family="Helvetica,sans-Serif" font-size="10.00">Data.hpp</text>
</a>
</g>
</g>
<!-- Node0&#45;&gt;Node7 -->
<g id="edge7" class="edge"><title>Node0&#45;&gt;Node7</title>
<path fill="none" stroke="midnightblue" d="M310.173,-168.324C327.894,-159.625 355.403,-146.12 375.788,-136.113"/>
<polygon fill="midnightblue" stroke="midnightblue" points="377.436,-139.203 384.87,-131.655 374.351,-132.919 377.436,-139.203"/>
</g>
<!-- Node8 -->
<g id="node9" class="node"><title>Node8</title>
<polygon fill="white" stroke="#bfbfbf" points="437.5,-56.5 437.5,-75.5 479.5,-75.5 479.5,-56.5 437.5,-56.5"/>
<text text-anchor="middle" x="458.5" y="-63.5" font-family="Helvetica,sans-Serif" font-size="10.00">vector</text>
</g>
<!-- Node0&#45;&gt;Node8 -->
<g id="edge14" class="edge"><title>Node0&#45;&gt;Node8</title>
<path fill="none" stroke="midnightblue" d="M328.24,-175.393C361.44,-171.987 410.058,-161.817 439.5,-132 451.493,-119.854 455.994,-100.578 457.643,-86.1658"/>
<polygon fill="midnightblue" stroke="midnightblue" points="461.157,-86.1211 458.443,-75.8797 454.178,-85.5782 461.157,-86.1211"/>
</g>
<!-- Node11 -->
<g id="node12" class="node"><title>Node11</title>
<polygon fill="white" stroke="#bfbfbf" points="486.5,-112.5 486.5,-131.5 538.5,-131.5 538.5,-112.5 486.5,-112.5"/>
<text text-anchor="middle" x="512.5" y="-119.5" font-family="Helvetica,sans-Serif" font-size="10.00">memory</text>
</g>
<!-- Node0&#45;&gt;Node11 -->
<g id="edge15" class="edge"><title>Node0&#45;&gt;Node11</title>
<path fill="none" stroke="midnightblue" d="M327.36,-168.444C368.128,-158.437 435.274,-141.955 476.519,-131.832"/>
<polygon fill="midnightblue" stroke="midnightblue" points="477.538,-135.186 486.415,-129.403 475.869,-128.387 477.538,-135.186"/>
</g>
<!-- Node2 -->
<g id="node3" class="node"><title>Node2</title>
<g id="a_node3"><a xlink:href="_preferred_split_size_8hpp.xhtml" target="_top" xlink:title="PreferredSplitSize.hpp">
<polygon fill="white" stroke="black" points="59,-56.5 59,-75.5 172,-75.5 172,-56.5 59,-56.5"/>
<text text-anchor="middle" x="115.5" y="-63.5" font-family="Helvetica,sans-Serif" font-size="10.00">PreferredSplitSize.hpp</text>
</a>
</g>
</g>
<!-- Node1&#45;&gt;Node2 -->
<g id="edge2" class="edge"><title>Node1&#45;&gt;Node2</title>
<path fill="none" stroke="midnightblue" d="M115.5,-112.083C115.5,-105.006 115.5,-94.8611 115.5,-85.9865"/>
<polygon fill="midnightblue" stroke="midnightblue" points="119,-85.751 115.5,-75.7511 112,-85.7511 119,-85.751"/>
</g>
<!-- Node4 -->
<g id="node5" class="node"><title>Node4</title>
<polygon fill="white" stroke="#bfbfbf" points="251,-56.5 251,-75.5 312,-75.5 312,-56.5 251,-56.5"/>
<text text-anchor="middle" x="281.5" y="-63.5" font-family="Helvetica,sans-Serif" font-size="10.00">Bytes.hpp</text>
</g>
<!-- Node1&#45;&gt;Node4 -->
<g id="edge4" class="edge"><title>Node1&#45;&gt;Node4</title>
<path fill="none" stroke="midnightblue" d="M141.803,-112.444C169.851,-103.32 214.444,-88.8133 245.684,-78.6509"/>
<polygon fill="midnightblue" stroke="midnightblue" points="246.893,-81.9383 255.32,-75.5164 244.728,-75.2816 246.893,-81.9383"/>
</g>
<!-- Node1&#45;&gt;Node5 -->
<g id="edge5" class="edge"><title>Node1&#45;&gt;Node5</title>
<path fill="none" stroke="midnightblue" d="M100.237,-112.324C85.2786,-103.822 62.2452,-90.7288 44.7733,-80.7975"/>
<polygon fill="midnightblue" stroke="midnightblue" points="46.1488,-77.5534 35.7255,-75.6545 42.6896,-83.639 46.1488,-77.5534"/>
</g>
<!-- Node2&#45;&gt;Node3 -->
<g id="edge3" class="edge"><title>Node2&#45;&gt;Node3</title>
<path fill="none" stroke="midnightblue" d="M122.601,-56.083C128.737,-48.3768 137.77,-37.0333 145.239,-27.6531"/>
<polygon fill="midnightblue" stroke="midnightblue" points="148.04,-29.7542 151.532,-19.7511 142.564,-25.3936 148.04,-29.7542"/>
</g>
<!-- Node7&#45;&gt;Node4 -->
<g id="edge8" class="edge"><title>Node7&#45;&gt;Node4</title>
<path fill="none" stroke="midnightblue" d="M383.327,-112.444C363.591,-103.636 332.615,-89.8116 310.007,-79.722"/>
<polygon fill="midnightblue" stroke="midnightblue" points="311.141,-76.3957 300.583,-75.5164 308.289,-82.788 311.141,-76.3957"/>
</g>
<!-- Node7&#45;&gt;Node8 -->
<g id="edge9" class="edge"><title>Node7&#45;&gt;Node8</title>
<path fill="none" stroke="midnightblue" d="M411.497,-112.324C419.694,-104.42 432.006,-92.5482 441.972,-82.9377"/>
<polygon fill="midnightblue" stroke="midnightblue" points="444.57,-85.2947 449.339,-75.8339 439.711,-80.2558 444.57,-85.2947"/>
</g>
<!-- Node9 -->
<g id="node10" class="node"><title>Node9</title>
<g id="a_node10"><a xlink:href="datatypes_8h.xhtml" target="_top" xlink:title="datatypes.h">
<polygon fill="white" stroke="black" points="351.5,-56.5 351.5,-75.5 419.5,-75.5 419.5,-56.5 351.5,-56.5"/>
<text text-anchor="middle" x="385.5" y="-63.5" font-family="Helvetica,sans-Serif" font-size="10.00">datatypes.h</text>
</a>
</g>
</g>
<!-- Node7&#45;&gt;Node9 -->
<g id="edge10" class="edge"><title>Node7&#45;&gt;Node9</title>
<path fill="none" stroke="midnightblue" d="M399.693,-112.083C397.415,-104.849 394.129,-94.4087 391.292,-85.3968"/>
<polygon fill="midnightblue" stroke="midnightblue" points="394.596,-84.2385 388.255,-75.7511 387.919,-86.3406 394.596,-84.2385"/>
</g>
<!-- Node10 -->
<g id="node11" class="node"><title>Node10</title>
<polygon fill="white" stroke="#bfbfbf" points="361,-0.5 361,-19.5 410,-19.5 410,-0.5 361,-0.5"/>
<text text-anchor="middle" x="385.5" y="-7.5" font-family="Helvetica,sans-Serif" font-size="10.00">stdint.h</text>
</g>
<!-- Node9&#45;&gt;Node10 -->
<g id="edge11" class="edge"><title>Node9&#45;&gt;Node10</title>
<path fill="none" stroke="midnightblue" d="M385.5,-56.083C385.5,-49.0059 385.5,-38.8611 385.5,-29.9865"/>
<polygon fill="midnightblue" stroke="midnightblue" points="389,-29.751 385.5,-19.7511 382,-29.7511 389,-29.751"/>
</g>
</g>
</svg>
