<?xml version="1.0" encoding="UTF-8" standalone="no"?>
<!DOCTYPE svg PUBLIC "-//W3C//DTD SVG 1.1//EN"
 "http://www.w3.org/Graphics/SVG/1.1/DTD/svg11.dtd">
<!-- Generated by graphviz version 2.38.0 (20140413.2041)
 -->
<!-- Title: src/datatypes.h Pages: 1 -->
<svg width="409pt" height="140pt"
 viewBox="0.00 0.00 409.00 140.00" xmlns="http://www.w3.org/2000/svg" xmlns:xlink="http://www.w3.org/1999/xlink">
<g id="graph0" class="graph" transform="scale(1 1) rotate(0) translate(4 136)">
<title>src/datatypes.h</title>
<polygon fill="white" stroke="none" points="-4,4 -4,-136 405,-136 405,4 -4,4"/>
<!-- Node2 -->
<g id="node1" class="node"><title>Node2</title>
<polygon fill="#bfbfbf" stroke="black" points="78.5,-112.5 78.5,-131.5 162.5,-131.5 162.5,-112.5 78.5,-112.5"/>
<text text-anchor="middle" x="120.5" y="-119.5" font-family="Helvetica,sans-Serif" font-size="10.00">src/datatypes.h</text>
</g>
<!-- Node3 -->
<g id="node2" class="node"><title>Node3</title>
<g id="a_node2"><a xlink:href="_data_8hpp.xhtml" target="_top" xlink:title="src/Data.hpp">
<polygon fill="white" stroke="black" points="128.5,-56.5 128.5,-75.5 200.5,-75.5 200.5,-56.5 128.5,-56.5"/>
<text text-anchor="middle" x="164.5" y="-63.5" font-family="Helvetica,sans-Serif" font-size="10.00">src/Data.hpp</text>
</a>
</g>
</g>
<!-- Node2&#45;&gt;Node3 -->
<g id="edge1" class="edge"><title>Node2&#45;&gt;Node3</title>
<path fill="none" stroke="midnightblue" d="M134.235,-104.144C141.901,-94.7357 151.133,-83.4046 157.369,-75.7511"/>
<polygon fill="midnightblue" stroke="midnightblue" points="131.369,-102.12 127.766,-112.083 136.796,-106.541 131.369,-102.12"/>
</g>
<!-- Node4 -->
<g id="node3" class="node"><title>Node4</title>
<g id="a_node3"><a xlink:href="_data_reader_8hpp.xhtml" target="_top" xlink:title="src/DataReader.hpp">
<polygon fill="white" stroke="black" points="0,-0.5 0,-19.5 103,-19.5 103,-0.5 0,-0.5"/>
<text text-anchor="middle" x="51.5" y="-7.5" font-family="Helvetica,sans-Serif" font-size="10.00">src/DataReader.hpp</text>
</a>
</g>
</g>
<!-- Node2&#45;&gt;Node4 -->
<g id="edge6" class="edge"><title>Node2&#45;&gt;Node4</title>
<path fill="none" stroke="midnightblue" d="M109.61,-103.64C94.621,-79.7436 68.2034,-37.6286 56.8892,-19.5914"/>
<polygon fill="midnightblue" stroke="midnightblue" points="106.807,-105.757 115.086,-112.368 112.737,-102.037 106.807,-105.757"/>
</g>
<!-- Node3&#45;&gt;Node4 -->
<g id="edge2" class="edge"><title>Node3&#45;&gt;Node4</title>
<path fill="none" stroke="midnightblue" d="M137.497,-52.096C116.386,-42.0073 87.6385,-28.2697 69.3214,-19.5164"/>
<polygon fill="midnightblue" stroke="midnightblue" points="136.063,-55.2897 146.595,-56.4435 139.081,-48.9738 136.063,-55.2897"/>
</g>
<!-- Node5 -->
<g id="node4" class="node"><title>Node5</title>
<g id="a_node4"><a xlink:href="_x2_m200_8hpp.xhtml" target="_top" xlink:title="src/X2M200.hpp">
<polygon fill="white" stroke="black" points="121.5,-0.5 121.5,-19.5 207.5,-19.5 207.5,-0.5 121.5,-0.5"/>
<text text-anchor="middle" x="164.5" y="-7.5" font-family="Helvetica,sans-Serif" font-size="10.00">src/X2M200.hpp</text>
</a>
</g>
</g>
<!-- Node3&#45;&gt;Node5 -->
<g id="edge3" class="edge"><title>Node3&#45;&gt;Node5</title>
<path fill="none" stroke="midnightblue" d="M164.5,-45.8045C164.5,-36.9102 164.5,-26.7798 164.5,-19.7511"/>
<polygon fill="midnightblue" stroke="midnightblue" points="161,-46.083 164.5,-56.083 168,-46.083 161,-46.083"/>
</g>
<!-- Node6 -->
<g id="node5" class="node"><title>Node6</title>
<g id="a_node5"><a xlink:href="_x4_m300_8hpp.xhtml" target="_top" xlink:title="src/X4M300.hpp">
<polygon fill="white" stroke="black" points="225.5,-0.5 225.5,-19.5 311.5,-19.5 311.5,-0.5 225.5,-0.5"/>
<text text-anchor="middle" x="268.5" y="-7.5" font-family="Helvetica,sans-Serif" font-size="10.00">src/X4M300.hpp</text>
</a>
</g>
</g>
<!-- Node3&#45;&gt;Node6 -->
<g id="edge4" class="edge"><title>Node3&#45;&gt;Node6</title>
<path fill="none" stroke="midnightblue" d="M190.328,-51.5895C209.557,-41.6052 235.245,-28.2672 251.832,-19.6545"/>
<polygon fill="midnightblue" stroke="midnightblue" points="188.471,-48.6095 181.209,-56.324 191.697,-54.822 188.471,-48.6095"/>
</g>
<!-- Node7 -->
<g id="node6" class="node"><title>Node7</title>
<g id="a_node6"><a xlink:href="_x_e_p_8hpp.xhtml" target="_top" xlink:title="src/XEP.hpp">
<polygon fill="white" stroke="black" points="330,-0.5 330,-19.5 401,-19.5 401,-0.5 330,-0.5"/>
<text text-anchor="middle" x="365.5" y="-7.5" font-family="Helvetica,sans-Serif" font-size="10.00">src/XEP.hpp</text>
</a>
</g>
</g>
<!-- Node3&#45;&gt;Node7 -->
<g id="edge5" class="edge"><title>Node3&#45;&gt;Node7</title>
<path fill="none" stroke="midnightblue" d="M206.081,-53.8291C244.031,-43.6333 299.31,-28.7823 333.8,-19.5164"/>
<polygon fill="midnightblue" stroke="midnightblue" points="205.098,-50.4688 196.349,-56.4435 206.915,-57.229 205.098,-50.4688"/>
</g>
</g>
</svg>
