<?xml version="1.0" encoding="UTF-8" standalone="no"?>
<!DOCTYPE svg PUBLIC "-//W3C//DTD SVG 1.1//EN"
 "http://www.w3.org/Graphics/SVG/1.1/DTD/svg11.dtd">
<!-- Generated by graphviz version 2.38.0 (20140413.2041)
 -->
<!-- Title: src/datatypes.h Pages: 1 -->
<svg width="320pt" height="140pt"
 viewBox="0.00 0.00 319.50 140.00" xmlns="http://www.w3.org/2000/svg" xmlns:xlink="http://www.w3.org/1999/xlink">
<g id="graph0" class="graph" transform="scale(1 1) rotate(0) translate(4 136)">
<title>src/datatypes.h</title>
<polygon fill="white" stroke="none" points="-4,4 -4,-136 315.5,-136 315.5,4 -4,4"/>
<!-- Node2 -->
<g id="node1" class="node"><title>Node2</title>
<polygon fill="#bfbfbf" stroke="black" points="71.5,-112.5 71.5,-131.5 155.5,-131.5 155.5,-112.5 71.5,-112.5"/>
<text text-anchor="middle" x="113.5" y="-119.5" font-family="Helvetica,sans-Serif" font-size="10.00">src/datatypes.h</text>
</g>
<!-- Node3 -->
<g id="node2" class="node"><title>Node3</title>
<g id="a_node2"><a xlink:href="_data_8hpp.xhtml" target="_top" xlink:title="src/Data.hpp">
<polygon fill="white" stroke="black" points="115.5,-56.5 115.5,-75.5 187.5,-75.5 187.5,-56.5 115.5,-56.5"/>
<text text-anchor="middle" x="151.5" y="-63.5" font-family="Helvetica,sans-Serif" font-size="10.00">src/Data.hpp</text>
</a>
</g>
</g>
<!-- Node2&#45;&gt;Node3 -->
<g id="edge1" class="edge"><title>Node2&#45;&gt;Node3</title>
<path fill="none" stroke="midnightblue" d="M125.565,-103.855C132.145,-94.5048 140.011,-83.3265 145.342,-75.7511"/>
<polygon fill="midnightblue" stroke="midnightblue" points="122.668,-101.891 119.775,-112.083 128.392,-105.919 122.668,-101.891"/>
</g>
<!-- Node4 -->
<g id="node3" class="node"><title>Node4</title>
<g id="a_node3"><a xlink:href="_data_reader_8hpp.xhtml" target="_top" xlink:title="src/DataReader.hpp">
<polygon fill="white" stroke="black" points="0,-0.5 0,-19.5 103,-19.5 103,-0.5 0,-0.5"/>
<text text-anchor="middle" x="51.5" y="-7.5" font-family="Helvetica,sans-Serif" font-size="10.00">src/DataReader.hpp</text>
</a>
</g>
</g>
<!-- Node2&#45;&gt;Node4 -->
<g id="edge5" class="edge"><title>Node2&#45;&gt;Node4</title>
<path fill="none" stroke="midnightblue" d="M103.715,-103.64C90.2464,-79.7436 66.5089,-37.6286 56.3424,-19.5914"/>
<polygon fill="midnightblue" stroke="midnightblue" points="100.676,-105.376 108.635,-112.368 106.774,-101.938 100.676,-105.376"/>
</g>
<!-- Node3&#45;&gt;Node4 -->
<g id="edge2" class="edge"><title>Node3&#45;&gt;Node4</title>
<path fill="none" stroke="midnightblue" d="M126.412,-51.4526C107.951,-41.4835 83.4034,-28.2279 67.5269,-19.6545"/>
<polygon fill="midnightblue" stroke="midnightblue" points="124.971,-54.6521 135.433,-56.324 128.297,-48.4928 124.971,-54.6521"/>
</g>
<!-- Node5 -->
<g id="node4" class="node"><title>Node5</title>
<g id="a_node4"><a xlink:href="_x2_m200_8hpp.xhtml" target="_top" xlink:title="src/X2M200.hpp">
<polygon fill="white" stroke="black" points="121.5,-0.5 121.5,-19.5 207.5,-19.5 207.5,-0.5 121.5,-0.5"/>
<text text-anchor="middle" x="164.5" y="-7.5" font-family="Helvetica,sans-Serif" font-size="10.00">src/X2M200.hpp</text>
</a>
</g>
</g>
<!-- Node3&#45;&gt;Node5 -->
<g id="edge3" class="edge"><title>Node3&#45;&gt;Node5</title>
<path fill="none" stroke="midnightblue" d="M156.05,-46.1005C158.208,-37.1357 160.682,-26.8579 162.393,-19.7511"/>
<polygon fill="midnightblue" stroke="midnightblue" points="152.585,-45.5415 153.647,-56.083 159.39,-47.18 152.585,-45.5415"/>
</g>
<!-- Node6 -->
<g id="node5" class="node"><title>Node6</title>
<g id="a_node5"><a xlink:href="_x4_m300_8hpp.xhtml" target="_top" xlink:title="src/X4M300.hpp">
<polygon fill="white" stroke="black" points="225.5,-0.5 225.5,-19.5 311.5,-19.5 311.5,-0.5 225.5,-0.5"/>
<text text-anchor="middle" x="268.5" y="-7.5" font-family="Helvetica,sans-Serif" font-size="10.00">src/X4M300.hpp</text>
</a>
</g>
</g>
<!-- Node3&#45;&gt;Node6 -->
<g id="edge4" class="edge"><title>Node3&#45;&gt;Node6</title>
<path fill="none" stroke="midnightblue" d="M179.164,-52.2321C201.049,-42.1312 230.997,-28.3091 250.048,-19.5164"/>
<polygon fill="midnightblue" stroke="midnightblue" points="177.652,-49.075 170.039,-56.4435 180.585,-55.4308 177.652,-49.075"/>
</g>
</g>
</svg>
